STARTFONT 2.1
FONT -FontForge-Inconsolata LGC-Bold-R-Normal--60-580-75-75-P-358-ISO10646-1
SIZE 58 75 75
FONTBOUNDINGBOX 43 76 -6 -13
COMMENT "Generated by fontforge, http://fontforge.sourceforge.net"
COMMENT "Original Roman version created by Raph Levien using his own tools and FontForge. Copyright 2006 Raph Levien. Hellenisation of the Roman font, by Dimosthenis Kaponis, using FontForge. Hellenic glyphs Copyright 2010-2012 Dimosthenis Kaponis. Released under the SIL Open Font License, http://scripts.sil.org/OFL."
COMMENT ""
COMMENT "Cyrillic glyphs added by MihailJP, using FontForge. Cyrillic glyphs Copyright 2012 MihailJP. Released under the SIL Open Font License, http://scripts.sil.org/OFL."
COMMENT ""
COMMENT "Emboldened by MihailJP."
COMMENT ""
COMMENT "Some glyphs modified by Greg Omelaenko, using FontForge."
STARTPROPERTIES 40
FOUNDRY "FontForge"
FAMILY_NAME "Inconsolata LGC"
WEIGHT_NAME "Bold"
SLANT "R"
SETWIDTH_NAME "Normal"
ADD_STYLE_NAME ""
PIXEL_SIZE 60
POINT_SIZE 580
RESOLUTION_X 75
RESOLUTION_Y 75
SPACING "P"
AVERAGE_WIDTH 358
CHARSET_REGISTRY "ISO10646"
CHARSET_ENCODING "1"
FONTNAME_REGISTRY ""
CHARSET_COLLECTIONS "ASCII ISOLatin1Encoding ISO8859-2 ISO8859-5 ISO8859-7 ISO8859-9 ISO8859-4 ISO10646-1"
FONT_NAME "InconsolataLGC-Bold"
FACE_NAME "Inconsolata LGC Bold"
COPYRIGHT "Original Roman version created by Raph Levien using his own tools and FontForge. Copyright 2006 Raph Levien. Hellenisation of the Roman font, by Dimosthenis Kaponis, using FontForge. Hellenic glyphs Copyright 2010-2012 Dimosthenis Kaponis. Released under the SIL Open Font License, http://scripts.sil.org/OFL."
FONT_VERSION "1.2"
FONT_ASCENT 49
FONT_DESCENT 11
UNDERLINE_POSITION -9
UNDERLINE_THICKNESS 3
X_HEIGHT 31
CAP_HEIGHT 42
RAW_ASCENT 820
RAW_DESCENT 179
NORM_SPACE 36
RELATIVE_WEIGHT 70
RELATIVE_SETWIDTH 50
SUPERSCRIPT_X 0
SUPERSCRIPT_Y 28
SUPERSCRIPT_SIZE 41
SUBSCRIPT_X 0
SUBSCRIPT_Y 8
SUBSCRIPT_SIZE 41
FIGURE_WIDTH 36
AVG_LOWERCASE_WIDTH 357
AVG_UPPERCASE_WIDTH 357

STARTCHAR space
ENCODING 32
SWIDTH 598 0
DWIDTH 36 0
BBX 1 1 0 0
BITMAP
00
ENDCHAR
STARTCHAR exclam
ENCODING 33
SWIDTH 598 0
DWIDTH 36 0
BBX 10 47 12 -1
BITMAP
1E00
3F00
3F80
7F80
7FC0
7FC0
7FC0
7FC0
7FC0
7FC0
7FC0
7F80
7F80
3F80
3F80
3F80
3F80
3F80
3F80
3F80
3F80
3F80
3F80
3F00
3F00
3F00
3F00
3F00
3F00
1F00
1F00
1F00
0000
0000
0000
0000
0000
1E00
3F80
7FC0
FFC0
FFC0
FFC0
FFC0
7FC0
3F80
1E00
ENDCHAR
STARTCHAR quotedbl
ENCODING 34
SWIDTH 598 0
DWIDTH 36 0
BBX 19 19 9 27
BITMAP
3C03C0
7C07E0
7E07E0
FE07E0
FE07E0
FE07E0
FE07E0
FE07E0
FE07E0
7E07E0
FE07E0
FE07E0
7E07E0
7E07E0
7E07E0
7E07E0
7E07E0
7E07E0
7E07E0
ENDCHAR
STARTCHAR numbersign
ENCODING 35
SWIDTH 598 0
DWIDTH 36 0
BBX 34 45 1 -1
BITMAP
001F807800
001F81F800
001F83F800
003F03F000
003F03F000
003F03F000
003F03F000
003F03F000
003F03F000
003F03F000
003F07F000
003E07E000
3FFFFFFFC0
3FFFFFFF80
3FFFFFFF80
7FFFFFFF80
7FFE07FF80
007E07E000
007E0FE000
007C0FC000
00FC0FC000
00FC0FC000
00FC0FC000
00FC0FC000
00FC0FC000
00FC0FC000
00FFFFC000
7FFFFFFF00
7FFFFFFF00
7FFFFFFF00
FFFFFFFF00
FFFFFFFF00
01F81F8000
01F81F8000
01F81F8000
01F83F0000
01F03F0000
03F03F0000
03F03F0000
03F03F0000
03F03F0000
03F03F0000
03F03F0000
03F07E0000
0000780000
ENDCHAR
STARTCHAR dollar
ENCODING 36
SWIDTH 598 0
DWIDTH 36 0
BBX 29 49 4 -3
BITMAP
000FC000
000FC000
000FC000
000FC000
003FF000
01FFFE00
03FFFF80
0FFFFFC0
1FFFFFE0
1FEFFFF0
3F8FCFF0
3F0FC3E0
7F0FC1C0
7F0FC1C0
7F0FC080
7F0FC000
7F8FC000
3FCFC000
3FEFC000
1FFFC000
1FFFC000
0FFFC000
07FFF800
01FFFE00
007FFF80
001FFFC0
000FFFE0
000FFFF0
000FCFF0
000FC7F8
000FC3F8
000FC1F8
000FC1F8
000FC1F8
180FC1F8
380FC1F8
7C0FC3F8
7E0FC7F0
FF8FCFF0
FFFFFFE0
7FFFFFC0
3FFFFF80
0FFFFF00
03FFFC00
007FE000
000FC000
000FC000
000FC000
000FC000
ENDCHAR
STARTCHAR percent
ENCODING 37
SWIDTH 598 0
DWIDTH 36 0
BBX 33 45 2 -1
BITMAP
07E0000000
0FF8007F00
3FFC00FE00
3FFE00FE00
7FFF01FC00
FFFF01F800
FC3F83F800
FC3F87F000
FC1F87F000
FC1F8FE000
FC1F8FC000
FC1F9FC000
FC3F9F8000
FE3F3F8000
7FFF7F0000
7FFE7E0000
3FFEFE0000
1FFCFC0000
0FF1FC0000
0183F80000
0003F80000
0007F00000
0007E00000
000FE00000
000FC00000
001FC00000
003F87E000
003F0FF800
007F3FFC00
007E3FFE00
00FE7FFF00
01FCFF7F00
01F8FC3F80
03F8FC1F80
03F0FC1F80
07F0FC1F80
07E0FC1F80
0FE0FC1F80
1FC0FC3F80
1F80FE7F00
3F807FFF00
3F003FFE00
7F003FFC00
7E000FF800
000003E000
ENDCHAR
STARTCHAR ampersand
ENCODING 38
SWIDTH 598 0
DWIDTH 36 0
BBX 33 45 2 -1
BITMAP
001FC00000
007FF00000
01FFF80000
03FFFC0000
03FFFE0000
07FFFF0000
07F8FF0000
0FE07F0000
0FE03F8000
0FE03F8000
0FE03F8000
0FE03F8000
0FE03F0000
07E03F0000
07F07F0000
03F87E0000
03F8FE0000
01FDFC0000
01FFF80000
00FFF00000
00FFE00000
03FFC00000
07FFC00000
0FFFE01000
1FE7F03800
1FC7F83E00
3F83F83F00
3F81FC3F80
7F01FE7F00
7F00FF7F00
7F007FFE00
FE003FFC00
FE003FFC00
FE001FF800
FE000FF000
FF001FF000
7F003FF800
7F807FFC00
7FE3FFFE00
3FFFFFFE00
3FFFFEFF00
1FFFFC7F80
0FFFF07E00
03FFC03C00
00FF001800
ENDCHAR
STARTCHAR quotesingle
ENCODING 39
SWIDTH 598 0
DWIDTH 36 0
BBX 8 19 15 27
BITMAP
1C
7E
7F
FF
FF
FF
FF
FF
FF
7F
7F
7F
7F
7F
7F
7F
7F
7F
7F
ENDCHAR
STARTCHAR parenleft
ENCODING 40
SWIDTH 598 0
DWIDTH 36 0
BBX 22 59 9 -12
BITMAP
000030
0000F0
0003F8
0007F8
001FFC
003FFC
007FE0
00FFC0
01FF00
01FE00
03FC00
07F800
07F000
0FF000
1FE000
1FC000
1FC000
3F8000
3F8000
3F0000
7F0000
7F0000
7F0000
7E0000
7E0000
FE0000
FE0000
FE0000
FE0000
FE0000
FE0000
FE0000
7E0000
7E0000
7F0000
7F0000
7F0000
7F0000
3F8000
3F8000
3FC000
1FC000
1FE000
0FE000
0FF000
07F800
07F800
03FC00
01FE00
01FF00
00FF80
007FE0
003FF0
001FFC
000FFC
0003F8
0001F8
000070
000020
ENDCHAR
STARTCHAR parenright
ENCODING 41
SWIDTH 598 0
DWIDTH 36 0
BBX 22 59 5 -12
BITMAP
200000
780000
7E0000
7F0000
FFC000
FFE000
7FF000
1FF800
0FFC00
03FE00
01FE00
00FF00
007F80
007F80
003FC0
001FE0
000FE0
000FE0
0007F0
0007F0
0007F8
0003F8
0003F8
0003F8
0001F8
0001FC
0001FC
0001FC
0001FC
0001FC
0001FC
0001FC
0001FC
0001FC
0001F8
0003F8
0003F8
0003F8
0007F0
0007F0
000FF0
000FE0
001FE0
001FC0
003FC0
007F80
00FF80
00FF00
01FE00
07FC00
0FF800
1FF000
7FE000
FFC000
FF8000
FF0000
7C0000
780000
600000
ENDCHAR
STARTCHAR asterisk
ENCODING 42
SWIDTH 598 0
DWIDTH 36 0
BBX 32 29 2 7
BITMAP
000FF000
0007F000
0007F000
0007E000
0007E000
0007E000
0007E000
3807E008
3E07E07C
3F87E1FC
7FE7E7FE
7FFFFFFE
FFFFFFFF
1FFFFFF8
01FFFF80
000FF000
001FF800
003FFC00
007FFE00
00FE7E00
00FE7F00
01FC3F80
03F81FC0
07F81FE0
0FF00FF0
1FE007F0
0FC007E0
03C003C0
01800100
ENDCHAR
STARTCHAR plus
ENCODING 43
SWIDTH 598 0
DWIDTH 36 0
BBX 30 30 3 6
BITMAP
000FC000
000FC000
000FC000
000FC000
000FC000
000FC000
000FC000
000FC000
000FC000
000FC000
000FC000
FFFFFFFC
FFFFFFFC
FFFFFFFC
FFFFFFFC
FFFFFFFC
FFFFFFFC
000FC000
000FC000
000FC000
000FC000
000FC000
000FC000
000FC000
000FC000
000FC000
000FC000
000FC000
000FC000
000FC000
ENDCHAR
STARTCHAR comma
ENCODING 44
SWIDTH 598 0
DWIDTH 36 0
BBX 12 19 11 -13
BITMAP
1F80
3FC0
3FE0
7FE0
7FF0
7FF0
3FF0
3FF0
1FE0
07E0
07E0
0FC0
1FC0
1F80
3F00
7E00
FC00
7800
1000
ENDCHAR
STARTCHAR hyphen
ENCODING 45
SWIDTH 598 0
DWIDTH 36 0
BBX 26 6 5 20
BITMAP
FFFFFFC0
FFFFFFC0
FFFFFFC0
FFFFFFC0
FFFFFFC0
FFFFFFC0
ENDCHAR
STARTCHAR period
ENCODING 46
SWIDTH 598 0
DWIDTH 36 0
BBX 10 10 12 -3
BITMAP
1E00
3F80
7F80
FFC0
FFC0
FFC0
FFC0
7F80
3F80
1E00
ENDCHAR
STARTCHAR slash
ENCODING 47
SWIDTH 598 0
DWIDTH 36 0
BBX 28 50 4 -3
BITMAP
00000200
00000380
000007F0
000007F0
00000FE0
00000FE0
00001FC0
00001FC0
00003F80
00003F80
00007F00
00007F00
0000FF00
0000FE00
0001FE00
0001FC00
0003FC00
0003F800
0007F800
0007F000
0007F000
000FE000
000FE000
001FC000
001FC000
003F8000
003F8000
007F0000
007F0000
00FE0000
00FE0000
01FC0000
01FC0000
03F80000
03F80000
07F00000
07F00000
0FE00000
0FE00000
1FE00000
1FC00000
3FC00000
3F800000
7F800000
7F000000
7F000000
FE000000
7E000000
1C000000
04000000
ENDCHAR
STARTCHAR zero
ENCODING 48
SWIDTH 598 0
DWIDTH 36 0
BBX 30 45 3 -1
BITMAP
000FC000
003FF000
00FFFC00
01FFFE00
03FFFF00
07FFFF80
0FF87F80
0FF03FC0
1FE01FE0
1FC00FE0
3F8007F0
3F800FF0
3F001FF0
7F001FF8
7F003FF8
7E007FF8
7E00FFF8
FE00FDF8
FE01F9F8
FE03F1FC
FE07E1FC
FE07E1FC
FE0FC1FC
FE1F81FC
FE3F01FC
FE3F01FC
FE7E01FC
FEFC01F8
7FF801F8
7FF801F8
7FF001F8
7FE003F8
3FC003F8
3F8003F0
3FC007F0
1FC00FE0
1FE00FE0
0FF01FC0
0FFC7FC0
07FFFF80
03FFFF00
01FFFE00
00FFFC00
003FF800
000FC000
ENDCHAR
STARTCHAR one
ENCODING 49
SWIDTH 598 0
DWIDTH 36 0
BBX 16 43 6 0
BITMAP
001F
007F
01FF
07FF
1FFF
7FFF
FFFF
FFFF
7E3F
603F
003F
003F
003F
003F
003F
003F
003F
003F
003F
003F
003F
003F
003F
003F
003F
003F
003F
003F
003F
003F
003F
003F
003F
003F
003F
003F
003F
003F
003F
003F
003F
003F
003F
ENDCHAR
STARTCHAR two
ENCODING 50
SWIDTH 598 0
DWIDTH 36 0
BBX 27 44 5 0
BITMAP
007F8000
01FFF000
07FFF800
1FFFFE00
3FFFFE00
3FFFFF00
7FC1FF80
FF007F80
FE003FC0
7C001FC0
1C001FC0
08000FE0
00000FE0
00000FE0
00000FC0
00000FC0
00001FC0
00001FC0
00003F80
00007F80
0000FF00
0001FE00
0003FE00
0007FC00
000FF800
001FF000
003FE000
007F8000
00FF0000
01FE0000
03FC0000
07F80000
07F00000
0FE00000
1FC00000
3FC00000
3F800000
7F000060
7FFFFFE0
FFFFFFE0
FFFFFFE0
FFFFFFE0
FFFFFFE0
FFFFFFE0
ENDCHAR
STARTCHAR three
ENCODING 51
SWIDTH 598 0
DWIDTH 36 0
BBX 27 45 4 -1
BITMAP
007F8000
01FFF000
07FFF800
0FFFFE00
1FFFFE00
3FFFFF00
3FE1FF80
1F007F80
0E003FC0
04001FC0
00001FC0
00000FC0
00000FC0
00001FC0
00001FC0
00003F80
00007F80
0000FF00
0007FF00
00FFFE00
00FFF800
00FFFC00
00FFFE00
00FFFF00
0001FF80
00007F80
00001FC0
00001FC0
00000FE0
00000FE0
000007E0
000007E0
00000FE0
00000FE0
0C000FE0
1C001FC0
3E003FC0
3F007FC0
7FC1FF80
FFFFFF80
7FFFFF00
1FFFFE00
0FFFF800
03FFF000
007F8000
ENDCHAR
STARTCHAR four
ENCODING 52
SWIDTH 598 0
DWIDTH 36 0
BBX 30 43 3 0
BITMAP
00001F00
00003F00
00007F00
0000FF00
0000FF00
0001FF00
0003FF00
0003FF00
0007FF00
000FFF00
000FFF00
001FBF00
003F3F00
003F3F00
007E3F00
00FC3F00
00FC3F00
01F83F00
03F03F00
07F03F00
07E03F00
0FC03F00
1FC03F00
1F803F00
3F003F00
7F003F00
7FFFFFFC
FFFFFFFC
FFFFFFFC
FFFFFFFC
FFFFFFFC
FFFFFFFC
00007F00
00007F00
00007F00
00007F00
00007F00
00007F00
00007F00
00007F00
00007F00
00007F00
00007F00
ENDCHAR
STARTCHAR five
ENCODING 53
SWIDTH 598 0
DWIDTH 36 0
BBX 28 44 4 -1
BITMAP
1FFFFFE0
1FFFFFE0
1FFFFFE0
1FFFFFE0
1FFFFFE0
1FFFFFE0
1F800000
1F800000
1F800000
3F800000
3F800000
3F800000
3F800000
3F000000
3F1FC000
3FFFF800
3FFFFC00
3FFFFF00
3FFFFF80
3FFFFFC0
3FE07FC0
3F803FE0
3F001FE0
0E000FF0
000007F0
000007F0
000007F0
000003F0
000003F0
000003F0
000003F0
000007F0
040007F0
1E0007F0
3E000FF0
7F001FE0
FF803FE0
7FE0FFC0
7FFFFFC0
3FFFFF80
1FFFFF00
07FFFC00
01FFF800
003FC000
ENDCHAR
STARTCHAR six
ENCODING 54
SWIDTH 598 0
DWIDTH 36 0
BBX 28 45 4 -1
BITMAP
0007F000
003FFE00
00FFFF80
01FFFFC0
03FFFFE0
07FFFFE0
0FFC1FC0
0FF00780
1FE00700
1FC00200
3F800000
3F800000
3F000000
7F000000
7F000000
7F0FE000
7E7FF800
7EFFFE00
7FFFFF00
7FFFFF80
FFFFFF80
FFF87FC0
FFE01FC0
FF800FE0
FF000FE0
FF0007F0
FE0007F0
FE0007F0
7E0007F0
7E0007F0
7E0007F0
7F0007F0
7F0007F0
7F0007F0
3F8007E0
3F800FE0
3FC00FE0
1FE01FC0
1FF87FC0
0FFFFF80
07FFFF00
03FFFF00
01FFFC00
007FF800
001FC000
ENDCHAR
STARTCHAR seven
ENCODING 55
SWIDTH 598 0
DWIDTH 36 0
BBX 27 43 5 0
BITMAP
FFFFFFE0
FFFFFFE0
FFFFFFE0
FFFFFFE0
FFFFFFC0
FFFFFFC0
00003F80
00003F80
00007F00
00007F00
0000FE00
0000FE00
0000FE00
0001FC00
0001FC00
0003F800
0003F800
0007F000
0007F000
0007F000
000FE000
000FE000
001FC000
001FC000
001FC000
003F8000
003F8000
007F8000
007F0000
007F0000
00FE0000
00FE0000
01FE0000
01FC0000
01FC0000
03FC0000
03F80000
03F80000
07F80000
07F00000
07F00000
0FF00000
0FE00000
ENDCHAR
STARTCHAR eight
ENCODING 56
SWIDTH 598 0
DWIDTH 36 0
BBX 28 45 4 -1
BITMAP
001FC000
00FFF800
03FFFC00
07FFFF00
0FFFFF80
0FFFFF80
1FF07FC0
1FC03FC0
3F801FC0
3F800FE0
3F000FE0
3F000FE0
3F800FE0
3F800FC0
3F801FC0
1FC01FC0
1FE03F80
0FF07F00
07FCFF00
03FFFE00
01FFF800
01FFFC00
07FFFE00
0FF3FF00
1FE0FF80
3FC03FC0
3F801FC0
7F000FE0
7E000FE0
FE0007F0
FE0007F0
FE0007F0
FE0007F0
FE0007F0
FE0007F0
FF000FF0
FF800FE0
7FC01FE0
7FF0FFE0
3FFFFFC0
1FFFFF80
0FFFFF00
07FFFE00
01FFF800
003FC000
ENDCHAR
STARTCHAR nine
ENCODING 57
SWIDTH 598 0
DWIDTH 36 0
BBX 28 45 4 -1
BITMAP
003F8000
00FFF000
03FFF800
07FFFC00
0FFFFE00
1FFFFF00
1FF0FF80
3FC07F80
3F801FC0
7F001FC0
7F000FE0
7E000FE0
7E0007E0
FE0007E0
FE0007E0
FE0007F0
7E0007F0
7E0007F0
7F0007F0
7F000FF0
7F801FF0
3FC03FF0
3FE0FFF0
1FFFFFF0
0FFFFFF0
07FFFFF0
03FFFFF0
01FFE7F0
007F87E0
000007E0
00000FE0
00000FE0
00000FE0
00000FC0
00001FC0
04003FC0
0E003F80
1E00FF80
3FC3FF00
7FFFFE00
7FFFFC00
3FFFF800
0FFFF000
07FFC000
00FF0000
ENDCHAR
STARTCHAR colon
ENCODING 58
SWIDTH 598 0
DWIDTH 36 0
BBX 10 33 12 -3
BITMAP
1E00
3F00
7F80
FFC0
FFC0
FFC0
FFC0
7FC0
3F80
1E00
0000
0000
0000
0000
0000
0000
0000
0000
0000
0000
0000
0000
0000
1E00
3F80
7F80
FFC0
FFC0
FFC0
FFC0
7F80
3F80
1E00
ENDCHAR
STARTCHAR semicolon
ENCODING 59
SWIDTH 598 0
DWIDTH 36 0
BBX 12 42 11 -13
BITMAP
0F00
1F80
3FC0
7FE0
7FE0
7FE0
7FE0
3FE0
1FC0
0F00
0000
0000
0000
0000
0000
0000
0000
0000
0000
0000
0000
0000
0000
1F80
3FC0
3FE0
7FE0
7FF0
7FF0
3FF0
3FF0
1FE0
07E0
07E0
0FC0
1FC0
1F80
3F00
7E00
FC00
7800
1000
ENDCHAR
STARTCHAR less
ENCODING 60
SWIDTH 598 0
DWIDTH 36 0
BBX 32 37 2 3
BITMAP
00000002
0000000E
0000003E
000000FE
000003FE
00000FFE
00003FFE
0000FFFC
0003FFF0
000FFFC0
003FFF00
00FFFC00
03FFF000
0FFF8000
3FFE0000
FFF80000
FFE00000
FF800000
FF800000
FFE00000
7FF80000
1FFE0000
07FF8000
03FFE000
00FFF800
003FFE00
000FFF80
0003FFE0
0001FFF0
00007FFC
00001FFF
000007FF
000001FF
000000FF
0000003F
0000000F
00000003
ENDCHAR
STARTCHAR equal
ENCODING 61
SWIDTH 598 0
DWIDTH 36 0
BBX 30 21 3 12
BITMAP
FFFFFFFC
FFFFFFFC
FFFFFFFC
FFFFFFFC
FFFFFFFC
FFFFFFFC
00000000
00000000
00000000
00000000
00000000
00000000
00000000
00000000
00000000
FFFFFFFC
FFFFFFFC
FFFFFFFC
FFFFFFFC
FFFFFFFC
FFFFFFFC
ENDCHAR
STARTCHAR greater
ENCODING 62
SWIDTH 598 0
DWIDTH 36 0
BBX 32 37 2 3
BITMAP
40000000
70000000
7C000000
7F000000
7FC00000
7FF00000
7FFC0000
3FFF0000
0FFFC000
03FFF000
00FFFC00
003FFF00
000FFFC0
0001FFF0
00007FFC
00001FFF
000007FF
000001FF
000001FF
000007FF
00001FFE
00007FF8
0001FFE0
0007FFC0
001FFF00
007FFC00
01FFF000
07FFC000
0FFF8000
3FFE0000
FFF80000
FFE00000
FF800000
FF000000
FC000000
F0000000
C0000000
ENDCHAR
STARTCHAR question
ENCODING 63
SWIDTH 598 0
DWIDTH 36 0
BBX 28 47 4 -1
BITMAP
003FC000
01FFF800
03FFFC00
0FFFFF00
1FFFFF80
3FFFFF80
7FF9FFC0
FFC03FC0
FF001FE0
7E001FE0
3C000FE0
1C000FF0
08000FF0
00000FF0
00000FF0
00000FE0
00001FE0
00001FE0
00003FE0
00007FC0
0000FF80
0001FF00
0003FE00
0003FC00
0007F800
000FF000
000FE000
000FC000
000FC000
001FC000
001FC000
001FC000
00000000
00000000
00000000
00000000
00000000
00070000
001FC000
003FE000
003FE000
003FF000
003FF000
003FF000
003FE000
001FC000
00078000
ENDCHAR
STARTCHAR at
ENCODING 64
SWIDTH 598 0
DWIDTH 36 0
BBX 32 45 2 -1
BITMAP
0007F800
001FFF00
007FFFC0
01FFFFE0
03FFFFF0
07FFFFF8
07F807F8
0FF001FC
1FC000FC
1F80007E
3F80007E
3F00007E
7F001FFF
7E00FFFF
7E01FFFF
FC07FFFF
FC0FFFFF
FC0FFC3F
FC1FE03F
FC1FC03F
FC3F803F
FC3F003F
FC3F003F
FC3F007F
FC3F007F
FC3F007F
FC3F80FF
FC1FC1FF
FC1FFFFF
7E0FFFFF
7E0FFFFF
7E03FFFF
3F01FFBF
3F803C00
3F800000
1FC00000
0FE00000
0FF80030
07FE00F0
03FFFFF8
01FFFFF8
00FFFFFC
003FFFF8
000FFFE0
0001FE00
ENDCHAR
STARTCHAR A
ENCODING 65
SWIDTH 598 0
DWIDTH 36 0
BBX 34 44 1 0
BITMAP
0001800000
0001C00000
0003C00000
0003E00000
0003E00000
0007E00000
0007F00000
000FF00000
000FF80000
000FF80000
001FF80000
001FFC0000
001FFC0000
003FFE0000
003F7E0000
003F7E0000
007E7F0000
007E3F0000
007E3F0000
00FC3F8000
00FC1F8000
01FC1FC000
01F80FC000
01F80FC000
03F00FE000
03F007E000
03FFFFF000
07FFFFF000
07FFFFF000
07FFFFF800
0FFFFFF800
0FFFFFFC00
0FC001FC00
1FC001FC00
1F8000FE00
3F8000FE00
3F8000FF00
3F00007F00
7F00007F00
7F00003F80
7E00003F80
FE00003F80
FE00001FC0
FC00001FC0
ENDCHAR
STARTCHAR B
ENCODING 66
SWIDTH 598 0
DWIDTH 36 0
BBX 30 43 3 0
BITMAP
FFFFE000
FFFFFC00
FFFFFF00
FFFFFF80
FFFFFFC0
FFFFFFE0
FE003FE0
FE000FF0
FE0007F0
FE0007F0
FE0003F8
FE0003F8
FE0003F0
FE0007F0
FE0007F0
FE000FF0
FE003FE0
FFFFFFC0
FFFFFF80
FFFFFF00
FFFFFF00
FFFFFFC0
FFFFFFE0
FE003FF0
FE000FF0
FE0007F8
FE0003F8
FE0001FC
FE0001FC
FE0001FC
FE0001FC
FE0001FC
FE0001FC
FE0003FC
FE0003FC
FE0007F8
FE003FF8
FFFFFFF0
FFFFFFE0
FFFFFFC0
FFFFFF80
FFFFFE00
FFFFF000
ENDCHAR
STARTCHAR C
ENCODING 67
SWIDTH 598 0
DWIDTH 36 0
BBX 31 45 3 -1
BITMAP
0007F800
003FFF00
00FFFF80
01FFFFE0
03FFFFF0
07FFFFF8
0FF80FFC
1FF003FC
1FE001FE
3FC000FE
3F8000FC
7F0000F0
7F000040
7E000000
FE000000
FE000000
FE000000
FC000000
FC000000
FC000000
FC000000
FC000000
FC000000
FC000000
FC000000
FC000000
FC000000
FE000000
FE000000
FE000000
FE000000
7F000000
7F000000
7F800000
3F800070
3FC000F8
1FE001FE
1FF003FC
0FFC0FFC
07FFFFF8
03FFFFF0
01FFFFE0
00FFFF80
003FFF00
0007F800
ENDCHAR
STARTCHAR D
ENCODING 68
SWIDTH 598 0
DWIDTH 36 0
BBX 31 43 3 0
BITMAP
FFFFC000
FFFFF000
FFFFFC00
FFFFFF00
FFFFFF80
FFFFFFC0
FE00FFC0
FE003FE0
FE001FF0
FE000FF0
FE0007F8
FE0003F8
FE0003F8
FE0003FC
FE0001FC
FE0001FC
FE0001FC
FE0001FC
FE0000FC
FE0000FC
FE0000FC
FE0000FE
FE0000FE
FE0000FC
FE0000FC
FE0000FC
FE0001FC
FE0001FC
FE0001FC
FE0001F8
FE0003F8
FE0003F8
FE0007F0
FE000FF0
FE001FE0
FE003FE0
FE00FFC0
FFFFFF80
FFFFFF00
FFFFFE00
FFFFFC00
FFFFF000
FFFF8000
ENDCHAR
STARTCHAR E
ENCODING 69
SWIDTH 598 0
DWIDTH 36 0
BBX 28 43 4 0
BITMAP
FFFFFFF0
FFFFFFF0
FFFFFFF0
FFFFFFF0
FFFFFFF0
FFFFFFF0
FC000000
FC000000
FC000000
FC000000
FC000000
FC000000
FC000000
FC000000
FC000000
FC000000
FC000000
FC000000
FFFFFF00
FFFFFF00
FFFFFF00
FFFFFF00
FFFFFF00
FFFFFF00
FC000000
FC000000
FC000000
FC000000
FC000000
FC000000
FC000000
FC000000
FC000000
FC000000
FC000000
FC000000
FC000000
FFFFFFF0
FFFFFFF0
FFFFFFF0
FFFFFFF0
FFFFFFF0
FFFFFFF0
ENDCHAR
STARTCHAR F
ENCODING 70
SWIDTH 598 0
DWIDTH 36 0
BBX 27 43 5 0
BITMAP
FFFFFFE0
FFFFFFE0
FFFFFFE0
FFFFFFE0
FFFFFFE0
FFFFFFE0
FE000000
FE000000
FE000000
FE000000
FE000000
FE000000
FE000000
FE000000
FE000000
FE000000
FE000000
FFFFFE00
FFFFFE00
FFFFFE00
FFFFFE00
FFFFFE00
FFFFFE00
FE000000
FE000000
FE000000
FE000000
FE000000
FE000000
FE000000
FE000000
FE000000
FE000000
FE000000
FE000000
FE000000
FE000000
FE000000
FE000000
FE000000
FE000000
FE000000
FE000000
ENDCHAR
STARTCHAR G
ENCODING 71
SWIDTH 598 0
DWIDTH 36 0
BBX 31 45 2 -1
BITMAP
0003FC00
001FFF00
007FFFC0
00FFFFF0
03FFFFF8
07FFFFFC
07FE07FC
0FF801FE
1FE000FE
1FC0007C
3FC00078
3F800030
3F000000
7F000000
7F000000
7E000000
7E000000
FE000000
FE000000
FE000000
FE000000
FE000000
FE007FFE
FE007FFE
FE007FFE
FE007FFE
FE007FFE
7E007FFE
7E00007E
7F00007E
7F00007E
7F00007E
3F80007E
3F80007E
3FC0007E
1FE0007E
1FF0007E
0FF800FE
07FE07FE
07FFFFFE
03FFFFFE
01FFFFFC
007FFFF0
001FFFC0
0003FC00
ENDCHAR
STARTCHAR H
ENCODING 72
SWIDTH 598 0
DWIDTH 36 0
BBX 30 43 3 0
BITMAP
FF0003F8
FF0003FC
FE0003F8
FE0003F8
FE0003F8
FE0003F8
FE0003F8
FE0003F8
FE0003F8
FE0003F8
FE0003F8
FE0003F8
FE0003F8
FE0003F8
FE0003F8
FE0003F8
FE0003F8
FFFFFFF8
FFFFFFF8
FFFFFFF8
FFFFFFF8
FFFFFFF8
FFFFFFF8
FE0003F8
FE0003F8
FE0003F8
FE0003F8
FE0003F8
FE0003F8
FE0003F8
FE0003F8
FE0003F8
FE0003F8
FE0003F8
FE0003F8
FE0003F8
FE0003F8
FE0003F8
FE0003F8
FE0003F8
FE0003F8
FE0003F8
FE0003F8
ENDCHAR
STARTCHAR I
ENCODING 73
SWIDTH 598 0
DWIDTH 36 0
BBX 25 43 5 0
BITMAP
7FFFFF00
7FFFFF00
7FFFFF00
7FFFFF00
7FFFFF00
7FFFFF00
007F0000
007F0000
007F0000
007F0000
007F0000
007F0000
007F0000
007F0000
007F0000
007F0000
007F0000
007F0000
007F0000
007F0000
007F0000
007F0000
007F0000
007F0000
007F0000
007F0000
007F0000
007F0000
007F0000
007F0000
007F0000
007F0000
007F0000
007F0000
007F0000
007F0000
007F0000
FFFFFF80
FFFFFF80
FFFFFF80
FFFFFF80
FFFFFF80
FFFFFF80
ENDCHAR
STARTCHAR J
ENCODING 74
SWIDTH 598 0
DWIDTH 36 0
BBX 30 44 3 -1
BITMAP
007FFFFC
007FFFFC
007FFFFC
007FFFFC
007FFFFC
007FFFFC
00007F00
00007F00
00007F00
00007F00
00007F00
00007F00
00007F00
00007F00
00007F00
00007F00
00007F00
00007F00
00007F00
00007F00
00007F00
00007F00
00007F00
00007F00
00007F00
00007F00
00007F00
00007F00
00007F00
00007F00
00007F00
00007F00
00007E00
08007E00
1800FE00
3C00FE00
7E01FE00
7F87FC00
FFFFFC00
7FFFF800
3FFFF000
1FFFE000
07FF8000
01FE0000
ENDCHAR
STARTCHAR K
ENCODING 75
SWIDTH 598 0
DWIDTH 36 0
BBX 32 43 3 0
BITMAP
FE0001FE
FE0003FC
FE0007F8
FE000FF0
FE001FE0
FE003FC0
FE007F80
FE00FF00
FE01FE00
FE01FE00
FE03FC00
FE07F800
FE0FF000
FE1FE000
FE3FC000
FE7F8000
FEFF0000
FFFE0000
FFFC0000
FFFE0000
FFFE0000
FFFF0000
FFFF8000
FF3FC000
FE1FC000
FE1FE000
FE0FF000
FE07F800
FE07F800
FE03FC00
FE01FE00
FE01FE00
FE00FF00
FE007F80
FE003FC0
FE003FC0
FE001FE0
FE000FF0
FE000FF8
FE0007F8
FE0003FC
FE0003FE
FE0001FF
ENDCHAR
STARTCHAR L
ENCODING 76
SWIDTH 598 0
DWIDTH 36 0
BBX 28 43 4 0
BITMAP
FF000000
FF000000
FE000000
FE000000
FE000000
FE000000
FE000000
FE000000
FE000000
FE000000
FE000000
FE000000
FE000000
FE000000
FE000000
FE000000
FE000000
FE000000
FE000000
FE000000
FE000000
FE000000
FE000000
FE000000
FE000000
FE000000
FE000000
FE000000
FE000000
FE000000
FE000000
FE000000
FE000000
FE000000
FE000000
FE000000
FE000000
FFFFFFF0
FFFFFFF0
FFFFFFF0
FFFFFFF0
FFFFFFF0
FFFFFFF0
ENDCHAR
STARTCHAR M
ENCODING 77
SWIDTH 598 0
DWIDTH 36 0
BBX 30 43 3 0
BITMAP
F800007C
FC00007C
FC0000FC
FE0000FC
FE0001FC
FF0003FC
FF0003FC
FF8007FC
FF8007FC
FFC00FFC
FFC00FFC
FFE01FFC
FFE01FFC
FFF03FFC
FFF03EFC
FDF87EFC
FDF87CFC
FCFCFCFC
FCFCF8FC
FC7FF8FC
FC7FF0FC
FC3FF0FC
FC3FE0FC
FC1FE0FC
FC1FC0FC
FC0F80FC
FC0F80FC
FC0700FC
FC0000FC
FC0000FC
FC0000FC
FC0000FC
FC0000FC
FC0000FC
FC0000FC
FC0000FC
FC0000FC
FC0000FC
FC0000FC
FC0000FC
FC0000FC
FC0000FC
FC0000FC
ENDCHAR
STARTCHAR N
ENCODING 78
SWIDTH 598 0
DWIDTH 36 0
BBX 30 43 3 0
BITMAP
FE0001FC
FE0001FC
FF0001FC
FF0001FC
FF8001FC
FFC001FC
FFC001FC
FFE001FC
FFE001FC
FFF001FC
FFF001FC
FFF801FC
FFFC01FC
FEFC01FC
FEFE01FC
FE7E01FC
FE7F01FC
FE3F01FC
FE1F81FC
FE1F81FC
FE0FC1FC
FE0FE1FC
FE07E1FC
FE07F1FC
FE03F1FC
FE03F9FC
FE01F9FC
FE00FDFC
FE00FFFC
FE007FFC
FE007FFC
FE003FFC
FE003FFC
FE001FFC
FE001FFC
FE000FFC
FE0007FC
FE0007FC
FE0003FC
FE0003FC
FE0001FC
FE0001FC
FE0000FC
ENDCHAR
STARTCHAR O
ENCODING 79
SWIDTH 598 0
DWIDTH 36 0
BBX 32 45 2 -1
BITMAP
000FF000
003FFE00
00FFFF00
01FFFFC0
03FFFFE0
07FFFFF0
0FFE7FF0
1FF00FF8
1FE007FC
3FC003FC
3F8001FC
7F0000FE
7F0000FE
7F0000FE
FE00007F
FE00007F
FE00007F
FE00007F
FC00007F
FC00007F
FC00003F
FC00003F
FC00003F
FC00003F
FC00003F
FC00003F
FE00007F
FE00007F
FE00007F
FE00007F
7E00007F
7F0000FE
7F0000FE
7F8000FE
3F8001FC
3FC003FC
1FE007FC
1FF00FF8
0FFFFFF0
07FFFFF0
03FFFFE0
01FFFFC0
00FFFF00
003FFE00
0007F000
ENDCHAR
STARTCHAR P
ENCODING 80
SWIDTH 598 0
DWIDTH 36 0
BBX 29 43 4 0
BITMAP
FFFFF000
FFFFFC00
FFFFFF00
FFFFFF80
FFFFFFC0
FFFFFFE0
FE00FFF0
FE001FF0
FE0007F0
FE0007F8
FE0003F8
FE0003F8
FE0003F8
FE0003F8
FE0003F8
FE0003F8
FE0007F8
FE000FF0
FE003FF0
FFFFFFE0
FFFFFFC0
FFFFFF80
FFFFFF00
FFFFFE00
FFFFF000
FE000000
FE000000
FE000000
FE000000
FE000000
FE000000
FE000000
FE000000
FE000000
FE000000
FE000000
FE000000
FE000000
FE000000
FE000000
FE000000
FE000000
FE000000
ENDCHAR
STARTCHAR Q
ENCODING 81
SWIDTH 598 0
DWIDTH 36 0
BBX 32 54 2 -10
BITMAP
000FF000
003FFE00
00FFFF00
01FFFFC0
03FFFFE0
07FFFFF0
0FFC3FF0
1FF00FF8
1FE003FC
3FC003FC
3F8001FC
7F0000FE
7F0000FE
7E00007E
FE00007F
FE00007F
FE00007F
FC00007F
FC00003F
FC00003F
FC00003F
FC00003F
FC00003F
FC00003F
FC00003F
FC00003F
FE00003F
FE00007F
FE00007F
FE00007F
7E00007F
7F0000FE
7F0000FE
3F8000FE
3F8001FC
3FC003FC
1FE007F8
0FF80FF8
0FFFFFF0
07FFFFE0
03FFFFC0
01FFFF80
007FFF00
001FFC00
0007F000
0007F000
0003F000
0003F80C
0003FFFC
0001FFFC
0001FFFC
0000FFFC
00007FFC
00000FFC
ENDCHAR
STARTCHAR R
ENCODING 82
SWIDTH 598 0
DWIDTH 36 0
BBX 30 43 4 0
BITMAP
FFFFE000
FFFFFC00
FFFFFF00
FFFFFF80
FFFFFFC0
FFFFFFE0
FC00FFE0
FC001FF0
FC000FF0
FC0007F0
FC0007F0
FC0003F8
FC0003F8
FC0003F8
FC0003F0
FC0007F0
FC0007F0
FC000FE0
FC003FE0
FFFFFFC0
FFFFFFC0
FFFFFF80
FFFFFE00
FFFFFC00
FFFFF000
FC03F800
FC03F800
FC01FC00
FC01FC00
FC00FE00
FC00FF00
FC007F00
FC007F80
FC003F80
FC003FC0
FC001FC0
FC001FE0
FC000FE0
FC000FF0
FC0007F0
FC0007F8
FC0003FC
FC0001FC
ENDCHAR
STARTCHAR S
ENCODING 83
SWIDTH 598 0
DWIDTH 36 0
BBX 30 45 3 -1
BITMAP
001FF000
007FFE00
01FFFF80
03FFFFC0
07FFFFE0
0FFFFFF0
1FF01FF8
1FC007F0
3F8003E0
3F8001E0
3F8000C0
3F800080
3F800000
3F800000
3F800000
3FC00000
1FF00000
1FF80000
0FFF0000
07FFC000
03FFF800
00FFFE00
003FFF80
000FFFC0
0003FFE0
00007FF0
00001FF8
000007F8
000003F8
000001FC
000001FC
000001FC
000001FC
180001FC
380001FC
3C0003FC
7F0003F8
7F800FF8
FFF03FF0
7FFFFFF0
3FFFFFE0
1FFFFFC0
07FFFF00
01FFFE00
003FF000
ENDCHAR
STARTCHAR T
ENCODING 84
SWIDTH 598 0
DWIDTH 36 0
BBX 32 43 2 0
BITMAP
FFFFFFFF
FFFFFFFF
FFFFFFFF
FFFFFFFF
FFFFFFFF
FFFFFFFF
000FE000
000FE000
000FE000
000FE000
000FE000
000FE000
000FE000
000FE000
000FE000
000FE000
000FE000
000FE000
000FE000
000FE000
000FE000
000FE000
000FE000
000FE000
000FE000
000FE000
000FE000
000FE000
000FE000
000FE000
000FE000
000FE000
000FE000
000FE000
000FE000
000FE000
000FE000
000FE000
000FE000
000FE000
000FE000
000FE000
000FE000
ENDCHAR
STARTCHAR U
ENCODING 85
SWIDTH 598 0
DWIDTH 36 0
BBX 30 44 3 -1
BITMAP
FE0000FC
FE0000FC
FE0000FC
FE0000FC
FE0000FC
FE0000FC
FE0000FC
FE0000FC
FE0000FC
FE0000FC
FE0000FC
FE0000FC
FE0000FC
FE0000FC
FE0000FC
FE0000FC
FE0000FC
FE0000FC
FE0000FC
FE0000FC
FE0000FC
FE0000FC
FE0000FC
FE0000FC
FE0000FC
FE0000FC
FE0000FC
FE0000FC
FE0000FC
FE0000FC
FE0001FC
FE0001FC
FE0001FC
7F0001FC
7F0003F8
7F8007F8
3FC00FF8
3FF03FF0
1FFFFFE0
0FFFFFC0
07FFFF80
03FFFF00
00FFFC00
001FE000
ENDCHAR
STARTCHAR V
ENCODING 86
SWIDTH 598 0
DWIDTH 36 0
BBX 34 44 1 -1
BITMAP
FE00001FC0
7F00001FC0
7F00001F80
7F00003F80
3F80003F80
3F80003F00
3F80007F00
1FC0007F00
1FC0007E00
1FC000FE00
0FE000FE00
0FE000FC00
0FE001FC00
07F001F800
07F001F800
07F001F800
03F803F000
03F803F000
01F803F000
01FC07E000
01FC07E000
00FC07E000
00FE0FC000
00FE0FC000
007E0FC000
007F1F8000
007F1F8000
003F1F8000
003FBF0000
003FBF0000
001FBF0000
001FFE0000
001FFE0000
000FFE0000
000FFC0000
000FFC0000
0007FC0000
0007F80000
0003F80000
0003F80000
0003F00000
0001F00000
0001E00000
0001E00000
ENDCHAR
STARTCHAR W
ENCODING 87
SWIDTH 598 0
DWIDTH 36 0
BBX 34 44 1 -1
BITMAP
FC000007C0
FC00000FC0
FC00000FC0
FE00E00FC0
FE00F00FC0
7E00F00FC0
7E01F00FC0
7E01F00F80
7E01F80F80
7F01F81F80
7F03F81F80
3F03F81F80
3F03FC1F80
3F03FC1F00
3F07FC1F00
3F87FC1F00
3F87FE3F00
1F8FFE3F00
1F8FFE3F00
1F8FBE3E00
1F8FBF3E00
1F9F3F3E00
1FDF3F3E00
0FDF1FBE00
0FDF1FFE00
0FFE1FFC00
0FFE1FFC00
0FFE0FFC00
0FFC0FFC00
07FC0FFC00
07FC07FC00
07FC07F800
07F807F800
07F807F800
07F803F800
03F803F800
03F003F800
03F003F000
03F001F000
03F001F000
03E001F000
01E001F000
01E000F000
01E000E000
ENDCHAR
STARTCHAR X
ENCODING 88
SWIDTH 598 0
DWIDTH 36 0
BBX 32 43 2 0
BITMAP
FF0000FE
7F0000FC
3F8001FC
3F8003F8
1FC003F8
1FE007F0
0FE007F0
0FF00FE0
07F00FE0
03F81FC0
03F81FC0
01FC3F80
01FC3F00
00FE7F00
00FFFE00
007FFE00
003FFC00
003FFC00
001FF800
001FF800
000FF000
000FF000
001FF800
001FF800
003FFC00
003FFC00
007FFE00
007FFF00
00FE7F00
00FE7F80
01FC3F80
03FC1FC0
03F81FE0
07F00FE0
07F00FF0
0FE007F0
0FE007F8
1FC003F8
3FC001FC
3F8001FE
7F8000FE
7F0000FF
FF00007F
ENDCHAR
STARTCHAR Y
ENCODING 89
SWIDTH 598 0
DWIDTH 36 0
BBX 34 43 1 0
BITMAP
FF00003FC0
7F00003F80
7F80003F80
3F80007F00
3FC0007F00
1FC000FE00
0FE000FE00
0FE001FC00
07F001FC00
07F803F800
03F803F800
03FC07F000
01FC07F000
01FE07E000
00FE0FE000
00FF0FC000
007F1FC000
007F9F8000
003FBF8000
003FFF0000
001FFF0000
000FFE0000
000FFE0000
0007FC0000
0007FC0000
0003F80000
0003F80000
0003F80000
0003F80000
0003F80000
0003F80000
0003F80000
0003F80000
0003F80000
0003F80000
0003F80000
0003F80000
0003F80000
0003F80000
0003F80000
0003F80000
0003F80000
0003F80000
ENDCHAR
STARTCHAR Z
ENCODING 90
SWIDTH 598 0
DWIDTH 36 0
BBX 31 43 3 0
BITMAP
7FFFFFFC
7FFFFFFC
7FFFFFFC
7FFFFFFC
7FFFFFF8
7FFFFFF8
000007F0
00000FF0
00000FE0
00001FC0
00003FC0
00003F80
00007F00
00007F00
0000FE00
0001FC00
0001FC00
0003F800
0007F800
0007F000
000FE000
001FE000
001FC000
003F8000
007F8000
007F0000
00FE0000
01FE0000
01FC0000
03F80000
07F80000
07F00000
0FF00000
0FE00000
1FC00000
3FC00000
3F800006
7FFFFFFE
FFFFFFFE
FFFFFFFE
FFFFFFFE
FFFFFFFE
FFFFFFFE
ENDCHAR
STARTCHAR bracketleft
ENCODING 91
SWIDTH 598 0
DWIDTH 36 0
BBX 22 53 9 -6
BITMAP
FFFFF8
FFFFF8
FFFFF8
FFFFF8
FFFFF8
FFFFF8
FC0000
FC0000
FC0000
FC0000
FC0000
FC0000
FC0000
FC0000
FC0000
FC0000
FC0000
FC0000
FC0000
FC0000
FC0000
FC0000
FC0000
FC0000
FC0000
FC0000
FC0000
FC0000
FC0000
FC0000
FC0000
FC0000
FC0000
FC0000
FC0000
FC0000
FC0000
FC0000
FC0000
FC0000
FC0000
FC0000
FC0000
FC0000
FC0000
FC0000
FC0000
FFFFFC
FFFFFC
FFFFFC
FFFFFC
FFFFFC
FFFFFC
ENDCHAR
STARTCHAR backslash
ENCODING 92
SWIDTH 598 0
DWIDTH 36 0
BBX 28 50 4 -3
BITMAP
04000000
1C000000
FE000000
FE000000
7F000000
7F000000
3F800000
3F800000
1FC00000
1FC00000
0FE00000
0FE00000
0FF00000
07F00000
07F80000
03F80000
03FC0000
01FC0000
01FE0000
00FE0000
00FE0000
007F0000
007F0000
003F8000
003F8000
001FC000
001FC000
000FE000
000FE000
0007F000
0007F000
0003F800
0003F800
0001FC00
0001FC00
0000FE00
0000FE00
0000FF00
00007F00
00007F80
00003F80
00003FC0
00001FC0
00001FE0
00000FE0
00000FE0
000007F0
000007E0
00000380
00000200
ENDCHAR
STARTCHAR bracketright
ENCODING 93
SWIDTH 598 0
DWIDTH 36 0
BBX 22 53 5 -6
BITMAP
FFFFFC
FFFFFC
FFFFFC
FFFFFC
FFFFFC
FFFFFC
0000FC
0000FC
0000FC
0000FC
0000FC
0000FC
0000FC
0000FC
0000FC
0000FC
0000FC
0000FC
0000FC
0000FC
0000FC
0000FC
0000FC
0000FC
0000FC
0000FC
0000FC
0000FC
0000FC
0000FC
0000FC
0000FC
0000FC
0000FC
0000FC
0000FC
0000FC
0000FC
0000FC
0000FC
0000FC
0000FC
0000FC
0000FC
0000FC
0000FC
0000FC
FFFFFC
FFFFFC
FFFFFC
FFFFFC
FFFFFC
FFFFFC
ENDCHAR
STARTCHAR asciicircum
ENCODING 94
SWIDTH 598 0
DWIDTH 36 0
BBX 23 20 6 23
BITMAP
001C00
003E00
003E00
007F00
00FF00
00FF80
01FFC0
03FFC0
03FFE0
07E7E0
0FE7F0
0FC3F8
1F83F8
3F81FC
3F00FC
7F00FE
FE007E
FC007E
3C0038
080020
ENDCHAR
STARTCHAR underscore
ENCODING 95
SWIDTH 598 0
DWIDTH 36 0
BBX 32 6 2 -7
BITMAP
FFFFFFFF
FFFFFFFF
FFFFFFFF
FFFFFFFF
FFFFFFFF
FFFFFFFF
ENDCHAR
STARTCHAR grave
ENCODING 96
SWIDTH 598 0
DWIDTH 36 0
BBX 12 28 9 19
BITMAP
8000
8000
C000
E000
E000
F000
F000
F800
FC00
FC00
FE00
FF00
FF00
7F80
7FC0
3FC0
3FC0
1FE0
0FE0
0FE0
07E0
07E0
03F0
03F0
01F0
00F0
00F0
0060
ENDCHAR
STARTCHAR a
ENCODING 97
SWIDTH 598 0
DWIDTH 36 0
BBX 29 34 3 -1
BITMAP
001FF000
00FFFE00
03FFFF00
07FFFF80
1FFFFFC0
1FFFFFE0
0FE01FF0
0F8007F0
070007F0
020003F8
000003F8
000003F8
000003F8
000FFFF8
00FFFFF8
03FFFFF8
0FFFFFF8
1FFFFFF8
3FFFFFF8
7FC003F8
7F8003F8
FF0003F8
FE0003F8
FE0007F8
FE0007F8
FE000FF8
FF003FF8
7F807FF8
7FFFFFF8
3FFFFFF8
1FFFFFF8
0FFFFBF8
07FFE3F8
00FF0000
ENDCHAR
STARTCHAR b
ENCODING 98
SWIDTH 598 0
DWIDTH 36 0
BBX 29 47 4 -1
BITMAP
FE000000
FE000000
FE000000
FE000000
FE000000
FE000000
FE000000
FE000000
FE000000
FE000000
FE000000
FE000000
FE000000
FE0FE000
FE3FFC00
FEFFFE00
FFFFFF00
FFFFFF80
FFFFFFC0
FFE0FFE0
FFC03FE0
FF000FF0
FF000FF0
FE0007F0
FE0007F8
FE0003F8
FE0003F8
FE0003F8
FE0003F8
FE0003F8
FE0003F8
FE0003F8
FE0003F8
FE0003F8
FE0003F8
FE0007F8
FE0007F0
FF000FF0
FF000FF0
FFC03FE0
FFF0FFE0
FFFFFFC0
FFFFFF80
FDFFFF00
F8FFFE00
F87FF800
000FE000
ENDCHAR
STARTCHAR c
ENCODING 99
SWIDTH 598 0
DWIDTH 36 0
BBX 29 34 4 -1
BITMAP
000FF800
007FFE00
01FFFF80
03FFFFE0
07FFFFF0
0FFFFFF0
1FF81FF8
3FE007F8
3FC003F0
7F8001E0
7F0001E0
FF0000C0
FE000000
FE000000
FE000000
FE000000
FE000000
FE000000
FE000000
FE000000
FE000000
FF000000
FF000000
7F800000
7F8000C0
3FC001E0
3FF007F0
1FFE3FF8
0FFFFFF8
07FFFFF0
03FFFFE0
01FFFF80
007FFE00
000FF000
ENDCHAR
STARTCHAR d
ENCODING 100
SWIDTH 598 0
DWIDTH 36 0
BBX 30 47 3 -1
BITMAP
000003FC
000003FC
000003F8
000003F8
000003F8
000003F8
000003F8
000003F8
000003F8
000003F8
000003F8
000003F8
000003F8
003F83F8
00FFF3F8
03FFFBF8
07FFFFF8
0FFFFFF8
1FFFFFF8
3FE03FF8
3FC01FF8
7F800FF8
7F0007F8
7E0007F8
FE0003F8
FE0003F8
FE0003F8
FE0003F8
FC0003F8
FC0003F8
FE0003F8
FE0003F8
FE0003F8
FE0003F8
FE0003F8
FE0003F8
7F0007F8
7F0007F8
7F800FF8
3FC01FF8
3FF0FFF8
1FFFFFF8
0FFFFFF8
07FFFFF8
03FFFBF8
01FFE1F8
003F8000
ENDCHAR
STARTCHAR e
ENCODING 101
SWIDTH 598 0
DWIDTH 36 0
BBX 29 34 3 -1
BITMAP
001FE000
007FFC00
01FFFF00
03FFFF80
0FFFFFC0
0FFFFFE0
1FF01FE0
3FC00FF0
3F8007F0
7F0003F0
7F0003F8
7E0003F8
FE0001F8
FFFFFFF8
FFFFFFF8
FFFFFFF8
FFFFFFF8
FFFFFFF8
FFFFFFF8
FE000000
FE000000
FE000000
7F000000
7F000000
7F800080
3FC001C0
3FE003E0
1FF80FF0
0FFFFFF8
0FFFFFF0
03FFFFE0
01FFFF80
007FFE00
000FF800
ENDCHAR
STARTCHAR f
ENCODING 102
SWIDTH 598 0
DWIDTH 36 0
BBX 31 47 4 0
BITMAP
0000FF00
0003FFE0
000FFFF8
001FFFFC
003FFFFE
007FFFFE
007F80FE
00FF007C
00FE003C
01FC0038
01FC0018
01FC0000
01FC0000
01FC0000
01FC0000
01FC0000
01FC0000
FFFFFF00
FFFFFF00
FFFFFF00
FFFFFF00
FFFFFF00
01FC0000
01FC0000
01FC0000
01FC0000
01FC0000
01FC0000
01FC0000
01FC0000
01FC0000
01FC0000
01FC0000
01FC0000
01FC0000
01FC0000
01FC0000
01FC0000
01FC0000
01FC0000
01FC0000
01FC0000
01FC0000
01FC0000
01FC0000
01FC0000
01FC0000
ENDCHAR
STARTCHAR g
ENCODING 103
SWIDTH 598 0
DWIDTH 36 0
BBX 33 46 2 -13
BITMAP
001FC01F00
007FF0FF00
01FFFDFF00
03FFFFFF00
07FFFFFF00
0FF07FFF80
1FC03FE000
1F801FC000
3F800FC000
3F000FC000
3F000FE000
3F000FE000
3F000FE000
3F800FE000
3F801FC000
1FC01FC000
1FF07FC000
0FFFFF8000
0FFFFF0000
07FFFE0000
07FFFC0000
07FFF80000
0FDFC00000
1FC0000000
1F80000000
1FC0000000
1FFFFF0000
1FFFFFE000
0FFFFFF000
07FFFFF800
0FFFFFFC00
1F8007FC00
3F0000FE00
7E0000FE00
7E00007E00
FE00007E00
FE0000FE00
FE0000FE00
FF0001FC00
7FC007FC00
7FFFFFF800
3FFFFFF000
1FFFFFE000
0FFFFFC000
03FFFF0000
003FF80000
ENDCHAR
STARTCHAR h
ENCODING 104
SWIDTH 598 0
DWIDTH 36 0
BBX 27 46 5 0
BITMAP
FE000000
FE000000
FC000000
FC000000
FC000000
FC000000
FC000000
FC000000
FC000000
FC000000
FC000000
FC000000
FC000000
FC07E000
FC3FFC00
FC7FFE00
FCFFFF00
FDFFFF80
FFFFFF80
FFF8FFC0
FFE03FC0
FF801FC0
FF001FC0
FE000FE0
FE000FE0
FE000FE0
FE000FE0
FC000FE0
FC000FE0
FC000FE0
FC000FE0
FC000FE0
FC000FE0
FC000FE0
FC000FE0
FC000FE0
FC000FE0
FC000FE0
FC000FE0
FC000FE0
FC000FE0
FC000FE0
FC000FE0
FC000FE0
FC000FE0
FC000FE0
ENDCHAR
STARTCHAR i
ENCODING 105
SWIDTH 598 0
DWIDTH 36 0
BBX 22 46 7 0
BITMAP
007800
00FE00
01FE00
01FF00
01FF00
01FF00
01FE00
00FE00
007800
000000
000000
000000
000000
000000
FFFE00
FFFE00
FFFE00
FFFE00
FFFE00
FFFE00
00FE00
00FE00
00FE00
00FE00
00FE00
00FE00
00FE00
00FE00
00FE00
00FE00
00FE00
00FE00
00FE00
00FE00
00FE00
00FE00
00FE00
00FE00
00FE00
00FE00
FFFFFC
FFFFFC
FFFFFC
FFFFFC
FFFFFC
FFFFFC
ENDCHAR
STARTCHAR j
ENCODING 106
SWIDTH 598 0
DWIDTH 36 0
BBX 25 59 3 -13
BITMAP
00001E00
00007F00
00007F80
0000FF80
0000FF80
0000FF80
00007F80
00007F00
00001E00
00000000
00000000
00000000
00000000
00000000
07FFFF00
07FFFF00
07FFFF00
07FFFF00
07FFFF00
07FFFF00
00007F00
00007F00
00007F00
00007F00
00007F00
00007F00
00007F00
00007F00
00007F00
00007F00
00007F00
00007F00
00007F00
00007F00
00007F00
00007F00
00007F00
00007F00
00007F00
00007F00
00007F00
00007F00
00007F00
00007F00
00007F00
00007F00
00007F00
00007F00
08007F00
1800FF00
3C00FE00
7E01FE00
7F87FC00
FFFFFC00
FFFFF800
7FFFF000
1FFFE000
0FFF8000
01FE0000
ENDCHAR
STARTCHAR k
ENCODING 107
SWIDTH 598 0
DWIDTH 36 0
BBX 31 46 4 0
BITMAP
FF000000
FF000000
FE000000
FE000000
FE000000
FE000000
FE000000
FE000000
FE000000
FE000000
FE000000
FE000000
FE000000
FE0007FC
FE000FF8
FE001FF0
FE003FE0
FE007FC0
FE00FF00
FE01FE00
FE03FC00
FE07F800
FE0FF000
FE1FE000
FE3FC000
FE7F8000
FEFF0000
FFFF0000
FFFF8000
FFFFC000
FFDFE000
FF9FF000
FF0FF000
FE07F800
FE03FC00
FE01FE00
FE01FF00
FE00FF80
FE007F80
FE003FC0
FE003FE0
FE001FF0
FE000FF8
FE0007FC
FE0003FE
FE0003FE
ENDCHAR
STARTCHAR l
ENCODING 108
SWIDTH 598 0
DWIDTH 36 0
BBX 26 46 5 0
BITMAP
7FFF0000
7FFF0000
7FFF0000
7FFF0000
7FFF0000
7FFF0000
003F0000
003F0000
003F0000
003F0000
003F0000
003F0000
003F0000
003F0000
003F0000
003F0000
003F0000
003F0000
003F0000
003F0000
003F0000
003F0000
003F0000
003F0000
003F0000
003F0000
003F0000
003F0000
003F0000
003F0000
003F0000
003F0000
003F0000
003F0000
003F0000
003F0000
003F0000
003F0000
003F0000
003F0000
FFFFFFC0
FFFFFFC0
FFFFFFC0
FFFFFFC0
FFFFFFC0
FFFFFFC0
ENDCHAR
STARTCHAR m
ENCODING 109
SWIDTH 598 0
DWIDTH 36 0
BBX 32 33 2 0
BITMAP
003E03F0
FEFF8FFC
FFFFDFFE
FFFFFFFE
FFFFFFFF
FFFFFCFF
FF8FF87F
FF07F03F
FE07F03F
FE07F03F
FE07F03F
FE07F03F
FE07F03F
FE07F03F
FE07F03F
FE07F03F
FE07F03F
FE07F03F
FE07F03F
FE07F03F
FE07F03F
FE07F03F
FE07F03F
FE07F03F
FE07F03F
FE07F03F
FE07F03F
FE07F03F
FE07F03F
FE07F03F
FE07F03F
FE07F03F
FE07F03F
ENDCHAR
STARTCHAR n
ENCODING 110
SWIDTH 598 0
DWIDTH 36 0
BBX 28 33 4 0
BITMAP
0003F000
FE1FFC00
FE3FFF00
FEFFFF80
FFFFFFC0
FFFFFFC0
FFFC7FE0
FFF01FE0
FFC00FE0
FF800FE0
FF0007E0
FF0007E0
FF0007E0
FE0007F0
FE0007F0
FE0007F0
FE0007F0
FE0007F0
FE0007F0
FE0007F0
FE0007F0
FE0007F0
FE0007F0
FE0007F0
FE0007F0
FE0007F0
FE0007F0
FE0007F0
FE0007F0
FE0007F0
FE0007F0
FE0007F0
FE0007F0
ENDCHAR
STARTCHAR o
ENCODING 111
SWIDTH 598 0
DWIDTH 36 0
BBX 31 34 3 -1
BITMAP
001FE000
007FFC00
01FFFF00
03FFFF80
0FFFFFC0
0FFFFFE0
1FF83FF0
3FE01FF0
3FC007F8
7F8003F8
7F0003F8
FF0001FC
FE0001FC
FE0001FC
FE0001FC
FE0000FC
FE0000FC
FE0000FE
FE0000FC
FE0001FC
FE0001FC
FE0001FC
FF0001FC
7F0003FC
7F8003F8
7FC007F8
3FE00FF0
1FF83FF0
1FFFFFE0
0FFFFFC0
07FFFF80
01FFFF00
00FFFC00
001FE000
ENDCHAR
STARTCHAR p
ENCODING 112
SWIDTH 598 0
DWIDTH 36 0
BBX 30 45 4 -12
BITMAP
000FE000
FE3FFC00
FEFFFE00
FFFFFF80
FFFFFFC0
FFFFFFC0
FFE07FE0
FFC01FF0
FF800FF0
FF0007F8
FE0007F8
FE0003F8
FE0003F8
FE0003F8
FE0003FC
FE0001FC
FE0001FC
FE0001FC
FE0001FC
FE0001F8
FE0003F8
FE0003F8
FE0003F8
FE0007F8
FF0007F0
FF000FF0
FF801FE0
FFF0FFE0
FFFFFFC0
FFFFFF80
FFFFFF00
FEFFFE00
FE7FFC00
FE0FE000
FE000000
FE000000
FE000000
FE000000
FE000000
FE000000
FE000000
FE000000
FE000000
FE000000
FE000000
ENDCHAR
STARTCHAR q
ENCODING 113
SWIDTH 598 0
DWIDTH 36 0
BBX 29 45 3 -12
BITMAP
003F8000
00FFF1F8
03FFF9F8
07FFFDF8
0FFFFFF8
1FFFFFF8
3FE03FF8
3FC01FF8
7F800FF8
7F0007F8
FF0003F8
FE0003F8
FE0003F8
FE0003F8
FE0003F8
FE0003F8
FC0003F8
FE0003F8
FE0003F8
FE0003F8
FE0003F8
FE0003F8
FF0003F8
7F0007F8
7F8007F8
7F800FF8
3FE01FF8
3FF87FF8
1FFFFFF8
0FFFFFF8
07FFFFF8
03FFFBF8
00FFE3F8
003F83F8
000003F8
000003F8
000003F8
000003F8
000003F8
000003F8
000003F8
000003F8
000003F8
000003F8
000003F8
ENDCHAR
STARTCHAR r
ENCODING 114
SWIDTH 598 0
DWIDTH 36 0
BBX 26 33 7 0
BITMAP
0007F800
FE3FFE00
FE7FFF80
FEFFFFC0
FFFFFFC0
FFFFFFC0
FFFC1F80
FFF00780
FFC00780
FFC00300
FF800100
FF000000
FF000000
FE000000
FE000000
FE000000
FC000000
FC000000
FC000000
FC000000
FC000000
FC000000
FC000000
FC000000
FC000000
FC000000
FC000000
FC000000
FC000000
FC000000
FC000000
FC000000
FC000000
ENDCHAR
STARTCHAR s
ENCODING 115
SWIDTH 598 0
DWIDTH 36 0
BBX 28 34 4 -1
BITMAP
003FE000
01FFFC00
03FFFF00
0FFFFF80
1FFFFFE0
1FFFFFF0
3FC01FE0
3F800FE0
3F8007C0
3F800380
3F800180
3FE00000
3FF80000
1FFF0000
0FFFF000
07FFFC00
03FFFF00
00FFFF80
001FFFC0
0001FFE0
00003FE0
00000FF0
100007F0
380007F0
380007F0
7C0007F0
FF000FF0
FFC07FE0
FFFFFFE0
7FFFFFC0
3FFFFF80
0FFFFF00
03FFFC00
007FE000
ENDCHAR
STARTCHAR t
ENCODING 116
SWIDTH 598 0
DWIDTH 36 0
BBX 27 42 5 -1
BITMAP
007E0000
00FE0000
00FE0000
00FC0000
00FC0000
01FC0000
01FC0000
01FC0000
01FC0000
FFFFFF00
FFFFFF00
FFFFFF00
FFFFFF00
FFFFFF00
FFFFFF00
01FC0000
01FC0000
01F80000
01F80000
01F80000
01F80000
01F80000
03F80000
03F80000
03F80000
03F80000
03F80000
03F80000
03F80000
03F80000
03F80000
03F80000
03FC0040
03FC01C0
01FE03C0
01FF9FE0
01FFFFE0
00FFFFE0
00FFFFE0
007FFF80
001FFE00
0007F000
ENDCHAR
STARTCHAR u
ENCODING 117
SWIDTH 598 0
DWIDTH 36 0
BBX 28 33 4 -1
BITMAP
FE0007F0
FE0007F0
FE0007F0
FE0007F0
FE0007F0
FE0007F0
FE0007F0
FE0007F0
FE0007F0
FE0007F0
FE0007F0
FE0007F0
FE0007F0
FE0007F0
FE0007F0
FE0007F0
FE0007F0
FE0007F0
FE0007F0
FE0007F0
FE0007F0
FE000FF0
FE000FF0
FF001FF0
7F001FF0
7F803FF0
7FC0FFF0
3FFFFFF0
1FFFFFF0
1FFFFFF0
07FFE7F0
03FFC7F0
007F0000
ENDCHAR
STARTCHAR v
ENCODING 118
SWIDTH 598 0
DWIDTH 36 0
BBX 31 33 2 -1
BITMAP
FF00007E
7F00007E
7F00007E
7F0000FE
3F8000FC
3F8000FC
1FC000FC
1FC001F8
1FC001F8
0FE003F8
0FE003F0
07F003F0
07F007E0
07F007E0
03F807E0
03F80FC0
01F80FC0
01FC1F80
01FC1F80
00FE3F00
00FE3F00
007E3E00
007F7E00
003F7E00
003FFC00
003FFC00
001FF800
001FF800
000FF000
000FF000
000FF000
0007E000
0007E000
ENDCHAR
STARTCHAR w
ENCODING 119
SWIDTH 598 0
DWIDTH 36 0
BBX 34 32 1 0
BITMAP
FE00001FC0
FE00000FC0
FC00000FC0
FE01F01FC0
7E01F01F80
7E03F01F80
7E03F81F80
7E03F81F80
7F03F81F80
3F07F81F80
3F07FC1F00
3F07FC1F00
3F07FC1F00
3F8FFE3F00
1F8FFE3F00
1F8FBE3F00
1F8F3E3F00
1F9F3F3E00
0FDF1F3E00
0FDF1F3E00
0FDE1FFE00
0FFE1FFE00
0FFE0FFC00
07FE0FFC00
07FC0FFC00
07FC07FC00
07FC07FC00
07FC07F800
03F807F800
03F803F800
03F803F800
03F003F800
ENDCHAR
STARTCHAR x
ENCODING 120
SWIDTH 598 0
DWIDTH 36 0
BBX 31 32 3 0
BITMAP
FE0003F8
FF0007F8
7F8007F0
3F800FE0
1FC01FC0
1FE01FC0
0FF03F80
07F07F00
03F87F00
03FCFE00
01FDFC00
00FFFC00
007FF800
007FF000
003FE000
001FE000
003FE000
003FF000
007FF800
00FFFC00
00FFFC00
01FCFE00
03F8FF00
07F87F80
07F03F80
0FE01FC0
1FE01FE0
3FC00FF0
3F8007F0
7F8007F8
FF0003FC
FE0001FE
ENDCHAR
STARTCHAR y
ENCODING 121
SWIDTH 598 0
DWIDTH 36 0
BBX 33 45 1 -13
BITMAP
3FC0003F80
3FC0003F80
3FC0007F00
1FC0007F00
1FC0007F00
0FE0007E00
0FE000FE00
07F000FC00
07F000FC00
07F001FC00
03F801F800
03F801F800
01F803F800
01FC03F000
01FC03F000
00FE07E000
00FE07E000
007E07E000
007F0FC000
003F0FC000
003F9F8000
003F9F8000
001F9F8000
001FFF0000
000FFF0000
000FFF0000
000FFE0000
0007FE0000
0007FC0000
0003FC0000
0003FC0000
0001F80000
0003F80000
0003F00000
0007F00000
0007F00000
180FE00000
380FE00000
3C3FE00000
7FFFC00000
7FFF800000
FFFF000000
7FFE000000
3FFC000000
07F0000000
ENDCHAR
STARTCHAR z
ENCODING 122
SWIDTH 598 0
DWIDTH 36 0
BBX 30 32 3 0
BITMAP
3FFFFFF0
3FFFFFF0
3FFFFFF0
3FFFFFF0
3FFFFFF0
3FFFFFE0
00001FC0
00003F80
00007F80
0000FF00
0001FE00
0003FC00
0007F800
000FF000
000FE000
001FE000
003FC000
007F8000
00FF0000
01FE0000
03FC0000
03F80000
07F80000
0FF00000
1FE00000
3FC00008
7FFFFFFC
FFFFFFFC
FFFFFFFC
FFFFFFFC
FFFFFFFC
FFFFFFFC
ENDCHAR
STARTCHAR braceleft
ENCODING 123
SWIDTH 598 0
DWIDTH 36 0
BBX 27 57 3 -13
BITMAP
00007FE0
0003FFE0
000FFFE0
001FFFE0
003FFFE0
003FFFE0
007F8000
007F0000
00FE0000
00FE0000
00FE0000
00FE0000
00FE0000
00FE0000
00FE0000
00FE0000
00FE0000
00FE0000
00FE0000
00FE0000
00FC0000
01FC0000
03F80000
FFF80000
FFF00000
FFE00000
FFC00000
FFF00000
FFF00000
07F80000
01F80000
01FC0000
00FC0000
00FC0000
00FE0000
00FE0000
00FE0000
00FE0000
00FE0000
00FE0000
00FE0000
00FE0000
00FC0000
00FC0000
00FC0000
00FE0000
00FE0000
00FE0000
00FE0000
00FF0000
007F8000
007FFFE0
003FFFE0
001FFFE0
000FFFE0
0007FFE0
0000FFE0
ENDCHAR
STARTCHAR bar
ENCODING 124
SWIDTH 598 0
DWIDTH 36 0
BBX 6 58 15 -12
BITMAP
FC
FC
FC
FC
FC
FC
FC
FC
FC
FC
FC
FC
FC
FC
FC
FC
FC
FC
FC
FC
FC
FC
FC
FC
FC
FC
FC
FC
FC
FC
FC
FC
FC
FC
FC
FC
FC
FC
FC
FC
FC
FC
FC
FC
FC
FC
FC
FC
FC
FC
FC
FC
FC
FC
FC
FC
FC
FC
ENDCHAR
STARTCHAR braceright
ENCODING 125
SWIDTH 598 0
DWIDTH 36 0
BBX 27 57 6 -13
BITMAP
FFC00000
FFF80000
FFFE0000
FFFF0000
FFFF8000
FFFF8000
003FC000
001FC000
000FE000
000FE000
000FE000
000FE000
000FE000
000FE000
000FE000
000FE000
000FE000
000FE000
000FE000
000FE000
0007E000
0007F000
0007F800
0003FFE0
0001FFE0
0000FFE0
00007FE0
0001FFE0
0001FFE0
0003F800
0007F000
0007F000
0007E000
0007E000
000FE000
000FE000
000FE000
000FE000
000FE000
000FE000
000FE000
000FE000
000FE000
0007E000
000FE000
000FE000
000FE000
000FE000
000FE000
001FE000
003FC000
FFFFC000
FFFF8000
FFFF0000
FFFE0000
FFFC0000
FFE00000
ENDCHAR
STARTCHAR asciitilde
ENCODING 126
SWIDTH 598 0
DWIDTH 36 0
BBX 33 10 2 23
BITMAP
01FE000000
07FF800C00
1FFFE03F80
3FFFFCFF00
7FFFFFFE00
FFFFFFFE00
3F0FFFFC00
1E03FFF800
0400FFE000
00003F8000
ENDCHAR
STARTCHAR uni0080
ENCODING 128
SWIDTH 598 0
DWIDTH 36 0
BBX 6 39 15 -2
BITMAP
20
20
30
30
30
30
30
30
30
30
30
78
FC
FC
FC
FC
FC
FC
FC
FC
FC
FC
FC
FC
FC
FC
78
78
78
78
78
78
30
30
30
30
30
30
30
ENDCHAR
STARTCHAR uni0081
ENCODING 129
SWIDTH 598 0
DWIDTH 36 0
BBX 8 54 14 -8
BITMAP
18
18
18
3C
3C
3C
3C
3C
3C
3C
3C
3C
1C
18
18
18
18
18
18
18
18
7E
FF
FF
FE
7E
7E
7E
7E
7E
7E
7E
7E
7E
7E
7E
7E
7E
7E
7E
7E
7E
7E
7E
7E
7E
7C
3C
18
18
18
18
18
18
ENDCHAR
STARTCHAR uni0082
ENCODING 130
SWIDTH 598 0
DWIDTH 36 0
BBX 26 57 5 -9
BITMAP
02001000
02003000
06003000
06003000
06003000
06003000
06003000
06003000
06003000
07003000
07003000
07003000
07003000
07003000
07003000
07003000
FF003FC0
FFFEFFC0
FFFFFFC0
FFFFFFC0
FFFFFFC0
FF807FC0
FF807FC0
FF807FC0
7F807F80
7F807F80
7F807F80
7F807F80
7F807F00
7F807F80
7F807F80
7F807F80
7F807F80
7F807F80
7F807F80
FF807F80
FF807FC0
FF807FC0
FF807FC0
1FFFFE00
1FFFFE00
1FFFFE00
1FFFFE00
1FFFFE00
1FFFFE00
1FFFFE00
1FFFFE00
1FFFFE00
1FFFFE00
1FFFFE00
1FFFFE00
1FFFFE00
1FFFFE00
1FFFFE00
007F0000
003F0000
003F0000
ENDCHAR
STARTCHAR uni0083
ENCODING 131
SWIDTH 598 0
DWIDTH 36 0
BBX 30 30 4 1
BITMAP
0C0000C0
1E0001E0
3F0003F0
7F8007F8
FFC00FFC
FFE01FFC
7FF03FF8
3FF87FF0
1FFCFFE0
0FFFFFC0
07FFFF80
03FFFF00
01FFFE00
00FFFC00
007FF800
007FF800
00FFFC00
01FFFE00
03FFFF00
07FFFF80
0FFFFFC0
1FFCFFE0
3FF87FF0
7FF03FF8
FFE01FFC
FFC00FFC
7F8007F8
3F0003F0
1E0001E0
0C0000C0
ENDCHAR
STARTCHAR uni0085
ENCODING 133
SWIDTH 598 0
DWIDTH 36 0
BBX 34 28 1 7
BITMAP
0010000000
0038000000
0078000000
00FC000000
01FE000000
03FC000000
07F8000000
07F0000000
0FE0000000
1FC0000000
3F80000000
7FFFFFFFC0
FFFFFFFFC0
FFFFFFFFC0
FFFFFFFFC0
7FFFFFFFC0
7FFFFFFFC0
3F80000000
1FC0000000
0FE0000000
07F0000000
07F8000000
03F8000000
01FC000000
00FE000000
007C000000
0038000000
0030000000
ENDCHAR
STARTCHAR uni0086
ENCODING 134
SWIDTH 598 0
DWIDTH 36 0
BBX 28 47 4 -2
BITMAP
00070000
000F0000
000F8000
001FC000
003FE000
007FE000
00FFF000
01FFF800
01FFFC00
03FFFE00
07FFFE00
0FFFFF00
1FDFBF80
3FDFBFC0
3F9F9FC0
7F1F8FE0
FE1F8FF0
FC1F87F0
7C1F83E0
381F8180
001F8100
001F8000
001F8000
001F8000
001F8000
001F8000
001F8000
001F8000
001F8000
001F8000
001F8000
001F8000
001F8000
001F8000
001F8000
001F8000
001F8000
001F8000
001F8000
001F8000
001F8000
001F8000
001F8000
001F8000
001F8000
001F8000
001F8000
ENDCHAR
STARTCHAR uni0087
ENCODING 135
SWIDTH 598 0
DWIDTH 36 0
BBX 34 28 1 7
BITMAP
0000020000
0000070000
0000078000
00000FC000
00001FE000
00000FF000
000007F800
000003F800
000001FC00
000000FE00
0000007F00
FFFFFFFF80
FFFFFFFFC0
FFFFFFFFC0
FFFFFFFFC0
FFFFFFFF80
FFFFFFFF80
0000007F00
000000FE00
000001FC00
000003F800
000007F800
000007F000
00000FE000
00001FC000
00000F8000
0000070000
0000030000
ENDCHAR
STARTCHAR uni0088
ENCODING 136
SWIDTH 598 0
DWIDTH 36 0
BBX 29 47 3 -2
BITMAP
000FC000
000FC000
000FC000
000FC000
000FC000
000FC000
000FC000
000FC000
000FC000
000FC000
000FC000
000FC000
000FC000
000FC000
000FC000
000FC000
000FC000
000FC000
000FC000
000FC000
000FC000
000FC000
000FC000
000FC000
000FC000
000FC000
000FC000
040FC040
1C0FC0E0
3E0FC1F0
FF0FC3F8
7F8FC3F8
3F8FC7F0
1FCFCFE0
1FEFDFC0
0FEFFFC0
07FFFF80
03FFFF00
03FFFE00
01FFFC00
00FFF800
007FF800
003FF000
003FE000
001FC000
000F8000
00070000
ENDCHAR
STARTCHAR uni0089
ENCODING 137
SWIDTH 598 0
DWIDTH 36 0
BBX 34 28 1 7
BITMAP
0010020000
0038070000
0078078000
00FC0FC000
01FE1FE000
03FC0FF000
07F807F800
07F003F800
0FE001FC00
1FC000FE00
3F80007F00
7FFFFFFF80
FFFFFFFFC0
FFFFFFFFC0
FFFFFFFFC0
7FFFFFFF80
7FFFFFFF80
3F80007F00
1FC000FE00
0FE001FC00
07F003F800
07F807F800
03F807F000
01FC0FE000
00FE1FC000
007C0F8000
0038070000
0030030000
ENDCHAR
STARTCHAR uni008A
ENCODING 138
SWIDTH 598 0
DWIDTH 36 0
BBX 29 47 3 -2
BITMAP
00030000
00078000
000FC000
001FE000
001FE000
003FF000
007FF800
00FFFC00
01FFFE00
03FFFE00
03FFFF00
07FFFF80
0FEFFFC0
1FCFDFC0
3FCFCFE0
7F8FCFF0
7F0FC7F8
7E0FC3F8
3C0FC1F0
180FC1C0
080FC080
000FC000
000FC000
000FC000
000FC000
000FC000
000FC000
040FC040
1C0FC0E0
3E0FC1F0
FF0FC3F8
7F8FC7F8
3FCFC7F0
1FCFCFE0
1FEFDFC0
0FFFFFC0
07FFFF80
03FFFF00
03FFFE00
01FFFC00
00FFF800
007FF800
003FF000
003FE000
001FC000
000F8000
00070000
ENDCHAR
STARTCHAR uni008C
ENCODING 140
SWIDTH 598 0
DWIDTH 36 0
BBX 26 33 5 -1
BITMAP
FFFFFFC0
FFFFFFC0
FFFFFFC0
FFFFFFC0
FFFFFFC0
3FFFFF00
3FFFFF00
3FFFFF00
3FFFFF00
3FFFFF00
1FFFFE00
0FFFFC00
07FFF800
03FFF000
01FFE000
00FF8000
007F0000
00FF8000
01FFC000
03FFF000
07FFF800
0FFFFC00
1FFFFE00
3FFFFF00
3FFFFF00
3FFFFF00
3FFFFF00
3FFFFF00
FFFFFFC0
FFFFFFC0
FFFFFFC0
FFFFFFC0
FFFFFFC0
ENDCHAR
STARTCHAR uni008D
ENCODING 141
SWIDTH 598 0
DWIDTH 36 0
BBX 33 35 1 0
BITMAP
7FFFC00000
FFFFC00000
7FFFC00000
0007800000
000F000000
001E000000
003C000000
0078000000
00F00FFF80
01E00FFF80
03C007FF80
0780000700
0700000E00
0E00001C00
1C00003800
3800007800
7FFFE0F000
FFFFE1E000
7FFFC3C000
0000038000
000007FF80
00000FFF80
00000FFF80
00FFC00000
00FFC00000
00FFC00000
0003800000
0007000000
000E000000
001C000000
0038000000
0070000000
00FFE00000
00FFE00000
00FFC00000
ENDCHAR
STARTCHAR uni008E
ENCODING 142
SWIDTH 598 0
DWIDTH 36 0
BBX 31 45 2 -7
BITMAP
0007E000
0007E000
0007E000
0007E000
0007E000
0007E000
0007E000
0007E000
0007E000
0007E000
0007E000
0007E000
0007E000
0007E000
0007E000
0007E000
0007E000
0007E000
0007E000
0007E000
1807E018
3C07E03C
7E07E07E
FF07E0FE
7F87E1FC
3FC7E3F8
1FE7E7F0
0FF7EFE0
07FFFFC0
03FFFF80
01FFFF00
00FFFE00
007FFC00
003FF800
001FF000
000FE000
0007C000
00038000
00010000
00000000
3FFFFFFC
3FFFFFFC
3FFFFFFC
3FFFFFFC
3FFFFFFC
ENDCHAR
STARTCHAR uni008F
ENCODING 143
SWIDTH 598 0
DWIDTH 36 0
BBX 34 34 1 0
BITMAP
000FFE0000
007FFF8000
01FFFFC000
03FFFFF000
07FFFFF800
0FFE1FFC00
1FF003FE00
1FC000FE00
3F80007F00
7F00003F00
7E00001F80
7E01E01F80
FC07F80FC0
FC0FFC0FC0
FC0FFC0FC0
FC1FFE0FC0
FC1FFE0FC0
FC1FFE0FC0
FC0FFC0FC0
FC0FFC0FC0
FC07F80FC0
7E03F01F80
7E00001F80
7F00003F80
3F80007F00
3FC000FF00
1FE001FE00
0FF807FC00
07FFFFF800
03FFFFF000
01FFFFE000
00FFFFC000
003FFF0000
0003F00000
ENDCHAR
STARTCHAR uni0090
ENCODING 144
SWIDTH 598 0
DWIDTH 36 0
BBX 27 52 4 -6
BITMAP
0007FF80
0007FF00
000FFF00
000FFE00
001FFE00
001FFC00
003FFC00
003FF800
007FF800
007FF800
00FFF000
00FFF000
01FFE000
01FFE000
03FFC000
03FFC000
07FF8000
07FFFFE0
0FFFFFE0
1FFFFFC0
1FFFFF80
3FFFFF80
3FFFFF00
7FFFFE00
7FFFFE00
FC0FFC00
000FF800
001FF800
001FF000
001FE000
001FE000
003FC000
003FC000
003F8000
007F0000
007F0000
007E0000
007C0000
00FC0000
00F80000
00F00000
01F00000
01E00000
01C00000
01C00000
03800000
03000000
03000000
06000000
04000000
04000000
08000000
ENDCHAR
STARTCHAR uni0091
ENCODING 145
SWIDTH 598 0
DWIDTH 36 0
BBX 22 54 7 -8
BITMAP
007C00
01FE00
03FF00
078700
070380
060380
060380
060380
060380
060380
060380
060380
060380
067380
067380
067380
067380
067380
067380
067380
067380
067180
067180
067180
067180
067180
067180
067180
067180
067180
067180
067180
067180
0E71C0
1E71E0
3C78F0
71FC78
73FF38
E7FF9C
E7FF9C
CFFF9C
CFFFDC
CFFFDC
CFFFDC
CFFF9C
E7FF9C
E3FF18
73FE38
78FC70
3C00F0
1F03E0
0FFFC0
03FF00
007800
ENDCHAR
STARTCHAR uni0092
ENCODING 146
SWIDTH 598 0
DWIDTH 36 0
BBX 34 31 1 5
BITMAP
0001E00000
0007F00000
0007F80000
000F3C0000
000E1C0000
001E1E0000
003C0E0000
00380F0000
0078070000
0070878000
00F0C38000
00E1C1C000
01E1C1E000
01C1C0E000
03C1C0F000
0781C07000
0701C07800
0F01C03800
0E00C03C00
1E00001C00
1C00000E00
3C00000E00
3800C00700
7801C00700
7000C00380
F000000380
E0000001C0
E0000001C0
FFFFFFFFC0
7FFFFFFF80
3FFFFFFF00
ENDCHAR
STARTCHAR uni0096
ENCODING 150
SWIDTH 598 0
DWIDTH 36 0
BBX 36 11 0 -11
BITMAP
FFFFFFFFF0
FFFFFFFFF0
FFFFFFFFF0
FFFFFFFFF0
FFFFFFFFF0
FFFFFFFFF0
FFFFFFFFF0
FFFFFFFFF0
FFFFFFFFF0
FFFFFFFFF0
FFFFFFFFF0
ENDCHAR
STARTCHAR uni0097
ENCODING 151
SWIDTH 598 0
DWIDTH 36 0
BBX 36 23 0 -11
BITMAP
FFFFFFFFF0
FFFFFFFFF0
FFFFFFFFF0
FFFFFFFFF0
FFFFFFFFF0
FFFFFFFFF0
FFFFFFFFF0
FFFFFFFFF0
FFFFFFFFF0
FFFFFFFFF0
FFFFFFFFF0
FFFFFFFFF0
FFFFFFFFF0
FFFFFFFFF0
FFFFFFFFF0
FFFFFFFFF0
FFFFFFFFF0
FFFFFFFFF0
FFFFFFFFF0
FFFFFFFFF0
FFFFFFFFF0
FFFFFFFFF0
FFFFFFFFF0
ENDCHAR
STARTCHAR uni0098
ENCODING 152
SWIDTH 598 0
DWIDTH 36 0
BBX 36 34 0 -11
BITMAP
FFFFFFFFF0
FFFFFFFFF0
FFFFFFFFF0
FFFFFFFFF0
FFFFFFFFF0
FFFFFFFFF0
FFFFFFFFF0
FFFFFFFFF0
FFFFFFFFF0
FFFFFFFFF0
FFFFFFFFF0
FFFFFFFFF0
FFFFFFFFF0
FFFFFFFFF0
FFFFFFFFF0
FFFFFFFFF0
FFFFFFFFF0
FFFFFFFFF0
FFFFFFFFF0
FFFFFFFFF0
FFFFFFFFF0
FFFFFFFFF0
FFFFFFFFF0
FFFFFFFFF0
FFFFFFFFF0
FFFFFFFFF0
FFFFFFFFF0
FFFFFFFFF0
FFFFFFFFF0
FFFFFFFFF0
FFFFFFFFF0
FFFFFFFFF0
FFFFFFFFF0
FFFFFFFFF0
ENDCHAR
STARTCHAR uni0099
ENCODING 153
SWIDTH 598 0
DWIDTH 36 0
BBX 36 46 0 -11
BITMAP
FFFFFFFFF0
FFFFFFFFF0
FFFFFFFFF0
FFFFFFFFF0
FFFFFFFFF0
FFFFFFFFF0
FFFFFFFFF0
FFFFFFFFF0
FFFFFFFFF0
FFFFFFFFF0
FFFFFFFFF0
FFFFFFFFF0
FFFFFFFFF0
FFFFFFFFF0
FFFFFFFFF0
FFFFFFFFF0
FFFFFFFFF0
FFFFFFFFF0
FFFFFFFFF0
FFFFFFFFF0
FFFFFFFFF0
FFFFFFFFF0
FFFFFFFFF0
FFFFFFFFF0
FFFFFFFFF0
FFFFFFFFF0
FFFFFFFFF0
FFFFFFFFF0
FFFFFFFFF0
FFFFFFFFF0
FFFFFFFFF0
FFFFFFFFF0
FFFFFFFFF0
FFFFFFFFF0
FFFFFFFFF0
FFFFFFFFF0
FFFFFFFFF0
FFFFFFFFF0
FFFFFFFFF0
FFFFFFFFF0
FFFFFFFFF0
FFFFFFFFF0
FFFFFFFFF0
FFFFFFFFF0
FFFFFFFFF0
FFFFFFFFF0
ENDCHAR
STARTCHAR uni009A
ENCODING 154
SWIDTH 598 0
DWIDTH 36 0
BBX 36 58 0 -11
BITMAP
FFFFFFFFF0
FFFFFFFFF0
FFFFFFFFF0
FFFFFFFFF0
FFFFFFFFF0
FFFFFFFFF0
FFFFFFFFF0
FFFFFFFFF0
FFFFFFFFF0
FFFFFFFFF0
FFFFFFFFF0
FFFFFFFFF0
FFFFFFFFF0
FFFFFFFFF0
FFFFFFFFF0
FFFFFFFFF0
FFFFFFFFF0
FFFFFFFFF0
FFFFFFFFF0
FFFFFFFFF0
FFFFFFFFF0
FFFFFFFFF0
FFFFFFFFF0
FFFFFFFFF0
FFFFFFFFF0
FFFFFFFFF0
FFFFFFFFF0
FFFFFFFFF0
FFFFFFFFF0
FFFFFFFFF0
FFFFFFFFF0
FFFFFFFFF0
FFFFFFFFF0
FFFFFFFFF0
FFFFFFFFF0
FFFFFFFFF0
FFFFFFFFF0
FFFFFFFFF0
FFFFFFFFF0
FFFFFFFFF0
FFFFFFFFF0
FFFFFFFFF0
FFFFFFFFF0
FFFFFFFFF0
FFFFFFFFF0
FFFFFFFFF0
FFFFFFFFF0
FFFFFFFFF0
FFFFFFFFF0
FFFFFFFFF0
FFFFFFFFF0
FFFFFFFFF0
FFFFFFFFF0
FFFFFFFFF0
FFFFFFFFF0
FFFFFFFFF0
FFFFFFFFF0
FFFFFFFFF0
ENDCHAR
STARTCHAR uni009C
ENCODING 156
SWIDTH 598 0
DWIDTH 36 0
BBX 26 25 5 7
BITMAP
000C0000
000C0000
001E0000
001E0000
003F0000
003F0000
007F8000
007F8000
00FFC000
00FFC000
01FFE000
01FFE000
03FFF000
03FFF000
07FFF800
07FFF800
0FFFFC00
0FFFFC00
1FFFFE00
1FFFFE00
3FFFFF00
3FFFFF00
7FFFFF80
7FFFFF80
FFFFFFC0
ENDCHAR
STARTCHAR uni009D
ENCODING 157
SWIDTH 598 0
DWIDTH 36 0
BBX 26 26 5 7
BITMAP
FFFFFFC0
7FFFFF80
7FFFFF80
3FFFFF00
3FFFFF00
1FFFFE00
1FFFFE00
0FFFFC00
0FFFFC00
07FFF800
07FFF800
03FFF000
03FFF000
01FFE000
01FFE000
00FFC000
00FFC000
007F8000
007F8000
003F0000
003F0000
001E0000
001E0000
000C0000
000C0000
00080000
ENDCHAR
STARTCHAR uni009E
ENCODING 158
SWIDTH 598 0
DWIDTH 36 0
BBX 26 26 5 7
BITMAP
00000040
000001C0
000007C0
00001FC0
00007FC0
0001FFC0
0007FFC0
001FFFC0
007FFFC0
01FFFFC0
07FFFFC0
1FFFFFC0
7FFFFFC0
FFFFFFC0
3FFFFFC0
0FFFFFC0
03FFFFC0
00FFFFC0
003FFFC0
000FFFC0
0003FFC0
0000FFC0
00003FC0
00000FC0
000003C0
000000C0
ENDCHAR
STARTCHAR uni009F
ENCODING 159
SWIDTH 598 0
DWIDTH 36 0
BBX 26 26 5 7
BITMAP
80000000
E0000000
F8000000
FE000000
FF800000
FFE00000
FFF80000
FFFE0000
FFFF8000
FFFFE000
FFFFF800
FFFFFE00
FFFFFF80
FFFFFFC0
FFFFFF00
FFFFFC00
FFFFF000
FFFFC000
FFFF0000
FFFC0000
FFF00000
FFC00000
FF000000
FC000000
F0000000
C0000000
ENDCHAR
STARTCHAR nonbreakingspace
ENCODING 160
SWIDTH 598 0
DWIDTH 36 0
BBX 1 1 0 0
BITMAP
00
ENDCHAR
STARTCHAR exclamdown
ENCODING 161
SWIDTH 598 0
DWIDTH 36 0
BBX 10 47 12 -1
BITMAP
3F00
7F80
7FC0
FFC0
FFC0
FFC0
7FC0
7F80
3F00
0C00
0000
0000
0000
0000
0000
1F00
1F00
3F00
3F00
3F00
3F00
3F00
3F00
3F00
3F00
3F00
3F80
3F80
3F80
3F80
7F80
7F80
7F80
7F80
7F80
7F80
7F80
7F80
7F80
7FC0
7FC0
7FC0
7F80
7F80
7F80
3F00
0E00
ENDCHAR
STARTCHAR cent
ENCODING 162
SWIDTH 598 0
DWIDTH 36 0
BBX 30 49 3 -5
BITMAP
00007800
0000FE00
0000FE00
0000FC00
0000FC00
0000FC00
0000FC00
0000FC00
001FFE00
007FFF80
01FFFFE0
03FFFFF0
07FFFFF8
0FF9FFFC
1FE1FBFC
3FC1F9F8
3F83F8F0
7F03F060
7F03F060
7E03F000
FE03F000
FE03F000
FE03F000
FE03F000
FE07F000
FE07E000
FE07E000
FE07E000
FE07E000
7F07E000
7F07E000
7F87E000
3F8FC060
3FCFC0F0
1FEFC1F0
1FFFCFF8
0FFFFFFC
07FFFFF8
03FFFFF0
00FFFFC0
003FFF00
001FF800
001F8000
001F8000
001F8000
001F8000
001F8000
001F0000
003F0000
ENDCHAR
STARTCHAR sterling
ENCODING 163
SWIDTH 598 0
DWIDTH 36 0
BBX 32 44 2 -1
BITMAP
0001FC00
000FFF80
001FFFE0
007FFFF0
00FFFFF8
00FFFFF0
01FE03E0
01FC01C0
03F800C0
03F80000
03F00000
03F00000
07F00000
07F00000
03F00000
03F00000
3FFFE000
3FFFE000
3FFFE000
3FFFE000
3FFFE000
3FFFE000
01FC0000
00FC0000
00FC0000
00FC0000
00FC0000
00FC0000
00FC0000
00FC0000
00FC0000
01FC0000
01FC0000
01F80000
03F80000
07FF0004
0FFFE00C
3FFFFE3E
FFFFFFFE
7FFFFFFF
7FFFFFFF
3F01FFFE
3C003FFC
30000FE0
ENDCHAR
STARTCHAR currency
ENCODING 164
SWIDTH 598 0
DWIDTH 36 0
BBX 28 27 4 10
BITMAP
10000000
38000180
7C0F03C0
FE7FE7E0
7FFFFFE0
3FFFFFC0
1FFFFF80
0FFFFF00
0FF0FF00
1FC03F80
1F801F80
1F000FC0
3F000FC0
3F000FC0
3F000FC0
1F000FC0
1F801F80
1FC03F80
0FF07F00
0FFFFF00
1FFFFF80
3FFFFFC0
7FFFFFE0
FE7FE7F0
7C0F03E0
38000180
10000000
ENDCHAR
STARTCHAR yen
ENCODING 165
SWIDTH 598 0
DWIDTH 36 0
BBX 32 43 2 0
BITMAP
FE00007F
FF00007F
7F0000FE
3F8000FE
3FC001FC
1FC003F8
1FE003F8
0FE007F0
07F007F0
07F00FE0
03F80FE0
03F81FC0
01FC1FC0
00FE3F80
00FE3F80
007F7F00
007F7E00
003FFE00
001FFC00
001FFC00
000FF800
000FF800
0007F000
1FFFFFF8
1FFFFFF8
1FFFFFF8
1FFFFFF8
1FFFFFF8
1FFFFFF8
0007F000
0007F000
1FFFFFF8
1FFFFFF8
1FFFFFF8
1FFFFFF8
1FFFFFF8
1FFFFFF8
0007F000
0007F000
0007F000
0007F000
0007F000
0007F000
ENDCHAR
STARTCHAR brokenbar
ENCODING 166
SWIDTH 598 0
DWIDTH 36 0
BBX 6 57 15 -11
BITMAP
FC
FC
FC
FC
FC
FC
FC
FC
FC
FC
FC
FC
FC
FC
FC
FC
FC
FC
FC
FC
FC
FC
FC
FC
FC
FC
FC
00
00
00
00
FC
FC
FC
FC
FC
FC
FC
FC
FC
FC
FC
FC
FC
FC
FC
FC
FC
FC
FC
FC
FC
FC
FC
FC
FC
FC
ENDCHAR
STARTCHAR section
ENCODING 167
SWIDTH 598 0
DWIDTH 36 0
BBX 26 51 4 -4
BITMAP
001FC000
00FFF800
03FFFC00
07FFFF00
0FFFFF80
0FFFFF80
1FF07FC0
1FC01FC0
3FC01F80
3F800F00
3F800E00
3F800400
3FC00000
1FE00000
1FF00000
0FFE0000
07FFC000
03FFF000
07FFFC00
0FFFFE00
1FDFFF00
3F83FF80
3F007FC0
7F003FC0
7F001FC0
7F801FC0
7F800FC0
3FC01FC0
3FF81FC0
1FFF1F80
0FFFFF80
07FFFF00
01FFFC00
007FFE00
000FFF00
0001FF80
00007F80
00003FC0
00001FC0
0C001FC0
1C001FC0
3E001FC0
7F003FC0
FF807F80
FFF3FF80
7FFFFF00
3FFFFF00
1FFFFE00
07FFF800
03FFF000
007F8000
ENDCHAR
STARTCHAR dieresis
ENCODING 168
SWIDTH 598 0
DWIDTH 36 0
BBX 22 9 7 37
BITMAP
3C00F0
7F03F8
FF03FC
FF87FC
FF87FC
FF87FC
FF03FC
7E01F8
3C00F0
ENDCHAR
STARTCHAR copyright
ENCODING 169
SWIDTH 598 0
DWIDTH 36 0
BBX 35 37 1 -1
BITMAP
0007FC0000
003FFF0000
00FFFFC000
01FFFFF000
03FFFFF800
07F803FC00
0FE3F8FE00
1FCFFE7F00
3F9FFF9F00
3F3FFF9F80
7E7FFFCF80
7CFF0FE7C0
FCFC07E7C0
F9F803E3C0
F9F803C3E0
F9F00303E0
F9F00003E0
F9F00003E0
F9F80003E0
F9F80003E0
F9F80103E0
F9FC0383E0
F8FE07E3E0
F8FF9FE7C0
7C7FFFE7C0
7C3FFFCFC0
7E1FFF8F80
3F0FFE1F80
3F81F83F00
1FC0007F00
0FE000FE00
07F807FC00
03FFFFF800
01FFFFF000
007FFFC000
003FFF0000
0007FC0000
ENDCHAR
STARTCHAR ordfeminine
ENCODING 170
SWIDTH 598 0
DWIDTH 36 0
BBX 26 34 5 9
BITMAP
007F8000
01FFE000
07FFF800
0FFFFC00
1FFFFC00
0FFFFE00
0F80FE00
07007E00
02007E00
00007F00
007FFF00
03FFFF00
07FFFF00
0FFFFF00
1FFFFF00
3FF07F00
3F807F00
3F007F00
3F007F00
3F81FF00
3FFFFF00
1FFFFF00
1FFFFF00
0FFFFF00
07FFFF00
00FC0000
00000000
00000000
FFFFFFC0
FFFFFFC0
FFFFFFC0
FFFFFFC0
FFFFFFC0
FFFFFFC0
ENDCHAR
STARTCHAR guillemotleft
ENCODING 171
SWIDTH 598 0
DWIDTH 36 0
BBX 29 24 4 4
BITMAP
00180180
003C03C0
007E07E0
00FF0FF0
03FE1FF0
07FC3FC0
0FF87F80
1FF0FF00
3FE1FE00
7F83FC00
FF07F800
FF07F000
FF87F800
7FC3FC00
3FE1FE00
1FF0FF00
0FF07F80
07F83FC0
03FC1FE0
01FE0FF0
00FF07F8
007E03F0
003C01E0
001800C0
ENDCHAR
STARTCHAR logicalnot
ENCODING 172
SWIDTH 598 0
DWIDTH 36 0
BBX 24 15 6 10
BITMAP
FFFFFF
FFFFFF
FFFFFF
FFFFFF
FFFFFF
FFFFFF
00003F
00003F
00003F
00003F
00003F
00003F
00003F
00003F
00003F
ENDCHAR
STARTCHAR softhyphen
ENCODING 173
SWIDTH 598 0
DWIDTH 36 0
BBX 26 6 5 20
BITMAP
FFFFFFC0
FFFFFFC0
FFFFFFC0
FFFFFFC0
FFFFFFC0
FFFFFFC0
ENDCHAR
STARTCHAR registered
ENCODING 174
SWIDTH 598 0
DWIDTH 36 0
BBX 35 37 1 -1
BITMAP
0007FC0000
003FFF8000
00FFFFC000
01FFFFF000
03FFFFF800
07F803FC00
0FE000FE00
1FFFF87F00
3F7FFE3F00
3E7FFF9F80
7C7FFF8F80
7C7C07C7C0
F87C07C7C0
F87C07C3C0
F87C0FC3E0
F87FFFC3E0
F87FFFC3E0
F87FFF83E0
F87FFF03E0
F87FFE03E0
F87C3E03E0
F87C1F03E0
F87C1F03E0
FC7C0F87C0
7C7C0F87C0
7E7C07CFC0
7F7C07CF80
3FFC03FF80
3FC0007F00
1FE000FF00
0FF803FE00
07FFFFFC00
03FFFFF800
01FFFFF000
00FFFFC000
003FFF0000
0007F80000
ENDCHAR
STARTCHAR macron
ENCODING 175
SWIDTH 598 0
DWIDTH 36 0
BBX 20 6 8 37
BITMAP
FFFFF0
FFFFF0
FFFFF0
FFFFF0
FFFFF0
FFFFF0
ENDCHAR
STARTCHAR degree
ENCODING 176
SWIDTH 598 0
DWIDTH 36 0
BBX 21 18 8 26
BITMAP
03FE00
0FFF80
1FFFC0
3FFFE0
7FFFE0
7F07F0
FE03F0
FC03F8
FC01F8
FC01F8
FE03F0
7F07F0
7FFFF0
3FFFE0
3FFFC0
1FFF80
07FF00
01FC00
ENDCHAR
STARTCHAR plusminus
ENCODING 177
SWIDTH 598 0
DWIDTH 36 0
BBX 30 40 3 0
BITMAP
000FC000
000FC000
000FC000
000FC000
000FC000
000FC000
000FC000
000FC000
000FC000
000FC000
000FC000
FFFFFFFC
FFFFFFFC
FFFFFFFC
FFFFFFFC
FFFFFFFC
FFFFFFFC
000FC000
000FC000
000FC000
000FC000
000FC000
000FC000
000FC000
000FC000
000FC000
000FC000
000FC000
000FC000
000FC000
00000000
00000000
00000000
00000000
FFFFFFFC
FFFFFFFC
FFFFFFFC
FFFFFFFC
FFFFFFFC
FFFFFFFC
ENDCHAR
STARTCHAR uni00B2
ENCODING 178
SWIDTH 598 0
DWIDTH 36 0
BBX 22 27 7 17
BITMAP
01FF00
07FFC0
1FFFF0
3FFFF0
7FFFF8
7F83F8
FE01FC
7C00FC
1C00FC
0801F8
0001F8
0003F0
000FF0
001FE0
007F80
00FF00
01FE00
03F800
07F000
1FE000
1FC00C
3FFFFC
7FFFFC
7FFFFC
7FFFFC
7FFFFC
7FFFFC
ENDCHAR
STARTCHAR uni00B3
ENCODING 179
SWIDTH 598 0
DWIDTH 36 0
BBX 23 27 7 17
BITMAP
01FF00
07FFC0
1FFFF0
3FFFF0
7FFFF8
3F83F8
1E01FC
0C00F8
0003F8
00FFF8
00FFF0
00FFE0
00FFF8
00FFF8
0003FC
0000FC
08007E
1C007E
1C00FE
3E01FC
7F83FC
FFFFFC
7FFFF8
3FFFF0
0FFFE0
03FF80
007C00
ENDCHAR
STARTCHAR acute
ENCODING 180
SWIDTH 598 0
DWIDTH 36 0
BBX 12 15 14 34
BITMAP
0200
0380
07C0
0FF0
0FF0
1FE0
1FE0
3FC0
7F80
7F00
FF00
FE00
7C00
3800
0800
ENDCHAR
STARTCHAR micro
ENCODING 181
SWIDTH 598 0
DWIDTH 36 0
BBX 35 44 1 -12
BITMAP
3F000FC000
3F000FC000
3F000FC000
3F000FC000
3F000FC000
3F000FC000
3F000FC000
3F000FC000
3F000FC000
3F000FC000
3F000FC000
3F000FC000
3F000FC000
3F000FC000
3F000FC000
3F000FC000
3F000FC000
3F000FC000
3F000FC000
3F000FC000
3F000FC000
3F000FC000
3F000FC000
3F801FC000
3F801FC180
7FC03FC180
7FE07FE3C0
7FFFFFFFC0
7FFFFFFFE0
7FFFFBFFC0
7FFFF1FF80
7EFFE0FF00
7E1F803C00
7E00000000
7E00000000
7E00000000
7E00000000
7E00000000
7E00000000
FE00000000
FE00000000
FE00000000
FE00000000
FE00000000
ENDCHAR
STARTCHAR paragraph
ENCODING 182
SWIDTH 598 0
DWIDTH 36 0
BBX 28 51 4 -5
BITMAP
001FFFF0
01FFFFF0
07FFFFF0
0FFFFFF0
1FFFFFF0
3FFFFFF0
7FFFC1F0
7FFFC1F0
FFFFC1F0
FFFFC1F0
FFFFC1F0
FFFFC1F0
FFFFC1F0
FFFFC1F0
FFFFC1F0
FFFFC1F0
FFFFC1F0
7FFFC1F0
7FFFC1F0
3FFFC1F0
1FFFC1F0
0FFFC1F0
07FFC1F0
01FFC1F0
003FC1F0
000FC1F0
000FC1F0
000FC1F0
000FC1F0
000FC1F0
000FC1F0
000FC1F0
000FC1F0
000FC1F0
000FC1F0
000FC1F0
000FC1F0
000FC1F0
000FC1F0
000FC1F0
000FC1F0
000FC1F0
000FC1F0
000FC1F0
000FC1F0
000FC1F0
000FC1F0
000FC1F0
000FC1F0
000FC1F0
000FC1F0
ENDCHAR
STARTCHAR periodcentered
ENCODING 183
SWIDTH 598 0
DWIDTH 36 0
BBX 10 10 12 17
BITMAP
1E00
3F80
7F80
FFC0
FFC0
FFC0
FFC0
7F80
3F80
1E00
ENDCHAR
STARTCHAR cedilla
ENCODING 184
SWIDTH 598 0
DWIDTH 36 0
BBX 17 12 11 -12
BITMAP
01E000
01E000
01E000
01FC00
01FF00
01FF00
21FF80
780F80
FFFF00
FFFF00
3FFE00
07F000
ENDCHAR
STARTCHAR uni00B9
ENCODING 185
SWIDTH 598 0
DWIDTH 36 0
BBX 14 26 8 18
BITMAP
007C
01FC
07FC
1FFC
FFFC
FFFC
7FFC
78FC
00FC
00FC
00FC
00FC
00FC
00FC
00FC
00FC
00FC
00FC
00FC
00FC
00FC
00FC
00FC
00FC
00FC
00FC
ENDCHAR
STARTCHAR ordmasculine
ENCODING 186
SWIDTH 598 0
DWIDTH 36 0
BBX 26 34 5 9
BITMAP
003F0000
00FFE000
03FFF000
07FFF800
0FFFFC00
1FFFFC00
1FC1FE00
3F80FE00
3F007F00
3F003F00
3F003F00
7E003F00
7E003F00
7E003F00
7E003F00
7F003F00
3F003F00
3F007E00
3F80FE00
1FC1FE00
1FFFFC00
0FFFFC00
07FFF800
03FFF000
01FFC000
007F0000
00000000
00000000
FFFFFFC0
FFFFFFC0
FFFFFFC0
FFFFFFC0
FFFFFFC0
FFFFFFC0
ENDCHAR
STARTCHAR guillemotright
ENCODING 187
SWIDTH 598 0
DWIDTH 36 0
BBX 29 24 4 4
BITMAP
0C00C000
1E01E000
3F03F000
7F87F800
7FC3FC00
3FE1FF00
0FF0FF80
07F87FC0
03FC3FE0
01FE1FF0
00FF07F8
007F07F8
00FF0FF0
01FE1FE0
03FC3FC0
07F87F80
0FF0FF80
1FE1FF00
3FC3FE00
7F87FC00
FF07F800
7E03F000
3C01E000
1800C000
ENDCHAR
STARTCHAR onequarter
ENCODING 188
SWIDTH 598 0
DWIDTH 36 0
BBX 34 52 0 -4
BITMAP
00E0000000
03E0001000
0FE0001C00
3FE0003F00
FFE0003F00
FFE0007E00
73E0007E00
03E000FC00
03E000FC00
03E001F800
03E001F800
03E003F000
03E003F000
03E007E000
03E007E000
03E00FC000
03E00FC000
03E01FC000
03E01F8000
03E03F8000
03E03F0000
03E07F0000
00007E0000
0000FE0000
0000FC0000
0000FC0000
0001F80000
0001F80000
0003F00000
0003F00000
0007E00000
0007E01E00
000FC03E00
000FC07E00
001F80FE00
001F80FE00
003F01FE00
003F03FE00
007E07FE00
007E0FBE00
00FE1F3E00
00FC3E3E00
01FC3C3E00
01F87FFFC0
03F8FFFFC0
03F0FFFFC0
03F0FFFFC0
07E0003E00
07E0003E00
01C0003E00
0040003E00
0000003E00
ENDCHAR
STARTCHAR onehalf
ENCODING 189
SWIDTH 598 0
DWIDTH 36 0
BBX 36 53 0 -5
BITMAP
00E0000000
03E0001000
0FE0001C00
3FE0003F00
FFE0003F00
FFE0007E00
73E0007E00
03E000FC00
03E000FC00
03E001F800
03E001F800
03E003F000
03E003F000
03E007E000
03E007E000
03E00FE000
03E00FC000
03E01FC000
03E01F8000
03E03F8000
03E03F0000
03E03F0000
00007E0000
00007E0000
0000FC0000
0000FC0000
0001F80000
0001F80000
0003F00000
0003F00000
0007E00000
0007E00000
000FC1FE00
000FC7FF80
001F8FFFC0
001F9FFFC0
003FBF87E0
003F3E03E0
007F0C03E0
007E0403E0
00FE0007C0
00FC000FC0
00FC001F80
01F8007E00
01F800FC00
03F001F800
03F007E000
07E00FC000
07E01F8030
03C01FFFF0
00C01FFFF0
00001FFFF0
00001FFFF0
ENDCHAR
STARTCHAR threequarters
ENCODING 190
SWIDTH 598 0
DWIDTH 36 0
BBX 33 52 1 -4
BITMAP
07F0000000
1FFC003000
3FFE003800
7FFF007E00
FE3F007E00
781F00FE00
300F00FC00
001F01FC00
03FF01F800
03FE01F800
03FE03F000
03FF03F000
001F87E000
000F87E000
300F8FC000
700F8FC000
FC1F9F8000
FFFF1F8000
FFFF3F0000
3FFE3F0000
1FF87E0000
01807E0000
0000FC0000
0000FC0000
0001FC0000
0001F80000
0003F80000
0003F00000
0007F00000
0007E00000
000FE00000
000FC03C00
000FC07C00
001F80FC00
001F81FC00
003F01FC00
003F03FC00
007E07FC00
007E0FFC00
00FC1F7C00
00FC3E7C00
01F87C7C00
01F8787C00
03F0FFFF80
03F1FFFF80
07E1FFFF80
07E1FFFF80
0FE0007C00
07C0007C00
03C0007C00
0080007C00
0000007C00
ENDCHAR
STARTCHAR questiondown
ENCODING 191
SWIDTH 598 0
DWIDTH 36 0
BBX 28 47 4 -1
BITMAP
001F0000
007F8000
007FC000
00FFC000
00FFC000
00FFC000
007FC000
007F8000
003F0000
000C0000
00000000
00000000
00000000
00000000
00000000
003F8000
003F8000
003F8000
003F0000
003F0000
007F0000
00FF0000
01FE0000
03FC0000
0FFC0000
1FF80000
1FF00000
3FE00000
7FC00000
7F800000
7F800000
7F000000
FF000000
FF000000
FF000100
FF000380
7F0003C0
7F8007E0
7F800FF0
3FC03FF0
3FF9FFE0
1FFFFFC0
1FFFFF80
0FFFFF00
03FFFC00
01FFF000
003FC000
ENDCHAR
STARTCHAR Agrave
ENCODING 192
SWIDTH 598 0
DWIDTH 36 0
BBX 34 55 1 0
BITMAP
001C000000
003F800000
007FE00000
007FF80000
007FFE0000
000FFF0000
0001FE0000
00007C0000
00000C0000
0000000000
0000000000
0001800000
0001C00000
0003C00000
0003E00000
0003E00000
0007E00000
0007F00000
000FF00000
000FF80000
000FF80000
001FF80000
001FFC0000
001FFC0000
003FFE0000
003F7E0000
003F7E0000
007E7F0000
007E3F0000
007E3F0000
00FC3F8000
00FC1F8000
01FC1FC000
01F80FC000
01F80FC000
03F00FE000
03F007E000
03FFFFF000
07FFFFF000
07FFFFF000
07FFFFF800
0FFFFFF800
0FFFFFFC00
0FC001FC00
1FC001FC00
1F8000FE00
3F8000FE00
3F8000FF00
3F00007F00
7F00007F00
7F00003F80
7E00003F80
FE00003F80
FE00001FC0
FC00001FC0
ENDCHAR
STARTCHAR Aacute
ENCODING 193
SWIDTH 598 0
DWIDTH 36 0
BBX 34 55 1 0
BITMAP
00001C0000
00007E0000
0003FF0000
000FFF8000
003FFF0000
003FF80000
003FE00000
001F000000
0018000000
0000000000
0000000000
0001800000
0001C00000
0003C00000
0003E00000
0003E00000
0007E00000
0007F00000
000FF00000
000FF80000
000FF80000
001FF80000
001FFC0000
001FFC0000
003FFE0000
003F7E0000
003F7E0000
007E7F0000
007E3F0000
007E3F0000
00FC3F8000
00FC1F8000
01FC1FC000
01F80FC000
01F80FC000
03F00FE000
03F007E000
03FFFFF000
07FFFFF000
07FFFFF000
07FFFFF800
0FFFFFF800
0FFFFFFC00
0FC001FC00
1FC001FC00
1F8000FE00
3F8000FE00
3F8000FF00
3F00007F00
7F00007F00
7F00003F80
7E00003F80
FE00003F80
FE00001FC0
FC00001FC0
ENDCHAR
STARTCHAR Acircumflex
ENCODING 194
SWIDTH 598 0
DWIDTH 36 0
BBX 34 55 1 0
BITMAP
0001C00000
0003F00000
000FF80000
001FFC0000
003FFE0000
00FFFF8000
01FFFFC000
03FE3FE000
03F81FC000
01E007C000
00C0038000
0001800000
0001C00000
0003C00000
0003E00000
0003E00000
0007E00000
0007F00000
0007F00000
000FF00000
000FF80000
001FF80000
001FFC0000
001FFC0000
003FFC0000
003F7E0000
003F7E0000
007E7F0000
007E3F0000
007E3F0000
00FC3F8000
00FC1F8000
00FC1FC000
01F81FC000
01F80FC000
03F00FE000
03F007E000
03FFFFF000
07FFFFF000
07FFFFF000
07FFFFF800
0FFFFFF800
0FFFFFFC00
0FC001FC00
1FC001FC00
1F8000FE00
3F8000FE00
3F8000FE00
3F00007F00
7F00007F00
7F00003F80
7E00003F80
FE00003F80
FE00001FC0
FC00001FC0
ENDCHAR
STARTCHAR Atilde
ENCODING 195
SWIDTH 598 0
DWIDTH 36 0
BBX 34 56 1 0
BITMAP
001F000000
007FC02000
01FFF07000
03FFF8FC00
07FFFFFC00
0FFFFFF800
03F1FFF000
01C0FFE000
00803FC000
00000F0000
0000000000
0000000000
0001800000
0001C00000
0003C00000
0003E00000
0003E00000
0007E00000
0007F00000
000FF00000
000FF80000
000FF80000
001FF80000
001FFC0000
001FFC0000
003FFE0000
003F7E0000
003F7E0000
007E7F0000
007E3F0000
007E3F0000
00FC3F8000
00FC1F8000
01FC1FC000
01F80FC000
01F80FC000
03F00FE000
03F007E000
03FFFFF000
07FFFFF000
07FFFFF000
07FFFFF800
0FFFFFF800
0FFFFFFC00
0FC001FC00
1FC001FC00
1F8000FE00
3F8000FE00
3F8000FF00
3F00007F00
7F00007F00
7F00003F80
7E00003F80
FE00003F80
FE00001FC0
FC00001FC0
ENDCHAR
STARTCHAR Adieresis
ENCODING 196
SWIDTH 598 0
DWIDTH 36 0
BBX 34 55 1 0
BITMAP
00E0078000
03F80FC000
07F81FE000
07FC1FE000
07FC1FE000
07FC1FE000
07F81FE000
03F80FC000
01F0078000
0000000000
0000000000
0001800000
0001C00000
0003C00000
0003E00000
0003E00000
0007E00000
0007F00000
0007F00000
000FF80000
000FF80000
001FF80000
001FFC0000
001FFC0000
003FFC0000
003F7E0000
003F7E0000
007E7F0000
007E3F0000
007E3F0000
00FC3F8000
00FC1F8000
01FC1FC000
01F81FC000
01F80FC000
03F00FE000
03F007E000
03FFFFF000
07FFFFF000
07FFFFF000
07FFFFF800
0FFFFFF800
0FFFFFFC00
0FC001FC00
1FC001FC00
1F8000FE00
3F8000FE00
3F8000FF00
3F00007F00
7F00007F00
7F00003F80
7E00003F80
FE00003F80
FE00001FC0
FC00001FC0
ENDCHAR
STARTCHAR Aring
ENCODING 197
SWIDTH 598 0
DWIDTH 36 0
BBX 34 55 1 0
BITMAP
0003E00000
000FF80000
001FFC0000
003FFC0000
003C3E0000
003C1E0000
003C1E0000
003C1E0000
003E3E0000
003FFC0000
001FF80000
000FF00000
0001C00000
0003C00000
0003C00000
0003E00000
0007E00000
0007F00000
0007F00000
000FF00000
000FF80000
000FF80000
001FFC0000
001FFC0000
003FFC0000
003FFE0000
003F7E0000
007E7F0000
007E7F0000
007E3F0000
00FC3F8000
00FC1F8000
00FC1FC000
01F81FC000
01F80FC000
03F80FE000
03F00FE000
03F007F000
07FFFFF000
07FFFFF000
07FFFFF800
0FFFFFF800
0FFFFFF800
0FFFFFFC00
1FC001FC00
1FC000FE00
1F8000FE00
3F8000FE00
3F00007F00
7F00007F00
7F00003F80
7E00003F80
FE00003F80
FE00001FC0
FC00001FC0
ENDCHAR
STARTCHAR AE
ENCODING 198
SWIDTH 598 0
DWIDTH 36 0
BBX 35 43 0 0
BITMAP
0003FFFFE0
0007FFFFE0
0007FFFFE0
0007FFFFE0
000FFFFFE0
000FFFFFE0
000FFE0000
001FFE0000
001FFE0000
001FFE0000
003F7E0000
003F7E0000
003F7E0000
007E7E0000
007E7E0000
007E7E0000
00FC7E0000
00FC7E0000
00FC7FFF80
01F87FFF80
01F87FFF80
01F87FFF80
03F07FFF80
03F07FFF80
03F07E0000
07F07E0000
07FFFE0000
07FFFE0000
0FFFFE0000
0FFFFE0000
0FFFFE0000
1FFFFE0000
1FC07E0000
1F807E0000
3F807E0000
3F807E0000
3F007E0000
7F007FFFE0
7F007FFFE0
7E007FFFE0
FE007FFFE0
FC007FFFE0
FC007FFFE0
ENDCHAR
STARTCHAR Ccedilla
ENCODING 199
SWIDTH 598 0
DWIDTH 36 0
BBX 31 57 3 -13
BITMAP
0007F800
003FFF00
00FFFF80
01FFFFE0
03FFFFF0
07FFFFF8
0FF80FFC
1FF003FC
1FE001FE
3FC000FE
3F8000FC
7F0000F0
7F000040
7E000000
FE000000
FE000000
FE000000
FC000000
FC000000
FC000000
FC000000
FC000000
FC000000
FC000000
FC000000
FC000000
FC000000
FE000000
FE000000
FE000000
FE000000
7F000000
7F000000
7F800000
3F800070
3FC000F8
1FE001FE
1FF003FC
0FFC0FFC
07FFFFF8
03FFFFF0
01FFFFE0
00FFFF80
003FFF00
0007F800
0001E000
0001E000
0001F000
0001FE00
0001FF00
0001FF80
00700F80
007C0F80
00FFFF00
007FFE00
001FFC00
0003E000
ENDCHAR
STARTCHAR Egrave
ENCODING 200
SWIDTH 598 0
DWIDTH 36 0
BBX 28 55 4 0
BITMAP
00C00000
00F00000
01FE0000
03FF8000
07FFE000
01FFF800
003FF000
0007F000
0000E000
00002000
00000000
00000000
FFFFFFF0
FFFFFFF0
FFFFFFF0
FFFFFFF0
FFFFFFF0
FFFFFFF0
FC000000
FC000000
FC000000
FC000000
FC000000
FC000000
FC000000
FC000000
FC000000
FC000000
FC000000
FC000000
FFFFFF00
FFFFFF00
FFFFFF00
FFFFFF00
FFFFFF00
FFFFFF00
FC000000
FC000000
FC000000
FC000000
FC000000
FC000000
FC000000
FC000000
FC000000
FC000000
FC000000
FC000000
FC000000
FFFFFFF0
FFFFFFF0
FFFFFFF0
FFFFFFF0
FFFFFFF0
FFFFFFF0
ENDCHAR
STARTCHAR Eacute
ENCODING 201
SWIDTH 598 0
DWIDTH 36 0
BBX 28 55 4 0
BITMAP
00003000
0000F800
0003FC00
000FFC00
007FFE00
01FFF800
00FFC000
007F0000
00780000
00000000
00000000
00000000
FFFFFFF0
FFFFFFF0
FFFFFFF0
FFFFFFF0
FFFFFFF0
FFFFFFF0
FC000000
FC000000
FC000000
FC000000
FC000000
FC000000
FC000000
FC000000
FC000000
FC000000
FC000000
FC000000
FFFFFF00
FFFFFF00
FFFFFF00
FFFFFF00
FFFFFF00
FFFFFF00
FC000000
FC000000
FC000000
FC000000
FC000000
FC000000
FC000000
FC000000
FC000000
FC000000
FC000000
FC000000
FC000000
FFFFFFF0
FFFFFFF0
FFFFFFF0
FFFFFFF0
FFFFFFF0
FFFFFFF0
ENDCHAR
STARTCHAR Ecircumflex
ENCODING 202
SWIDTH 598 0
DWIDTH 36 0
BBX 28 55 4 0
BITMAP
000F0000
001F8000
003FC000
00FFF000
01FFF800
03FFFC00
07FFFE00
1FF1FF80
0FE07F00
07803E00
06000C00
00000000
FFFFFFF0
FFFFFFF0
FFFFFFF0
FFFFFFF0
FFFFFFF0
FFFFFFF0
FC000000
FC000000
FC000000
FC000000
FC000000
FC000000
FC000000
FC000000
FC000000
FC000000
FC000000
FC000000
FFFFFF00
FFFFFF00
FFFFFF00
FFFFFF00
FFFFFF00
FFFFFF00
FC000000
FC000000
FC000000
FC000000
FC000000
FC000000
FC000000
FC000000
FC000000
FC000000
FC000000
FC000000
FC000000
FFFFFFF0
FFFFFFF0
FFFFFFF0
FFFFFFF0
FFFFFFF0
FFFFFFF0
ENDCHAR
STARTCHAR Edieresis
ENCODING 203
SWIDTH 598 0
DWIDTH 36 0
BBX 28 54 4 0
BITMAP
07803E00
0FC07F00
1FE0FF00
1FE0FF80
3FE0FF80
1FE0FF80
1FE0FF00
0FC07F00
07801C00
00000000
00000000
FFFFFFF0
FFFFFFF0
FFFFFFF0
FFFFFFF0
FFFFFFF0
FFFFFFF0
FC000000
FC000000
FC000000
FC000000
FC000000
FC000000
FC000000
FC000000
FC000000
FC000000
FC000000
FC000000
FFFFFF00
FFFFFF00
FFFFFF00
FFFFFF00
FFFFFF00
FFFFFF00
FC000000
FC000000
FC000000
FC000000
FC000000
FC000000
FC000000
FC000000
FC000000
FC000000
FC000000
FC000000
FC000000
FFFFFFF0
FFFFFFF0
FFFFFFF0
FFFFFFF0
FFFFFFF0
FFFFFFF0
ENDCHAR
STARTCHAR Igrave
ENCODING 204
SWIDTH 598 0
DWIDTH 36 0
BBX 25 55 5 0
BITMAP
01800000
01E00000
03FC0000
07FF0000
0FFFC000
03FFF000
007FE000
000FE000
0001C000
00004000
00000000
00000000
7FFFFF00
7FFFFF00
7FFFFF00
7FFFFF00
7FFFFF00
7FFFFF00
007F0000
007F0000
007F0000
007F0000
007F0000
007F0000
007F0000
007F0000
007F0000
007F0000
007F0000
007F0000
007F0000
007F0000
007F0000
007F0000
007F0000
007F0000
007F0000
007F0000
007F0000
007F0000
007F0000
007F0000
007F0000
007F0000
007F0000
007F0000
007F0000
007F0000
007F0000
FFFFFF80
FFFFFF80
FFFFFF80
FFFFFF80
FFFFFF80
FFFFFF80
ENDCHAR
STARTCHAR Iacute
ENCODING 205
SWIDTH 598 0
DWIDTH 36 0
BBX 25 55 5 0
BITMAP
00006000
0001F000
0007F800
001FF800
00FFFC00
03FFF000
01FF8000
00FE0000
00F00000
00000000
00000000
00000000
7FFFFF00
7FFFFF00
7FFFFF00
7FFFFF00
7FFFFF00
7FFFFF00
007F0000
007F0000
007F0000
007F0000
007F0000
007F0000
007F0000
007F0000
007F0000
007F0000
007F0000
007F0000
007F0000
007F0000
007F0000
007F0000
007F0000
007F0000
007F0000
007F0000
007F0000
007F0000
007F0000
007F0000
007F0000
007F0000
007F0000
007F0000
007F0000
007F0000
007F0000
FFFFFF80
FFFFFF80
FFFFFF80
FFFFFF80
FFFFFF80
FFFFFF80
ENDCHAR
STARTCHAR Icircumflex
ENCODING 206
SWIDTH 598 0
DWIDTH 36 0
BBX 25 55 5 0
BITMAP
001C0000
007E0000
00FF8000
01FFC000
03FFE000
0FFFF800
1FFFFC00
3FE3FE00
3F81FC00
1E007800
0C003800
00000000
7FFFFF00
7FFFFF00
7FFFFF00
7FFFFF00
7FFFFF00
7FFFFF00
007F0000
007F0000
007F0000
007F0000
007F0000
007F0000
007F0000
007F0000
007F0000
007F0000
007F0000
007F0000
007F0000
007F0000
007F0000
007F0000
007F0000
007F0000
007F0000
007F0000
007F0000
007F0000
007F0000
007F0000
007F0000
007F0000
007F0000
007F0000
007F0000
007F0000
007F0000
FFFFFF80
FFFFFF80
FFFFFF80
FFFFFF80
FFFFFF80
FFFFFF80
ENDCHAR
STARTCHAR Idieresis
ENCODING 207
SWIDTH 598 0
DWIDTH 36 0
BBX 25 55 5 0
BITMAP
0E007800
3F80FC00
3FC1FE00
7FC1FF00
7FC1FF00
7FC1FF00
3FC1FE00
3F80FE00
0F007800
00000000
00000000
00000000
7FFFFF00
7FFFFF00
7FFFFF00
7FFFFF00
7FFFFF00
7FFFFF00
007F0000
007F0000
007F0000
007F0000
007F0000
007F0000
007F0000
007F0000
007F0000
007F0000
007F0000
007F0000
007F0000
007F0000
007F0000
007F0000
007F0000
007F0000
007F0000
007F0000
007F0000
007F0000
007F0000
007F0000
007F0000
007F0000
007F0000
007F0000
007F0000
007F0000
007F0000
FFFFFF80
FFFFFF80
FFFFFF80
FFFFFF80
FFFFFF80
FFFFFF80
ENDCHAR
STARTCHAR Eth
ENCODING 208
SWIDTH 598 0
DWIDTH 36 0
BBX 32 43 2 0
BITMAP
1FFFE000
1FFFFC00
1FFFFF00
1FFFFF80
1FFFFFC0
1FFFFFE0
1F803FF0
1F800FF0
1F8007F8
1F8003FC
1F8001FC
1F8001FC
1F8000FE
1F8000FE
1F8000FE
1F80007E
1F80007F
FFFF807F
FFFF807F
FFFF807F
FFFF807F
FFFF807F
FFFF807F
1F80007F
1F80007F
1F80007F
1F80007E
1F80007E
1F8000FE
1F8000FE
1F8000FC
1F8001FC
1F8003FC
1F8003F8
1F8007F8
1F800FF0
1F803FE0
1FFFFFE0
1FFFFFC0
1FFFFF80
1FFFFE00
1FFFFC00
1FFFE000
ENDCHAR
STARTCHAR Ntilde
ENCODING 209
SWIDTH 598 0
DWIDTH 36 0
BBX 30 56 3 0
BITMAP
003C0000
01FF8080
03FFC0E0
0FFFE3F0
1FFFFFF0
1FFFFFE0
0FC7FFC0
0703FFC0
0100FF00
00003C00
00000000
00000000
00000000
FE0001FC
FE0001FC
FF0001FC
FF0001FC
FF8001FC
FFC001FC
FFC001FC
FFE001FC
FFE001FC
FFF001FC
FFF001FC
FFF801FC
FFFC01FC
FEFC01FC
FEFE01FC
FE7E01FC
FE7F01FC
FE3F01FC
FE1F81FC
FE1F81FC
FE0FC1FC
FE0FE1FC
FE07E1FC
FE07F1FC
FE03F1FC
FE03F9FC
FE01F9FC
FE00FDFC
FE00FFFC
FE007FFC
FE007FFC
FE003FFC
FE003FFC
FE001FFC
FE001FFC
FE000FFC
FE0007FC
FE0007FC
FE0003FC
FE0003FC
FE0001FC
FE0001FC
FE0000FC
ENDCHAR
STARTCHAR Ograve
ENCODING 210
SWIDTH 598 0
DWIDTH 36 0
BBX 32 56 2 -1
BITMAP
00380000
007F0000
00FFC000
00FFF000
00FFFC00
001FFE00
0003FC00
0000F800
00001800
00000000
00000000
000FF000
003FFE00
00FFFF00
01FFFFC0
03FFFFE0
07FFFFF0
0FFE7FF0
1FF00FF8
1FE007FC
3FC003FC
3F8001FC
7F0000FE
7F0000FE
7F0000FE
FE00007F
FE00007F
FE00007F
FE00007F
FC00007F
FC00007F
FC00003F
FC00003F
FC00003F
FC00003F
FC00003F
FC00003F
FE00007F
FE00007F
FE00007F
FE00007F
7E00007F
7F0000FE
7F0000FE
7F8000FE
3F8001FC
3FC003FC
1FE007FC
1FF00FF8
0FFFFFF0
07FFFFF0
03FFFFE0
01FFFFC0
00FFFF00
003FFE00
0007F000
ENDCHAR
STARTCHAR Oacute
ENCODING 211
SWIDTH 598 0
DWIDTH 36 0
BBX 32 57 2 -1
BITMAP
00000400
00001C00
00007E00
0003FF00
000FFF80
003FFF00
003FFC00
003FE000
001F0000
00080000
00000000
00000000
000FF000
003FFE00
00FFFF00
01FFFFC0
03FFFFE0
07FFFFF0
0FFE7FF0
1FF00FF8
1FE007FC
3FC003FC
3F8001FC
7F0000FE
7F0000FE
7F0000FE
FE00007F
FE00007F
FE00007F
FE00007F
FC00007F
FC00007F
FC00003F
FC00003F
FC00003F
FC00003F
FC00003F
FC00003F
FE00007F
FE00007F
FE00007F
FE00007F
7E00007F
7F0000FE
7F0000FE
7F8000FE
3F8001FC
3FC003FC
1FE007FC
1FF00FF8
0FFFFFF0
07FFFFF0
03FFFFE0
01FFFFC0
00FFFF00
003FFE00
0007F000
ENDCHAR
STARTCHAR Ocircumflex
ENCODING 212
SWIDTH 598 0
DWIDTH 36 0
BBX 32 56 2 -1
BITMAP
0001C000
0007E000
000FF800
001FFC00
007FFE00
00FFFF00
01FFFFC0
07FE3FE0
03F81FC0
01E00780
00C00300
000FF100
003FFE00
00FFFF00
01FFFFC0
03FFFFE0
07FFFFF0
0FFE7FF0
1FF00FF8
1FE007FC
3FC003FC
3F8001FC
7F0000FE
7F0000FE
7F0000FE
FE00007F
FE00007F
FE00007F
FE00007F
FC00007F
FC00007F
FC00003F
FC00003F
FC00003F
FC00003F
FC00003F
FC00003F
FE00007F
FE00007F
FE00007F
FE00007F
7E00007F
7F0000FE
7F0000FE
7F8000FE
3F8001FC
3FC003FC
1FE007FC
1FF00FF8
0FFFFFF0
07FFFFF0
03FFFFE0
01FFFFC0
00FFFF00
003FFE00
0007F000
ENDCHAR
STARTCHAR Otilde
ENCODING 213
SWIDTH 598 0
DWIDTH 36 0
BBX 32 57 2 -1
BITMAP
003F0000
00FFC060
03FFF0F0
07FFFFF8
0FFFFFF0
0FFFFFF0
07C1FFE0
0180FFC0
00001F00
00000000
00000000
00000000
000FF000
003FFE00
00FFFF00
01FFFFC0
03FFFFE0
07FFFFF0
0FFE7FF0
1FF00FF8
1FE007FC
3FC003FC
3F8001FC
7F0000FE
7F0000FE
7F0000FE
FE00007F
FE00007F
FE00007F
FE00007F
FC00007F
FC00007F
FC00003F
FC00003F
FC00003F
FC00003F
FC00003F
FC00003F
FE00007F
FE00007F
FE00007F
FE00007F
7E00007F
7F0000FE
7F0000FE
7F8000FE
3F8001FC
3FC003FC
1FE007FC
1FF00FF8
0FFFFFF0
07FFFFF0
03FFFFE0
01FFFFC0
00FFFF00
003FFE00
0007F000
ENDCHAR
STARTCHAR Odieresis
ENCODING 214
SWIDTH 598 0
DWIDTH 36 0
BBX 32 56 2 -1
BITMAP
01E00F80
03F01FC0
07F83FC0
07F83FE0
0FF83FE0
07F83FE0
07F83FC0
03F01FC0
01E00700
00000000
00000000
000FF000
003FFE00
00FFFF00
01FFFFC0
03FFFFE0
07FFFFF0
0FFE7FF0
1FF00FF8
1FE007FC
3FC003FC
3F8001FC
7F0000FE
7F0000FE
7F0000FE
FE00007F
FE00007F
FE00007F
FE00007F
FC00007F
FC00007F
FC00003F
FC00003F
FC00003F
FC00003F
FC00003F
FC00003F
FE00007F
FE00007F
FE00007F
FE00007F
7E00007F
7F0000FE
7F0000FE
7F8000FE
3F8001FC
3FC003FC
1FE007FC
1FF00FF8
0FFFFFF0
07FFFFF0
03FFFFE0
01FFFFC0
00FFFF00
003FFE00
0007F000
ENDCHAR
STARTCHAR multiply
ENCODING 215
SWIDTH 598 0
DWIDTH 36 0
BBX 27 26 5 9
BITMAP
0C000600
1E000F00
3F001F80
7F803FE0
7FC07FC0
3FE0FF80
1FF1FF00
0FF3FE00
07FFFC00
03FFF800
01FFF000
00FFE000
007FC000
00FFE000
01FFF000
03FFF800
07FFFC00
0FFBFE00
1FF1FF00
3FE0FF00
7FC07F80
FF803FC0
7F003FC0
3E001F80
1C000F00
08000600
ENDCHAR
STARTCHAR Oslash
ENCODING 216
SWIDTH 598 0
DWIDTH 36 0
BBX 32 52 2 -5
BITMAP
00000018
0000003E
0000007F
000FF07F
003FFCFE
00FFFFFE
01FFFFFC
03FFFFFC
07FFFFF8
0FFE7FF0
1FF00FF8
1FE007FC
3FC00FFC
3F800FFC
7F801FFE
7F001F7E
7F003F7E
7E003E7F
FE007E7F
FE007C7F
FE00FC7F
FE01F87F
FC01F83F
FC03F03F
FC03F03F
FC07E03F
FC07E03F
FC0FC03F
FC0FC07F
FC1F807F
FE1F807F
FE3F007F
FE3E007F
7E7E007F
7E7C00FE
7FFC00FE
7FF800FE
3FF801FC
3FF003FC
1FF007FC
1FF80FF8
0FFFFFF0
0FFFFFF0
1FFFFFE0
1FFFFFC0
3FFFFF00
7F3FFE00
7F07F000
FE000000
FC000000
3C000000
08000000
ENDCHAR
STARTCHAR Ugrave
ENCODING 217
SWIDTH 598 0
DWIDTH 36 0
BBX 30 56 3 -1
BITMAP
00600000
00780000
00FF0000
01FFC000
03FFF000
00FFFC00
001FF800
0003F800
00007000
00001000
00000000
00000000
FE0000FC
FE0000FC
FE0000FC
FE0000FC
FE0000FC
FE0000FC
FE0000FC
FE0000FC
FE0000FC
FE0000FC
FE0000FC
FE0000FC
FE0000FC
FE0000FC
FE0000FC
FE0000FC
FE0000FC
FE0000FC
FE0000FC
FE0000FC
FE0000FC
FE0000FC
FE0000FC
FE0000FC
FE0000FC
FE0000FC
FE0000FC
FE0000FC
FE0000FC
FE0000FC
FE0001FC
FE0001FC
FE0001FC
7F0001FC
7F0003F8
7F8007F8
3FC00FF8
3FF03FF0
1FFFFFE0
0FFFFFC0
07FFFF80
03FFFF00
00FFFC00
001FE000
ENDCHAR
STARTCHAR Uacute
ENCODING 218
SWIDTH 598 0
DWIDTH 36 0
BBX 30 56 3 -1
BITMAP
00001800
00007C00
0001FE00
0007FE00
003FFF00
00FFFC00
007FE000
003F8000
003C0000
00000000
00000000
00000000
FE0000FC
FE0000FC
FE0000FC
FE0000FC
FE0000FC
FE0000FC
FE0000FC
FE0000FC
FE0000FC
FE0000FC
FE0000FC
FE0000FC
FE0000FC
FE0000FC
FE0000FC
FE0000FC
FE0000FC
FE0000FC
FE0000FC
FE0000FC
FE0000FC
FE0000FC
FE0000FC
FE0000FC
FE0000FC
FE0000FC
FE0000FC
FE0000FC
FE0000FC
FE0000FC
FE0001FC
FE0001FC
FE0001FC
7F0001FC
7F0003F8
7F8007F8
3FC00FF8
3FF03FF0
1FFFFFE0
0FFFFFC0
07FFFF80
03FFFF00
00FFFC00
001FE000
ENDCHAR
STARTCHAR Ucircumflex
ENCODING 219
SWIDTH 598 0
DWIDTH 36 0
BBX 30 56 3 -1
BITMAP
00030000
0007C000
000FE000
003FF000
007FFC00
00FFFE00
03FFFF00
07FCFF80
0FF87FC0
07E01F80
03800F00
01000200
FE0000FC
FE0000FC
FE0000FC
FE0000FC
FE0000FC
FE0000FC
FE0000FC
FE0000FC
FE0000FC
FE0000FC
FE0000FC
FE0000FC
FE0000FC
FE0000FC
FE0000FC
FE0000FC
FE0000FC
FE0000FC
FE0000FC
FE0000FC
FE0000FC
FE0000FC
FE0000FC
FE0000FC
FE0000FC
FE0000FC
FE0000FC
FE0000FC
FE0000FC
FE0000FC
FE0001FC
FE0001FC
FE0001FC
7F0001FC
7F0003F8
7F8007F8
3FC00FF8
3FF03FF0
1FFFFFE0
0FFFFFC0
07FFFF80
03FFFF00
00FFFC00
001FE000
ENDCHAR
STARTCHAR Udieresis
ENCODING 220
SWIDTH 598 0
DWIDTH 36 0
BBX 30 56 3 -1
BITMAP
01C00F00
07F01F80
0FF03FC0
0FF83FC0
0FF83FE0
0FF83FC0
0FF83FC0
07F01F80
03E00F00
00000000
00000000
00000000
FE0000FC
FE0000FC
FE0000FC
FE0000FC
FE0000FC
FE0000FC
FE0000FC
FE0000FC
FE0000FC
FE0000FC
FE0000FC
FE0000FC
FE0000FC
FE0000FC
FE0000FC
FE0000FC
FE0000FC
FE0000FC
FE0000FC
FE0000FC
FE0000FC
FE0000FC
FE0000FC
FE0000FC
FE0000FC
FE0000FC
FE0000FC
FE0000FC
FE0000FC
FE0000FC
FE0001FC
FE0001FC
FE0001FC
7F0001FC
7F0003F8
7F8007F8
3FC00FF8
3FF03FF0
1FFFFFE0
0FFFFFC0
07FFFF80
03FFFF00
00FFFC00
001FE000
ENDCHAR
STARTCHAR Yacute
ENCODING 221
SWIDTH 598 0
DWIDTH 36 0
BBX 34 55 1 0
BITMAP
0000060000
00001F0000
00007F8000
0001FF8000
000FFFC000
003FFF0000
001FF80000
000FE00000
000F000000
0000000000
0000000000
0000000000
FF00003FC0
7F00003F80
7F80003F80
3F80007F00
3FC0007F00
1FC000FE00
0FE000FE00
0FE001FC00
07F001FC00
07F803F800
03F803F800
03FC07F000
01FC07F000
01FE07E000
00FE0FE000
00FF0FC000
007F1FC000
007F9F8000
003FBF8000
003FFF0000
001FFF0000
000FFE0000
000FFE0000
0007FC0000
0007FC0000
0003F80000
0003F80000
0003F80000
0003F80000
0003F80000
0003F80000
0003F80000
0003F80000
0003F80000
0003F80000
0003F80000
0003F80000
0003F80000
0003F80000
0003F80000
0003F80000
0003F80000
0003F80000
ENDCHAR
STARTCHAR Thorn
ENCODING 222
SWIDTH 598 0
DWIDTH 36 0
BBX 29 43 4 0
BITMAP
FE000000
FE000000
FE000000
FC000000
FC000000
FC000000
FC000000
FC000000
FFFFE000
FFFFFC00
FFFFFF00
FFFFFF80
FFFFFFC0
FFFFFFE0
FC001FF0
FC000FF0
FC0007F0
FC0003F8
FC0003F8
FC0003F8
FC0003F8
FC0003F8
FC0003F8
FC0003F8
FC0007F8
FC000FF0
FC003FF0
FFFFFFE0
FFFFFFC0
FFFFFFC0
FFFFFF00
FFFFFE00
FFFFF000
FC000000
FC000000
FC000000
FC000000
FC000000
FC000000
FC000000
FC000000
FC000000
FC000000
ENDCHAR
STARTCHAR germandbls
ENCODING 223
SWIDTH 598 0
DWIDTH 36 0
BBX 30 48 4 -1
BITMAP
003F8000
01FFE000
07FFF800
0FFFFC00
1FFFFE00
1FFFFF00
3FE0FF80
7F803F80
7F001FC0
7F001FC0
FE000FC0
FE000FE0
FC000FE0
FC000FE0
FC000FE0
FC000FE0
FC001FC0
FC001FC0
FC003F80
FC00FF80
FC1FFF00
FC1FFE00
FC1FFE00
FC1FFF80
FC1FFFC0
FC01FFE0
FC001FE0
FC000FF0
FC0007F8
FC0003F8
FC0001F8
FC0001F8
FC0001FC
FC0001FC
FC0001FC
FC0001FC
FC0001FC
FC0001F8
FC0003F8
FC0007F8
FC100FF0
FC3C3FF0
FC7FFFE0
FC7FFFC0
FCFFFF80
FCFFFF00
FC3FFC00
000FF000
ENDCHAR
STARTCHAR agrave
ENCODING 224
SWIDTH 598 0
DWIDTH 36 0
BBX 29 51 3 -1
BITMAP
00020000
00070000
001F0000
003F8000
007F8000
003FC000
001FE000
001FE000
000FF000
0007F000
0003F800
0003FC00
0001F800
0000E000
00004000
00000000
00000000
001FF000
00FFFE00
03FFFF00
07FFFF80
1FFFFFC0
1FFFFFE0
0FE01FF0
0F8007F0
070007F0
020003F8
000003F8
000003F8
000003F8
000FFFF8
00FFFFF8
03FFFFF8
0FFFFFF8
1FFFFFF8
3FFFFFF8
7FC003F8
7F8003F8
FF0003F8
FE0003F8
FE0007F8
FE0007F8
FE000FF8
FF003FF8
7F807FF8
7FFFFFF8
3FFFFFF8
1FFFFFF8
0FFFFBF8
07FFE3F8
00FF0000
ENDCHAR
STARTCHAR aacute
ENCODING 225
SWIDTH 598 0
DWIDTH 36 0
BBX 29 51 3 -1
BITMAP
00004000
00006000
0000F800
0000FC00
0001FE00
0003FE00
0003FC00
0007F800
0007F000
000FF000
001FE000
001FC000
001F8000
00078000
00010000
00000000
00000000
001FF000
00FFFE00
03FFFF00
07FFFF80
1FFFFFC0
1FFFFFE0
0FE01FF0
0F8007F0
070007F0
020003F8
000003F8
000003F8
000003F8
000FFFF8
00FFFFF8
03FFFFF8
0FFFFFF8
1FFFFFF8
3FFFFFF8
7FC003F8
7F8003F8
FF0003F8
FE0003F8
FE0007F8
FE0007F8
FE000FF8
FF003FF8
7F807FF8
7FFFFFF8
3FFFFFF8
1FFFFFF8
0FFFFBF8
07FFE3F8
00FF0000
ENDCHAR
STARTCHAR acircumflex
ENCODING 226
SWIDTH 598 0
DWIDTH 36 0
BBX 29 49 3 -1
BITMAP
00038000
0007C000
0007E000
000FF000
001FF800
003FF800
003FFC00
007FFE00
00FEFF00
01FC7F80
03F83F80
01F01F80
00F01E00
00600C00
00000000
001FF000
00FFFE00
03FFFF00
07FFFF80
1FFFFFC0
1FFFFFE0
0FE01FF0
0F8007F0
070007F0
020003F8
000003F8
000003F8
000003F8
000FFFF8
00FFFFF8
03FFFFF8
0FFFFFF8
1FFFFFF8
3FFFFFF8
7FC003F8
7F8003F8
FF0003F8
FE0003F8
FE0007F8
FE0007F8
FE000FF8
FF003FF8
7F807FF8
7FFFFFF8
3FFFFFF8
1FFFFFF8
0FFFFBF8
07FFE3F8
00FF0000
ENDCHAR
STARTCHAR atilde
ENCODING 227
SWIDTH 598 0
DWIDTH 36 0
BBX 29 48 3 -1
BITMAP
007F0000
01FFC040
03FFF1F0
07FFFFF8
0FFFFFF0
0FFFFFE0
07C1FFC0
0380FF80
00001E00
00000000
00000000
00000000
00000000
00000000
001FF000
00FFFE00
03FFFF00
07FFFF80
1FFFFFC0
1FFFFFE0
0FE01FF0
0F8007F0
070007F0
020003F8
000003F8
000003F8
000003F8
000FFFF8
00FFFFF8
03FFFFF8
0FFFFFF8
1FFFFFF8
3FFFFFF8
7FC003F8
7F8003F8
FF0003F8
FE0003F8
FE0007F8
FE0007F8
FE000FF8
FF003FF8
7F807FF8
7FFFFFF8
3FFFFFF8
1FFFFFF8
0FFFFBF8
07FFE3F8
00FF0000
ENDCHAR
STARTCHAR adieresis
ENCODING 228
SWIDTH 598 0
DWIDTH 36 0
BBX 29 47 3 -1
BITMAP
01E00F80
03F01FC0
07F81FE0
07F83FE0
07FC3FE0
07F83FE0
07F81FE0
03F01FC0
01E00780
00000000
00000000
00000000
00000000
001FF000
00FFFE00
03FFFF00
07FFFF80
1FFFFFC0
1FFFFFE0
0FE01FF0
0F8007F0
070007F0
020003F8
000003F8
000003F8
000003F8
000FFFF8
00FFFFF8
03FFFFF8
0FFFFFF8
1FFFFFF8
3FFFFFF8
7FC003F8
7F8003F8
FF0003F8
FE0003F8
FE0007F8
FE0007F8
FE000FF8
FF003FF8
7F807FF8
7FFFFFF8
3FFFFFF8
1FFFFFF8
0FFFFBF8
07FFE3F8
00FF0000
ENDCHAR
STARTCHAR aring
ENCODING 229
SWIDTH 598 0
DWIDTH 36 0
BBX 29 50 3 -1
BITMAP
00030000
000FE000
003FF000
003FF800
007C7C00
00783C00
00783C00
00783C00
007C7C00
007FF800
003FF800
001FF000
0007C000
00000000
00000000
00000000
001FF000
00FFFE00
03FFFF00
07FFFF80
1FFFFFC0
1FFFFFE0
0FE01FF0
0F8007F0
070007F0
020003F8
000003F8
000003F8
000003F8
000FFFF8
00FFFFF8
03FFFFF8
0FFFFFF8
1FFFFFF8
3FFFFFF8
7FC003F8
7F8003F8
FF0003F8
FE0003F8
FE0007F8
FE0007F8
FE000FF8
FF003FF8
7F807FF8
7FFFFFF8
3FFFFFF8
1FFFFFF8
0FFFFBF8
07FFE3F8
00FF0000
ENDCHAR
STARTCHAR ae
ENCODING 230
SWIDTH 598 0
DWIDTH 36 0
BBX 36 34 0 -1
BITMAP
01FC01F800
07FF07FE00
0FFF8FFF00
1FFFDFFF80
3FFFFFFFC0
3FFFFFFFC0
1F07FF0FE0
0E03FE07E0
0C01FC07E0
0001FC03E0
0001F803E0
0001F803F0
0001F803F0
003FFFFFF0
01FFFFFFF0
07FFFFFFF0
0FFFFFFFF0
1FFFFFFFC0
3FFFF80000
3F81F80000
7F01F80000
7E01F80000
7E01F80000
FE01F80000
FE01FC0000
FE01FC0080
7E03FE01C0
7F03FF83E0
7F8FFFFFE0
3FFFFFFFF0
1FFFDFFFE0
0FFF8FFFC0
07FF07FF80
01FC00FC00
ENDCHAR
STARTCHAR ccedilla
ENCODING 231
SWIDTH 598 0
DWIDTH 36 0
BBX 29 46 4 -13
BITMAP
000FF800
007FFE00
01FFFF80
03FFFFE0
07FFFFF0
0FFFFFF0
1FF81FF8
3FE007F8
3FC003F0
7F8001E0
7F0001E0
FF0000C0
FE000000
FE000000
FE000000
FE000000
FE000000
FE000000
FE000000
FE000000
FE000000
FF000000
FF000000
7F800000
7F8000C0
3FC001E0
3FF007F0
1FFE3FF8
0FFFFFF8
07FFFFF0
03FFFFE0
01FFFF80
007FFE00
000FF000
0003C000
0003C000
0003E000
0003FC00
0003FE00
0003FF00
00E01F00
00F81F00
01FFFE00
00FFFC00
003FF800
0007C000
ENDCHAR
STARTCHAR egrave
ENCODING 232
SWIDTH 598 0
DWIDTH 36 0
BBX 29 51 3 -1
BITMAP
00020000
00070000
001F0000
003F8000
007F8000
003FC000
001FE000
001FE000
000FF000
0007F000
0003F800
0003FC00
0001F800
0000E000
00004000
00000000
00000000
001FE000
007FFC00
01FFFF00
03FFFF80
0FFFFFC0
0FFFFFE0
1FF01FE0
3FC00FF0
3F8007F0
7F0003F0
7F0003F8
7E0003F8
FE0001F8
FFFFFFF8
FFFFFFF8
FFFFFFF8
FFFFFFF8
FFFFFFF8
FFFFFFF8
FE000000
FE000000
FE000000
7F000000
7F000000
7F800080
3FC001C0
3FE003E0
1FF80FF0
0FFFFFF8
0FFFFFF0
03FFFFE0
01FFFF80
007FFE00
000FF800
ENDCHAR
STARTCHAR eacute
ENCODING 233
SWIDTH 598 0
DWIDTH 36 0
BBX 29 51 3 -1
BITMAP
00004000
00006000
0000F800
0000FC00
0001FE00
0003FE00
0003FC00
0007F800
0007F000
000FF000
001FE000
001FC000
001F8000
00078000
00010000
00000000
00000000
001FE000
007FFC00
01FFFF00
03FFFF80
0FFFFFC0
0FFFFFE0
1FF01FE0
3FC00FF0
3F8007F0
7F0003F0
7F0003F8
7E0003F8
FE0001F8
FFFFFFF8
FFFFFFF8
FFFFFFF8
FFFFFFF8
FFFFFFF8
FFFFFFF8
FE000000
FE000000
FE000000
7F000000
7F000000
7F800080
3FC001C0
3FE003E0
1FF80FF0
0FFFFFF8
0FFFFFF0
03FFFFE0
01FFFF80
007FFE00
000FF800
ENDCHAR
STARTCHAR ecircumflex
ENCODING 234
SWIDTH 598 0
DWIDTH 36 0
BBX 29 49 3 -1
BITMAP
00038000
0007C000
000FE000
001FE000
001FF000
003FF800
007FFC00
00FFFC00
01FCFE00
01FC7F00
03F87F80
03F03F00
00E01E00
00400C00
00000000
001FE000
007FFC00
01FFFF00
03FFFF80
0FFFFFC0
0FFFFFE0
1FF01FE0
3FC00FF0
3F8007F0
7F0003F0
7F0003F8
7E0003F8
FE0001F8
FFFFFFF8
FFFFFFF8
FFFFFFF8
FFFFFFF8
FFFFFFF8
FFFFFFF8
FE000000
FE000000
FE000000
7F000000
7F000000
7F800080
3FC001C0
3FE003E0
1FF80FF0
0FFFFFF8
0FFFFFF0
03FFFFE0
01FFFF80
007FFE00
000FF800
ENDCHAR
STARTCHAR edieresis
ENCODING 235
SWIDTH 598 0
DWIDTH 36 0
BBX 29 47 3 -1
BITMAP
03C00F00
07F01F80
0FF03FC0
0FF83FC0
0FF87FC0
0FF83FC0
0FF03FC0
07F01F80
03C00F00
00000000
00000000
00000000
00000000
001FE000
007FFC00
01FFFF00
03FFFF80
0FFFFFC0
0FFFFFE0
1FF01FE0
3FC00FF0
3F8007F0
7F0003F0
7F0003F8
7E0003F8
FE0001F8
FFFFFFF8
FFFFFFF8
FFFFFFF8
FFFFFFF8
FFFFFFF8
FFFFFFF8
FE000000
FE000000
FE000000
7F000000
7F000000
7F800080
3FC001C0
3FE003E0
1FF80FF0
0FFFFFF8
0FFFFFF0
03FFFFE0
01FFFF80
007FFE00
000FF800
ENDCHAR
STARTCHAR igrave
ENCODING 236
SWIDTH 598 0
DWIDTH 36 0
BBX 22 49 7 0
BITMAP
010000
038000
0F8000
1FC000
3FE000
1FE000
0FF000
0FF000
07F800
03FC00
01FC00
01FE00
00FC00
007000
000000
000000
000000
FFFE00
FFFE00
FFFE00
FFFE00
FFFE00
FFFE00
00FE00
00FE00
00FE00
00FE00
00FE00
00FE00
00FE00
00FE00
00FE00
00FE00
00FE00
00FE00
00FE00
00FE00
00FE00
00FE00
00FE00
00FE00
00FE00
00FE00
FFFFFC
FFFFFC
FFFFFC
FFFFFC
FFFFFC
FFFFFC
ENDCHAR
STARTCHAR iacute
ENCODING 237
SWIDTH 598 0
DWIDTH 36 0
BBX 22 49 7 0
BITMAP
000400
000700
000F80
001FE0
001FE0
003FC0
003FC0
007F80
00FF00
00FE00
01FE00
01FC00
00F800
007000
001000
000000
000000
FFFE00
FFFE00
FFFE00
FFFE00
FFFE00
FFFE00
00FE00
00FE00
00FE00
00FE00
00FE00
00FE00
00FE00
00FE00
00FE00
00FE00
00FE00
00FE00
00FE00
00FE00
00FE00
00FE00
00FE00
00FE00
00FE00
00FE00
FFFFFC
FFFFFC
FFFFFC
FFFFFC
FFFFFC
FFFFFC
ENDCHAR
STARTCHAR icircumflex
ENCODING 238
SWIDTH 598 0
DWIDTH 36 0
BBX 22 48 7 0
BITMAP
007000
00F800
01FC00
01FE00
03FE00
07FF00
0FFF80
1FFFC0
1FDFC0
3F8FE0
7F07F0
3E07F0
1C03C0
0C0180
000000
000000
FFFE00
FFFE00
FFFE00
FFFE00
FFFE00
FFFE00
00FE00
00FE00
00FE00
00FE00
00FE00
00FE00
00FE00
00FE00
00FE00
00FE00
00FE00
00FE00
00FE00
00FE00
00FE00
00FE00
00FE00
00FE00
00FE00
00FE00
FFFFFC
FFFFFC
FFFFFC
FFFFFC
FFFFFC
FFFFFC
ENDCHAR
STARTCHAR idieresis
ENCODING 239
SWIDTH 598 0
DWIDTH 36 0
BBX 22 46 7 0
BITMAP
3C01F0
7E03F8
FF03FC
FF07FC
FF87FC
FF07FC
FF03FC
7E03F8
3C00F0
000000
000000
000000
000000
000000
FFFE00
FFFE00
FFFE00
FFFE00
FFFE00
FFFE00
00FE00
00FE00
00FE00
00FE00
00FE00
00FE00
00FE00
00FE00
00FE00
00FE00
00FE00
00FE00
00FE00
00FE00
00FE00
00FE00
00FE00
00FE00
00FE00
00FE00
FFFFFC
FFFFFC
FFFFFC
FFFFFC
FFFFFC
FFFFFC
ENDCHAR
STARTCHAR eth
ENCODING 240
SWIDTH 598 0
DWIDTH 36 0
BBX 31 48 3 -1
BITMAP
007C0000
0FFF0000
01FF80E0
007FE7F0
003FFFF0
000FFFF0
003FFFF8
03FFFFC0
03FFFF00
01FFFF00
01FE7F80
01F03FC0
00001FC0
00000FE0
001FCFE0
007FFFF0
01FFFFF0
03FFFFF8
0FFFFFF8
0FFFFFF8
1FF83FF8
3FE00FFC
3FC007FC
7F8003FC
7F0003FC
FF0001FC
FE0001FC
FE0001FC
FE0000FE
FE0000FE
FE0000FC
FE0000FC
FE0000FC
FE0001FC
FE0001FC
FE0001FC
FF0001FC
7F0003F8
7F8003F8
7FC007F8
3FE00FF0
1FF83FF0
1FFFFFE0
0FFFFFC0
03FFFF80
01FFFF00
007FFC00
000FE000
ENDCHAR
STARTCHAR ntilde
ENCODING 241
SWIDTH 598 0
DWIDTH 36 0
BBX 28 47 4 0
BITMAP
01FC0000
07FF0100
0FFFC7C0
1FFFFFE0
3FFFFFC0
3FFFFF80
1F07FF00
0E03FE00
00007800
00000000
00000000
00000000
00000000
00000000
0003F000
FE1FFC00
FE3FFF00
FEFFFF80
FFFFFFC0
FFFFFFC0
FFFC7FE0
FFF01FE0
FFC00FE0
FF800FE0
FF0007E0
FF0007E0
FF0007E0
FE0007F0
FE0007F0
FE0007F0
FE0007F0
FE0007F0
FE0007F0
FE0007F0
FE0007F0
FE0007F0
FE0007F0
FE0007F0
FE0007F0
FE0007F0
FE0007F0
FE0007F0
FE0007F0
FE0007F0
FE0007F0
FE0007F0
FE0007F0
ENDCHAR
STARTCHAR ograve
ENCODING 242
SWIDTH 598 0
DWIDTH 36 0
BBX 31 51 3 -1
BITMAP
00020000
00070000
001F0000
003F8000
007F8000
003FC000
001FE000
001FE000
000FF000
0007F000
0003F800
0003FC00
0001F800
0000E000
00004000
00000000
00000000
001FE000
007FFC00
01FFFF00
03FFFF80
0FFFFFC0
0FFFFFE0
1FF83FF0
3FE01FF0
3FC007F8
7F8003F8
7F0003F8
FF0001FC
FE0001FC
FE0001FC
FE0001FC
FE0000FC
FE0000FC
FE0000FE
FE0000FC
FE0001FC
FE0001FC
FE0001FC
FF0001FC
7F0003FC
7F8003F8
7FC007F8
3FE00FF0
1FF83FF0
1FFFFFE0
0FFFFFC0
07FFFF80
01FFFF00
00FFFC00
001FE000
ENDCHAR
STARTCHAR oacute
ENCODING 243
SWIDTH 598 0
DWIDTH 36 0
BBX 31 51 3 -1
BITMAP
00004000
00006000
0000F800
0000FC00
0001FE00
0003FE00
0003FC00
0007F800
0007F000
000FF000
001FE000
001FC000
001F8000
00078000
00010000
00000000
00000000
001FE000
007FFC00
01FFFF00
03FFFF80
0FFFFFC0
0FFFFFE0
1FF83FF0
3FE01FF0
3FC007F8
7F8003F8
7F0003F8
FF0001FC
FE0001FC
FE0001FC
FE0001FC
FE0000FC
FE0000FC
FE0000FE
FE0000FC
FE0001FC
FE0001FC
FE0001FC
FF0001FC
7F0003FC
7F8003F8
7FC007F8
3FE00FF0
1FF83FF0
1FFFFFE0
0FFFFFC0
07FFFF80
01FFFF00
00FFFC00
001FE000
ENDCHAR
STARTCHAR ocircumflex
ENCODING 244
SWIDTH 598 0
DWIDTH 36 0
BBX 31 49 3 -1
BITMAP
00038000
0007C000
000FE000
001FE000
001FF000
003FF800
007FFC00
00FFFC00
01FCFE00
01FC7F00
03F87F80
03F03F00
00E01E00
00400C00
00000000
001FE000
007FFC00
01FFFF00
03FFFF80
0FFFFFC0
0FFFFFE0
1FF83FF0
3FE01FF0
3FC007F8
7F8003F8
7F0003F8
FF0001FC
FE0001FC
FE0001FC
FE0001FC
FE0000FC
FE0000FC
FE0000FE
FE0000FC
FE0001FC
FE0001FC
FE0001FC
FF0001FC
7F0003FC
7F8003F8
7FC007F8
3FE00FF0
1FF83FF0
1FFFFFE0
0FFFFFC0
07FFFF80
01FFFF00
00FFFC00
001FE000
ENDCHAR
STARTCHAR otilde
ENCODING 245
SWIDTH 598 0
DWIDTH 36 0
BBX 31 48 3 -1
BITMAP
007E0000
01FF80C0
07FFE1F0
0FFFFFF0
1FFFFFE0
1FFFFFC0
0F83FFC0
0300FF00
00003C00
00000000
00000000
00000000
00000000
00000000
001FE000
007FFC00
01FFFF00
03FFFF80
0FFFFFC0
0FFFFFE0
1FF83FF0
3FE01FF0
3FC007F8
7F8003F8
7F0003F8
FF0001FC
FE0001FC
FE0001FC
FE0001FC
FE0000FC
FE0000FC
FE0000FE
FE0000FC
FE0001FC
FE0001FC
FE0001FC
FF0001FC
7F0003FC
7F8003F8
7FC007F8
3FE00FF0
1FF83FF0
1FFFFFE0
0FFFFFC0
07FFFF80
01FFFF00
00FFFC00
001FE000
ENDCHAR
STARTCHAR odieresis
ENCODING 246
SWIDTH 598 0
DWIDTH 36 0
BBX 31 47 3 -1
BITMAP
03C00F00
07F03F80
0FF03FC0
0FF87FC0
0FF87FC0
0FF87FC0
0FF03FC0
07E01F80
03C00F00
00000000
00000000
00000000
00000000
001FE000
007FFC00
01FFFF00
03FFFF80
0FFFFFC0
0FFFFFE0
1FF83FF0
3FE01FF0
3FC007F8
7F8003F8
7F0003F8
FF0001FC
FE0001FC
FE0001FC
FE0001FC
FE0000FC
FE0000FC
FE0000FE
FE0000FC
FE0001FC
FE0001FC
FE0001FC
FF0001FC
7F0003FC
7F8003F8
7FC007F8
3FE00FF0
1FF83FF0
1FFFFFE0
0FFFFFC0
07FFFF80
01FFFF00
00FFFC00
001FE000
ENDCHAR
STARTCHAR divide
ENCODING 247
SWIDTH 598 0
DWIDTH 36 0
BBX 26 29 5 7
BITMAP
001E0000
003F8000
003F8000
007F8000
007F8000
003F8000
003F8000
001E0000
00000000
00000000
00000000
FFFFFFC0
FFFFFFC0
FFFFFFC0
FFFFFFC0
FFFFFFC0
FFFFFFC0
00000000
00000000
00000000
00000000
001E0000
003F8000
003F8000
007F8000
007F8000
003F8000
003F8000
001E0000
ENDCHAR
STARTCHAR oslash
ENCODING 248
SWIDTH 598 0
DWIDTH 36 0
BBX 31 42 3 -5
BITMAP
00000100
000003C0
000003F0
000007F0
001FE7E0
007FFFE0
01FFFFC0
03FFFFC0
07FFFFC0
0FFFFFE0
1FF87FF0
3FE07FF0
3FC0FFF8
7F80FFF8
7F01F9FC
FF01F9FC
FE03F1FC
FE03F1FC
FE07E0FC
FE07C0FC
FE0FC0FC
FE0F80FE
FE1F80FC
FE1F01FC
FE3F01FC
FE3E01FC
FE7E01FC
7F7C03FC
7FFC07F8
7FF807F8
3FF81FF0
1FF83FF0
1FFFFFE0
0FFFFFC0
0FFFFF80
1FFFFF00
1FFFFC00
3F9FE000
3F000000
3F000000
0E000000
02000000
ENDCHAR
STARTCHAR ugrave
ENCODING 249
SWIDTH 598 0
DWIDTH 36 0
BBX 28 50 4 -1
BITMAP
00040000
000E0000
003E0000
007F0000
00FF8000
007F8000
003FC000
003FC000
001FE000
000FF000
0007F000
0007F800
0003F000
0001C000
00000000
00000000
00000000
FE0007F0
FE0007F0
FE0007F0
FE0007F0
FE0007F0
FE0007F0
FE0007F0
FE0007F0
FE0007F0
FE0007F0
FE0007F0
FE0007F0
FE0007F0
FE0007F0
FE0007F0
FE0007F0
FE0007F0
FE0007F0
FE0007F0
FE0007F0
FE0007F0
FE000FF0
FE000FF0
FF001FF0
7F001FF0
7F803FF0
7FC0FFF0
3FFFFFF0
1FFFFFF0
1FFFFFF0
07FFE7F0
03FFC7F0
007F0000
ENDCHAR
STARTCHAR uacute
ENCODING 250
SWIDTH 598 0
DWIDTH 36 0
BBX 28 50 4 -1
BITMAP
00008000
0000E000
0001F000
0003FC00
0003FC00
0007F800
0007F800
000FF000
001FE000
001FC000
003FC000
003F8000
001F0000
000E0000
00020000
00000000
00000000
FE0007F0
FE0007F0
FE0007F0
FE0007F0
FE0007F0
FE0007F0
FE0007F0
FE0007F0
FE0007F0
FE0007F0
FE0007F0
FE0007F0
FE0007F0
FE0007F0
FE0007F0
FE0007F0
FE0007F0
FE0007F0
FE0007F0
FE0007F0
FE0007F0
FE000FF0
FE000FF0
FF001FF0
7F001FF0
7F803FF0
7FC0FFF0
3FFFFFF0
1FFFFFF0
1FFFFFF0
07FFE7F0
03FFC7F0
007F0000
ENDCHAR
STARTCHAR ucircumflex
ENCODING 251
SWIDTH 598 0
DWIDTH 36 0
BBX 28 49 4 -1
BITMAP
00070000
000F8000
001FC000
003FC000
003FE000
007FF000
00FFF800
01FFF800
03F9FC00
03F8FE00
07F0FF00
07E07E00
01C03C00
00801800
00000000
00000000
FE0007F0
FE0007F0
FE0007F0
FE0007F0
FE0007F0
FE0007F0
FE0007F0
FE0007F0
FE0007F0
FE0007F0
FE0007F0
FE0007F0
FE0007F0
FE0007F0
FE0007F0
FE0007F0
FE0007F0
FE0007F0
FE0007F0
FE0007F0
FE0007F0
FE000FF0
FE000FF0
FF001FF0
7F001FF0
7F803FF0
7FC0FFF0
3FFFFFF0
1FFFFFF0
1FFFFFF0
07FFE7F0
03FFC7F0
007F0000
ENDCHAR
STARTCHAR udieresis
ENCODING 252
SWIDTH 598 0
DWIDTH 36 0
BBX 28 47 4 -1
BITMAP
07801E00
0FE07F00
1FE07F80
1FF0FF80
1FF0FF80
1FF0FF80
1FE07F80
0FC03F00
07801E00
00000000
00000000
00000000
00000000
00000000
FE0007F0
FE0007F0
FE0007F0
FE0007F0
FE0007F0
FE0007F0
FE0007F0
FE0007F0
FE0007F0
FE0007F0
FE0007F0
FE0007F0
FE0007F0
FE0007F0
FE0007F0
FE0007F0
FE0007F0
FE0007F0
FE0007F0
FE0007F0
FE0007F0
FE000FF0
FE000FF0
FF001FF0
7F001FF0
7F803FF0
7FC0FFF0
3FFFFFF0
1FFFFFF0
1FFFFFF0
07FFE7F0
03FFC7F0
007F0000
ENDCHAR
STARTCHAR yacute
ENCODING 253
SWIDTH 598 0
DWIDTH 36 0
BBX 33 62 1 -13
BITMAP
0000100000
00001C0000
00003E0000
00007F8000
00007F8000
0000FF0000
0000FF0000
0001FE0000
0003FC0000
0003F80000
0007F80000
0007F00000
0003E00000
0001C00000
0000400000
0000000000
0000000000
3FC0003F80
3FC0003F80
3FC0007F00
1FC0007F00
1FC0007F00
0FE0007E00
0FE000FE00
07F000FC00
07F000FC00
07F001FC00
03F801F800
03F801F800
01F803F800
01FC03F000
01FC03F000
00FE07E000
00FE07E000
007E07E000
007F0FC000
003F0FC000
003F9F8000
003F9F8000
001F9F8000
001FFF0000
000FFF0000
000FFF0000
000FFE0000
0007FE0000
0007FC0000
0003FC0000
0003FC0000
0001F80000
0003F80000
0003F00000
0007F00000
0007F00000
180FE00000
380FE00000
3C3FE00000
7FFFC00000
7FFF800000
FFFF000000
7FFE000000
3FFC000000
07F0000000
ENDCHAR
STARTCHAR thorn
ENCODING 254
SWIDTH 598 0
DWIDTH 36 0
BBX 30 58 4 -12
BITMAP
FE000000
FE000000
FE000000
FE000000
FE000000
FE000000
FE000000
FE000000
FE000000
FE000000
FE000000
FE000000
FE000000
FE0FE000
FE3FFC00
FEFFFE00
FFFFFF80
FFFFFFC0
FFFFFFC0
FFE07FE0
FF801FF0
FF000FF0
FF0007F8
FE0007F8
FE0003F8
FE0003F8
FE0003F8
FE0003FC
FE0001FC
FE0001FC
FE0001FC
FE0001FC
FE0001F8
FE0003F8
FE0003F8
FE0003F8
FE0007F8
FF0007F0
FF000FF0
FF801FE0
FFF0FFE0
FFFFFFC0
FFFFFF80
FFFFFF00
FEFFFE00
FE7FFC00
FE0FE000
FE000000
FE000000
FE000000
FE000000
FE000000
FE000000
FE000000
FE000000
FE000000
FE000000
FE000000
ENDCHAR
STARTCHAR ydieresis
ENCODING 255
SWIDTH 598 0
DWIDTH 36 0
BBX 33 59 1 -13
BITMAP
00F003C000
01FC0FE000
03FC0FF000
03FE1FF000
03FE1FF000
03FE1FF000
03FC0FF000
01F807E000
00F003C000
0000000000
0000000000
0000000000
0000000000
0000000000
3FC0003F80
3FC0003F80
3FC0007F00
1FC0007F00
1FC0007F00
0FE0007E00
0FE000FE00
07F000FC00
07F000FC00
07F001FC00
03F801F800
03F801F800
01F803F800
01FC03F000
01FC03F000
00FE07E000
00FE07E000
007E07E000
007F0FC000
003F0FC000
003F9F8000
003F9F8000
001F9F8000
001FFF0000
000FFF0000
000FFF0000
000FFE0000
0007FE0000
0007FC0000
0003FC0000
0003FC0000
0001F80000
0003F80000
0003F00000
0007F00000
0007F00000
180FE00000
380FE00000
3C3FE00000
7FFFC00000
7FFF800000
FFFF000000
7FFE000000
3FFC000000
07F0000000
ENDCHAR
STARTCHAR Amacron
ENCODING 256
SWIDTH 585 0
DWIDTH 35 0
BBX 34 55 1 0
BITMAP
01FFFFE000
01FFFFE000
01FFFFE000
01FFFFE000
01FFFFE000
01FFFFE000
0000000000
0000000000
0000000000
0000000000
0000000000
0001800000
0001C00000
0003C00000
0003E00000
0003E00000
0007E00000
0007F00000
0007F00000
000FF00000
000FF80000
001FF80000
001FFC0000
001FFC0000
003FFC0000
003F7E0000
003F7E0000
007E7F0000
007E3F0000
007E3F0000
00FC3F8000
00FC1F8000
00FC1FC000
01F81FC000
01F80FC000
03F00FE000
03F007E000
03FFFFF000
07FFFFF000
07FFFFF000
07FFFFF800
0FFFFFF800
0FFFFFFC00
0FC001FC00
1FC001FC00
1F8000FE00
3F8000FE00
3F8000FE00
3F00007F00
7F00007F00
7F00003F80
7E00003F80
FE00003F80
FE00001FC0
FC00001FC0
ENDCHAR
STARTCHAR amacron
ENCODING 257
SWIDTH 585 0
DWIDTH 35 0
BBX 29 45 3 -1
BITMAP
07FFFF80
07FFFF80
07FFFF80
07FFFF80
07FFFF80
07FFFF80
00000000
00000000
00000000
00000000
00000000
001FF000
00FFFE00
03FFFF00
07FFFF80
1FFFFFC0
1FFFFFE0
0FE01FF0
0F8007F0
070007F0
020003F8
000003F8
000003F8
000003F8
000FFFF8
00FFFFF8
03FFFFF8
0FFFFFF8
1FFFFFF8
3FFFFFF8
7FC003F8
7F8003F8
FF0003F8
FE0003F8
FE0007F8
FE0007F8
FE000FF8
FF003FF8
7F807FF8
7FFFFFF8
3FFFFFF8
1FFFFFF8
0FFFFBF8
07FFE3F8
00FF0000
ENDCHAR
STARTCHAR Abreve
ENCODING 258
SWIDTH 598 0
DWIDTH 36 0
BBX 34 55 1 0
BITMAP
0080008000
01C001C000
03E003C000
07F007E000
07FE7FE000
03FFFFC000
01FFFF8000
00FFFF0000
003FFE0000
0007F00000
0000000000
0001800000
0001C00000
0003C00000
0003C00000
0003E00000
0007E00000
0007F00000
0007F00000
000FF00000
000FF80000
001FF80000
001FFC0000
001FFC0000
003FFC0000
003F7E0000
003F7E0000
007E7F0000
007E3F0000
007E3F0000
00FC3F8000
00FC1F8000
00FC1FC000
01F81FC000
01F80FC000
03F80FE000
03F007E000
03FFFFF000
07FFFFF000
07FFFFF000
07FFFFF800
0FFFFFF800
0FFFFFFC00
0FC001FC00
1FC001FC00
1F8000FE00
3F8000FE00
3F8000FE00
3F00007F00
7F00007F00
7F00003F80
7E00003F80
FE00003F80
FE00001FC0
FC00001FC0
ENDCHAR
STARTCHAR abreve
ENCODING 259
SWIDTH 598 0
DWIDTH 36 0
BBX 29 47 3 -1
BITMAP
01000100
03800180
03C007C0
07E00FC0
0FFC7FE0
07FFFFC0
03FFFF80
00FFFE00
007FFC00
000FE000
00000000
00000000
00000000
001FF000
00FFFE00
03FFFF00
07FFFF80
1FFFFFC0
1FFFFFE0
0FE01FF0
0F8007F0
070007F0
020003F8
000003F8
000003F8
000003F8
000FFFF8
00FFFFF8
03FFFFF8
0FFFFFF8
1FFFFFF8
3FFFFFF8
7FC003F8
7F8003F8
FF0003F8
FE0003F8
FE0007F8
FE0007F8
FE000FF8
FF003FF8
7F807FF8
7FFFFFF8
3FFFFFF8
1FFFFFF8
0FFFFBF8
07FFE3F8
00FF0000
ENDCHAR
STARTCHAR Aogonek
ENCODING 260
SWIDTH 598 0
DWIDTH 36 0
BBX 34 56 1 -12
BITMAP
0001800000
0001C00000
0003C00000
0003E00000
0003E00000
0007E00000
0007F00000
000FF00000
000FF80000
000FF80000
001FF80000
001FFC0000
001FFC0000
003FFE0000
003F7E0000
003F7E0000
007E7F0000
007E3F0000
007E3F0000
00FC3F8000
00FC1F8000
01FC1FC000
01F80FC000
01F80FC000
03F00FE000
03F007E000
03FFFFF000
07FFFFF000
07FFFFF000
07FFFFF800
0FFFFFF800
0FFFFFFC00
0FC001FC00
1FC001FC00
1F8000FE00
3F8000FE00
3F8000FF00
3F00007F00
7F00007F00
7F00003F80
7E00003F80
FE00003F80
FE00001FC0
FC00001FC0
0000000FC0
0000001F00
0000003E00
0000007C00
000000F800
000001F000
000001F040
000001F0C0
000001FFC0
000001FFC0
000000FF80
0000003F00
ENDCHAR
STARTCHAR aogonek
ENCODING 261
SWIDTH 598 0
DWIDTH 36 0
BBX 29 46 3 -13
BITMAP
001FF000
00FFFE00
03FFFF00
07FFFF80
1FFFFFC0
1FFFFFE0
0FE01FF0
0F8007F0
070007F0
020003F8
000003F8
000003F8
000003F8
000FFFF8
00FFFFF8
03FFFFF8
0FFFFFF8
1FFFFFF8
3FFFFFF8
7FC003F8
7F8003F8
FF0003F8
FE0003F8
FE0007F8
FE0007F8
FE000FF8
FF003FF8
7F807FF8
7FFFFFF8
3FFFFFF8
1FFFFFF8
0FFFFBF8
07FFE3F8
00FF03F0
000007E0
00000FC0
00001F80
00001F00
00003E00
00003E00
00007C10
00007E30
00007FF0
00003FF0
00001FF0
00000FC0
ENDCHAR
STARTCHAR Cacute
ENCODING 262
SWIDTH 598 0
DWIDTH 36 0
BBX 31 56 3 -1
BITMAP
00007000
0001F800
000FFC00
003FFE00
00FFFC00
00FFE000
00FF8000
007C0000
00600000
00000000
00000000
0007F800
003FFF00
00FFFF80
01FFFFE0
03FFFFF0
07FFFFF8
0FF80FFC
1FF003FC
1FE001FE
3FC000FE
3F8000FC
7F0000F0
7F000040
7E000000
FE000000
FE000000
FE000000
FC000000
FC000000
FC000000
FC000000
FC000000
FC000000
FC000000
FC000000
FC000000
FC000000
FE000000
FE000000
FE000000
FE000000
7F000000
7F000000
7F800000
3F800070
3FC000F8
1FE001FE
1FF003FC
0FFC0FFC
07FFFFF8
03FFFFF0
01FFFFE0
00FFFF80
003FFF00
0007F800
ENDCHAR
STARTCHAR cacute
ENCODING 263
SWIDTH 598 0
DWIDTH 36 0
BBX 29 51 4 -1
BITMAP
00008000
0000C000
0001F000
0001F800
0003FC00
0007FC00
0007F800
000FF000
000FE000
001FE000
003FC000
003F8000
003F0000
000F0000
00020000
00000000
00000000
000FF800
007FFE00
01FFFF80
03FFFFE0
07FFFFF0
0FFFFFF0
1FF81FF8
3FE007F8
3FC003F0
7F8001E0
7F0001E0
FF0000C0
FE000000
FE000000
FE000000
FE000000
FE000000
FE000000
FE000000
FE000000
FE000000
FF000000
FF000000
7F800000
7F8000C0
3FC001E0
3FF007F0
1FFE3FF8
0FFFFFF8
07FFFFF0
03FFFFE0
01FFFF80
007FFE00
000FF000
ENDCHAR
STARTCHAR Ccircumflex
ENCODING 264
SWIDTH 585 0
DWIDTH 35 0
BBX 31 56 3 -1
BITMAP
00038000
000FC000
001FF000
003FF800
00FFFC00
01FFFE00
03FFFF80
0FFC7FC0
07F03F80
03C00F00
01800600
0007FA00
003FFF00
00FFFF80
01FFFFE0
03FFFFF0
07FFFFF8
0FF80FFC
1FF003FC
1FE001FE
3FC000FE
3F8000FC
7F0000F0
7F000040
7E000000
FE000000
FE000000
FE000000
FC000000
FC000000
FC000000
FC000000
FC000000
FC000000
FC000000
FC000000
FC000000
FC000000
FE000000
FE000000
FE000000
FE000000
7F000000
7F000000
7F800000
3F800070
3FC000F8
1FE001FE
1FF003FC
0FFC0FFC
07FFFFF8
03FFFFF0
01FFFFE0
00FFFF80
003FFF00
0007F800
ENDCHAR
STARTCHAR ccircumflex
ENCODING 265
SWIDTH 585 0
DWIDTH 35 0
BBX 29 49 4 -1
BITMAP
000F0000
000F8000
001FC000
003FE000
007FE000
007FF000
00FFF800
01FFFC00
03F9FE00
07F0FE00
07E07F00
03E07E00
01C03800
00801000
00000000
000FF800
007FFE00
01FFFF80
03FFFFE0
07FFFFF0
0FFFFFF0
1FF81FF8
3FE007F8
3FC003F0
7F8001E0
7F0001E0
FF0000C0
FE000000
FE000000
FE000000
FE000000
FE000000
FE000000
FE000000
FE000000
FE000000
FF000000
FF000000
7F800000
7F8000C0
3FC001E0
3FF007F0
1FFE3FF8
0FFFFFF8
07FFFFF0
03FFFFE0
01FFFF80
007FFE00
000FF000
ENDCHAR
STARTCHAR Cdotaccent
ENCODING 266
SWIDTH 585 0
DWIDTH 35 0
BBX 31 56 3 -1
BITMAP
00078000
000FE000
001FE000
001FF000
001FF000
001FF000
001FE000
000FE000
00078000
00000000
00000000
0007F800
003FFF00
00FFFF80
01FFFFE0
03FFFFF0
07FFFFF8
0FF80FFC
1FF003FC
1FE001FE
3FC000FE
3F8000FC
7F0000F0
7F000040
7E000000
FE000000
FE000000
FE000000
FC000000
FC000000
FC000000
FC000000
FC000000
FC000000
FC000000
FC000000
FC000000
FC000000
FE000000
FE000000
FE000000
FE000000
7F000000
7F000000
7F800000
3F800070
3FC000F8
1FE001FE
1FF003FC
0FFC0FFC
07FFFFF8
03FFFFF0
01FFFFE0
00FFFF80
003FFF00
0007F800
ENDCHAR
STARTCHAR cdotaccent
ENCODING 267
SWIDTH 585 0
DWIDTH 35 0
BBX 29 47 4 -1
BITMAP
000F0000
001FC000
003FC000
003FE000
003FE000
003FE000
003FC000
001FC000
000F0000
00000000
00000000
00000000
00000000
000FF800
007FFE00
01FFFF80
03FFFFE0
07FFFFF0
0FFFFFF0
1FF81FF8
3FE007F8
3FC003F0
7F8001E0
7F0001E0
FF0000C0
FE000000
FE000000
FE000000
FE000000
FE000000
FE000000
FE000000
FE000000
FE000000
FF000000
FF000000
7F800000
7F8000C0
3FC001E0
3FF007F0
1FFE3FF8
0FFFFFF8
07FFFFF0
03FFFFE0
01FFFF80
007FFE00
000FF000
ENDCHAR
STARTCHAR Ccaron
ENCODING 268
SWIDTH 598 0
DWIDTH 36 0
BBX 31 58 3 -1
BITMAP
00E00180
01F003C0
01FC0FE0
03FE3FE0
01FFFFC0
00FFFF80
003FFE00
001FFC00
000FF800
0007F000
0001C000
00000000
00000000
0007F800
003FFF00
00FFFF80
01FFFFE0
03FFFFF0
07FFFFF8
0FF80FFC
1FF003FC
1FE001FE
3FC000FE
3F8000FC
7F0000F0
7F000040
7E000000
FE000000
FE000000
FE000000
FC000000
FC000000
FC000000
FC000000
FC000000
FC000000
FC000000
FC000000
FC000000
FC000000
FE000000
FE000000
FE000000
FE000000
7F000000
7F000000
7F800000
3F800070
3FC000F8
1FE001FE
1FF003FC
0FFC0FFC
07FFFFF8
03FFFFF0
01FFFFE0
00FFFF80
003FFF00
0007F800
ENDCHAR
STARTCHAR ccaron
ENCODING 269
SWIDTH 598 0
DWIDTH 36 0
BBX 29 52 4 -1
BITMAP
00400800
01C01C00
03E03E00
07F07F00
07F87E00
03F8FE00
01FDFC00
00FFF800
00FFF000
007FE000
003FE000
001FC000
000F8000
000F0000
00000000
00000000
00000000
00000000
000FF800
007FFE00
01FFFF80
03FFFFE0
07FFFFF0
0FFFFFF0
1FF81FF8
3FE007F8
3FC003F0
7F8001E0
7F0001E0
FF0000C0
FE000000
FE000000
FE000000
FE000000
FE000000
FE000000
FE000000
FE000000
FE000000
FF000000
FF000000
7F800000
7F8000C0
3FC001E0
3FF007F0
1FFE3FF8
0FFFFFF8
07FFFFF0
03FFFFE0
01FFFF80
007FFE00
000FF000
ENDCHAR
STARTCHAR Dcaron
ENCODING 270
SWIDTH 598 0
DWIDTH 36 0
BBX 31 56 3 0
BITMAP
07000C00
07801E00
0FE07F00
1FF1FF00
0FFFFE00
07FFFC00
01FFF000
00FFE000
007FC000
003F8000
000E0000
00000000
00000000
FFFFC000
FFFFF000
FFFFFC00
FFFFFF00
FFFFFF80
FFFFFFC0
FE00FFC0
FE003FE0
FE001FF0
FE000FF0
FE0007F8
FE0003F8
FE0003F8
FE0003FC
FE0001FC
FE0001FC
FE0001FC
FE0001FC
FE0000FC
FE0000FC
FE0000FC
FE0000FE
FE0000FE
FE0000FC
FE0000FC
FE0000FC
FE0001FC
FE0001FC
FE0001FC
FE0001F8
FE0003F8
FE0003F8
FE0007F0
FE000FF0
FE001FE0
FE003FE0
FE00FFC0
FFFFFF80
FFFFFF00
FFFFFE00
FFFFFC00
FFFFF000
FFFF8000
ENDCHAR
STARTCHAR dcaron
ENCODING 271
SWIDTH 598 0
DWIDTH 36 0
BBX 37 48 0 -1
BITMAP
00000003C0
000007F7E0
000007FFF0
000007FFF0
000007FFF8
000007FFF8
000007F7F0
000007F1F0
000007F1F0
000007F3E0
000007F3E0
000007F7C0
000007FF80
000007FF00
003F07F600
01FFE7F000
03FFF7F000
07FFFFF000
0FFFFFF000
1FFFFFF000
3FE0FFF000
3FC03FF000
7F801FF000
7F000FF000
7E000FF000
FE000FF000
FE0007F000
FE0007F000
FC0007F000
FC0007F000
FC0007F000
FC0007F000
FC0007F000
FE0007F000
FE0007F000
FE000FF000
FE000FF000
7F000FF000
7F001FF000
7F803FF000
3FC07FF000
3FF1FFF000
1FFFFFF000
0FFFFFF000
0FFFF7F000
03FFC7F000
01FF87F000
007C000000
ENDCHAR
STARTCHAR Dcroat
ENCODING 272
SWIDTH 598 0
DWIDTH 36 0
BBX 32 43 2 0
BITMAP
1FFFE000
1FFFFC00
1FFFFF00
1FFFFF80
1FFFFFC0
1FFFFFE0
1F803FF0
1F800FF0
1F8007F8
1F8003FC
1F8001FC
1F8001FC
1F8000FE
1F8000FE
1F8000FE
1F80007E
1F80007F
FFFF807F
FFFF807F
FFFF807F
FFFF807F
FFFF807F
FFFF807F
1F80007F
1F80007F
1F80007F
1F80007E
1F80007E
1F8000FE
1F8000FE
1F8000FC
1F8001FC
1F8003FC
1F8003F8
1F8007F8
1F800FF0
1F803FE0
1FFFFFE0
1FFFFFC0
1FFFFF80
1FFFFE00
1FFFFC00
1FFFE000
ENDCHAR
STARTCHAR dcroat
ENCODING 273
SWIDTH 598 0
DWIDTH 36 0
BBX 33 47 2 -1
BITMAP
000001FC00
000001FC00
000001FC00
000001FC00
00003FFF80
00003FFF80
00003FFF80
00003FFF80
00003FFF80
00003FFF80
000001FC00
000001FC00
000001FC00
001FC1FC00
00FFF1FC00
01FFFDFC00
07FFFFFC00
0FFFFFFC00
1FFFFFFC00
1FF03FFC00
3FC00FFC00
3F8007FC00
7F0007FC00
7F0003FC00
7F0003FC00
7E0003FC00
7E0001FC00
FE0001FC00
FE0001FC00
FE0001FC00
FE0001FC00
FE0001FC00
FE0001FC00
7E0003FC00
7F0003FC00
7F0003FC00
7F0003FC00
7F8007FC00
3FC00FFC00
3FE01FFC00
1FF87FFC00
1FFFFFFC00
0FFFFFFC00
07FFFDFC00
03FFF9FC00
00FFF1FC00
003F800000
ENDCHAR
STARTCHAR Emacron
ENCODING 274
SWIDTH 585 0
DWIDTH 35 0
BBX 28 55 4 0
BITMAP
0FFFFF00
0FFFFF00
0FFFFF00
0FFFFF00
0FFFFF00
0FFFFF00
00000000
00000000
00000000
00000000
00000000
00000000
FFFFFFF0
FFFFFFF0
FFFFFFF0
FFFFFFF0
FFFFFFF0
FFFFFFF0
FC000000
FC000000
FC000000
FC000000
FC000000
FC000000
FC000000
FC000000
FC000000
FC000000
FC000000
FC000000
FFFFFF00
FFFFFF00
FFFFFF00
FFFFFF00
FFFFFF00
FFFFFF00
FC000000
FC000000
FC000000
FC000000
FC000000
FC000000
FC000000
FC000000
FC000000
FC000000
FC000000
FC000000
FC000000
FFFFFFF0
FFFFFFF0
FFFFFFF0
FFFFFFF0
FFFFFFF0
FFFFFFF0
ENDCHAR
STARTCHAR emacron
ENCODING 275
SWIDTH 585 0
DWIDTH 35 0
BBX 29 45 3 -1
BITMAP
07FFFF80
07FFFF80
07FFFF80
07FFFF80
07FFFF80
07FFFF80
00000000
00000000
00000000
00000000
00000000
001FE000
007FFC00
01FFFF00
03FFFF80
0FFFFFC0
0FFFFFE0
1FF01FE0
3FC00FF0
3F8007F0
7F0003F0
7F0003F8
7E0003F8
FE0001F8
FFFFFFF8
FFFFFFF8
FFFFFFF8
FFFFFFF8
FFFFFFF8
FFFFFFF8
FE000000
FE000000
FE000000
7F000000
7F000000
7F800080
3FC001C0
3FE003E0
1FF80FF0
0FFFFFF8
0FFFFFF0
03FFFFE0
01FFFF80
007FFE00
000FF800
ENDCHAR
STARTCHAR Ebreve
ENCODING 276
SWIDTH 585 0
DWIDTH 35 0
BBX 28 55 4 0
BITMAP
04000400
0E000E00
0E001E00
1F803F00
3FE0FF80
1FFFFF00
0FFFFE00
07FFFC00
03FFF000
007FC000
00000000
00000000
FFFFFFF0
FFFFFFF0
FFFFFFF0
FFFFFFF0
FFFFFFF0
FFFFFFF0
FC000000
FC000000
FC000000
FC000000
FC000000
FC000000
FC000000
FC000000
FC000000
FC000000
FC000000
FC000000
FFFFFF00
FFFFFF00
FFFFFF00
FFFFFF00
FFFFFF00
FFFFFF00
FC000000
FC000000
FC000000
FC000000
FC000000
FC000000
FC000000
FC000000
FC000000
FC000000
FC000000
FC000000
FC000000
FFFFFFF0
FFFFFFF0
FFFFFFF0
FFFFFFF0
FFFFFFF0
FFFFFFF0
ENDCHAR
STARTCHAR ebreve
ENCODING 277
SWIDTH 585 0
DWIDTH 35 0
BBX 29 47 3 -1
BITMAP
01000100
03800180
03C007C0
07E00FC0
0FFC7FE0
07FFFFC0
03FFFF80
00FFFE00
007FFC00
000FE000
00000000
00000000
00000000
001FE000
007FFC00
01FFFF00
03FFFF80
0FFFFFC0
0FFFFFE0
1FF01FE0
3FC00FF0
3F8007F0
7F0003F0
7F0003F8
7E0003F8
FE0001F8
FFFFFFF8
FFFFFFF8
FFFFFFF8
FFFFFFF8
FFFFFFF8
FFFFFFF8
FE000000
FE000000
FE000000
7F000000
7F000000
7F800080
3FC001C0
3FE003E0
1FF80FF0
0FFFFFF8
0FFFFFF0
03FFFFE0
01FFFF80
007FFE00
000FF800
ENDCHAR
STARTCHAR Edotaccent
ENCODING 278
SWIDTH 585 0
DWIDTH 35 0
BBX 28 54 4 0
BITMAP
000F0000
001FC000
003FC000
003FE000
003FE000
003FE000
003FC000
001FC000
000F0000
00000000
00000000
FFFFFFF0
FFFFFFF0
FFFFFFF0
FFFFFFF0
FFFFFFF0
FFFFFFF0
FC000000
FC000000
FC000000
FC000000
FC000000
FC000000
FC000000
FC000000
FC000000
FC000000
FC000000
FC000000
FFFFFF00
FFFFFF00
FFFFFF00
FFFFFF00
FFFFFF00
FFFFFF00
FC000000
FC000000
FC000000
FC000000
FC000000
FC000000
FC000000
FC000000
FC000000
FC000000
FC000000
FC000000
FC000000
FFFFFFF0
FFFFFFF0
FFFFFFF0
FFFFFFF0
FFFFFFF0
FFFFFFF0
ENDCHAR
STARTCHAR edotaccent
ENCODING 279
SWIDTH 585 0
DWIDTH 35 0
BBX 29 47 3 -1
BITMAP
00078000
000FE000
001FE000
001FF000
001FF000
001FF000
001FE000
000FE000
00078000
00000000
00000000
00000000
00000000
001FE000
007FFC00
01FFFF00
03FFFF80
0FFFFFC0
0FFFFFE0
1FF01FE0
3FC00FF0
3F8007F0
7F0003F0
7F0003F8
7E0003F8
FE0001F8
FFFFFFF8
FFFFFFF8
FFFFFFF8
FFFFFFF8
FFFFFFF8
FFFFFFF8
FE000000
FE000000
FE000000
7F000000
7F000000
7F800080
3FC001C0
3FE003E0
1FF80FF0
0FFFFFF8
0FFFFFF0
03FFFFE0
01FFFF80
007FFE00
000FF800
ENDCHAR
STARTCHAR Eogonek
ENCODING 280
SWIDTH 598 0
DWIDTH 36 0
BBX 28 55 4 -12
BITMAP
FFFFFFF0
FFFFFFF0
FFFFFFF0
FFFFFFF0
FFFFFFF0
FFFFFFF0
FC000000
FC000000
FC000000
FC000000
FC000000
FC000000
FC000000
FC000000
FC000000
FC000000
FC000000
FC000000
FFFFFF00
FFFFFF00
FFFFFF00
FFFFFF00
FFFFFF00
FFFFFF00
FC000000
FC000000
FC000000
FC000000
FC000000
FC000000
FC000000
FC000000
FC000000
FC000000
FC000000
FC000000
FC000000
FFFFFFF0
FFFFFFF0
FFFFFFF0
FFFFFFF0
FFFFFFF0
FFFFFFF0
000007E0
00000FC0
00001F80
00003F00
00003E00
00007C00
00007C00
0000FC60
00007FE0
00007FE0
00003FE0
00001F80
ENDCHAR
STARTCHAR eogonek
ENCODING 281
SWIDTH 598 0
DWIDTH 36 0
BBX 29 45 3 -12
BITMAP
001FE000
007FFC00
01FFFF00
03FFFF80
0FFFFFC0
0FFFFFE0
1FF01FE0
3FC00FF0
3F8007F0
7F0003F0
7F0003F8
7E0003F8
FE0001F8
FFFFFFF8
FFFFFFF8
FFFFFFF8
FFFFFFF8
FFFFFFF8
FFFFFFF8
FE000000
FE000000
FE000000
7F000000
7F000000
7F800080
3FC001C0
3FE003E0
1FF80FF0
0FFFFFF8
0FFFFFF0
03FFFFE0
01FFFFC0
007FFF80
000FFF00
00001F00
00003E00
00007C00
00007800
0000F800
0000F800
0000FC20
00007FE0
00007FE0
00003FE0
00000FC0
ENDCHAR
STARTCHAR Ecaron
ENCODING 282
SWIDTH 598 0
DWIDTH 36 0
BBX 28 56 4 0
BITMAP
03800600
07C01F00
0FF03F80
0FF8FF80
07FFFF00
03FFFE00
00FFF800
007FF000
003FE000
001F8000
00070000
00000000
00000000
FFFFFFF0
FFFFFFF0
FFFFFFF0
FFFFFFF0
FFFFFFF0
FFFFFFF0
FC000000
FC000000
FC000000
FC000000
FC000000
FC000000
FC000000
FC000000
FC000000
FC000000
FC000000
FC000000
FFFFFF00
FFFFFF00
FFFFFF00
FFFFFF00
FFFFFF00
FFFFFF00
FC000000
FC000000
FC000000
FC000000
FC000000
FC000000
FC000000
FC000000
FC000000
FC000000
FC000000
FC000000
FC000000
FFFFFFF0
FFFFFFF0
FFFFFFF0
FFFFFFF0
FFFFFFF0
FFFFFFF0
ENDCHAR
STARTCHAR ecaron
ENCODING 283
SWIDTH 598 0
DWIDTH 36 0
BBX 29 52 3 -1
BITMAP
00200400
00E00E00
01F01F00
03F83F80
03FC3F00
01FC7F00
00FEFE00
007FFC00
007FF800
003FF000
001FF000
000FE000
0007C000
00078000
00000000
00000000
00000000
00000000
001FE000
007FFC00
01FFFF00
03FFFF80
0FFFFFC0
0FFFFFE0
1FF01FE0
3FC00FF0
3F8007F0
7F0003F0
7F0003F8
7E0003F8
FE0001F8
FFFFFFF8
FFFFFFF8
FFFFFFF8
FFFFFFF8
FFFFFFF8
FFFFFFF8
FE000000
FE000000
FE000000
7F000000
7F000000
7F800080
3FC001C0
3FE003E0
1FF80FF0
0FFFFFF8
0FFFFFF0
03FFFFE0
01FFFF80
007FFE00
000FF800
ENDCHAR
STARTCHAR Gcircumflex
ENCODING 284
SWIDTH 585 0
DWIDTH 35 0
BBX 31 56 2 -1
BITMAP
0001C000
0007E000
000FF800
001FFC00
007FFE00
00FFFF00
01FFFFC0
07FE3FE0
03F81FC0
01E00780
00C00300
0003FD00
001FFF00
007FFFC0
00FFFFF0
03FFFFF8
07FFFFFC
07FE07FC
0FF801FE
1FE000FE
1FC0007C
3FC00078
3F800030
3F000000
7F000000
7F000000
7E000000
7E000000
FE000000
FE000000
FE000000
FE000000
FE000000
FE007FFE
FE007FFE
FE007FFE
FE007FFE
FE007FFE
7E007FFE
7E00007E
7F00007E
7F00007E
7F00007E
3F80007E
3F80007E
3FC0007E
1FE0007E
1FF0007E
0FF800FE
07FE07FE
07FFFFFE
03FFFFFE
01FFFFFC
007FFFF0
001FFFC0
0003FC00
ENDCHAR
STARTCHAR gcircumflex
ENCODING 285
SWIDTH 585 0
DWIDTH 35 0
BBX 33 60 2 -13
BITMAP
0003C00000
0003E00000
0007F00000
000FF80000
001FF80000
001FFC0000
003FFE0000
007FFF0000
00FE7F8000
01FC3F8000
01F81FC000
00F81F8000
00700E0000
0020040000
001FC01F00
007FF0FF00
01FFFDFF00
03FFFFFF00
07FFFFFF00
0FF07FFF80
1FC03FE000
1F801FC000
3F800FC000
3F000FC000
3F000FE000
3F000FE000
3F000FE000
3F800FE000
3F801FC000
1FC01FC000
1FF07FC000
0FFFFF8000
0FFFFF0000
07FFFE0000
07FFFC0000
07FFF80000
0FDFC00000
1FC0000000
1F80000000
1FC0000000
1FFFFF0000
1FFFFFE000
0FFFFFF000
07FFFFF800
0FFFFFFC00
1F8007FC00
3F0000FE00
7E0000FE00
7E00007E00
FE00007E00
FE0000FE00
FE0000FE00
FF0001FC00
7FC007FC00
7FFFFFF800
3FFFFFF000
1FFFFFE000
0FFFFFC000
03FFFF0000
003FF80000
ENDCHAR
STARTCHAR Gbreve
ENCODING 286
SWIDTH 598 0
DWIDTH 36 0
BBX 31 57 2 -1
BITMAP
00800000
00C000C0
01E001E0
03F007E0
07FC1FF0
03FFFFE0
01FFFFC0
00FFFF80
007FFE00
000FF800
00000000
00000000
0003FC00
001FFF00
007FFFC0
00FFFFF0
03FFFFF8
07FFFFFC
07FE07FC
0FF801FE
1FE000FE
1FC0007C
3FC00078
3F800030
3F000000
7F000000
7F000000
7E000000
7E000000
FE000000
FE000000
FE000000
FE000000
FE000000
FE007FFE
FE007FFE
FE007FFE
FE007FFE
FE007FFE
7E007FFE
7E00007E
7F00007E
7F00007E
7F00007E
3F80007E
3F80007E
3FC0007E
1FE0007E
1FF0007E
0FF800FE
07FE07FE
07FFFFFE
03FFFFFE
01FFFFFC
007FFFF0
001FFFC0
0003FC00
ENDCHAR
STARTCHAR gbreve
ENCODING 287
SWIDTH 598 0
DWIDTH 36 0
BBX 33 59 2 -13
BITMAP
0080000000
00C000C000
01E001E000
03F007E000
07FC1FF000
03FFFFE000
01FFFFC000
00FFFF8000
007FFE0000
000FF80000
0000000000
0000000000
0000000000
001FC01F00
007FF0FF00
01FFFDFF00
03FFFFFF00
07FFFFFF00
0FF07FFF80
1FC03FE000
1FC01FC000
3F800FC000
3F800FC000
3F000FE000
3F000FE000
3F000FE000
3F800FE000
3F800FC000
3FC01FC000
1FC03FC000
1FF07F8000
0FFFFF8000
07FFFF0000
03FFFE0000
07FFFC0000
0FFFF00000
0FCF800000
1F80000000
1F80000000
1FC0000000
1FFFFF0000
1FFFFFE000
0FFFFFF000
07FFFFF800
0FFFFFFC00
1F800FFE00
3F0000FE00
7E00007E00
7E00007E00
FE00007E00
FE0000FE00
FF0001FC00
7FC007FC00
7FFFFFF800
3FFFFFF800
1FFFFFF000
0FFFFFC000
03FFFF0000
003FF80000
ENDCHAR
STARTCHAR Gdotaccent
ENCODING 288
SWIDTH 585 0
DWIDTH 35 0
BBX 31 55 2 -1
BITMAP
0003C000
0007F000
000FF000
000FF800
000FF800
000FF800
000FF000
0007F000
0003C000
00000000
0003FC00
001FFF00
007FFFC0
00FFFFF0
03FFFFF8
07FFFFFC
07FE07FC
0FF801FE
1FE000FE
1FC0007C
3FC00078
3F800030
3F000000
7F000000
7F000000
7E000000
7E000000
FE000000
FE000000
FE000000
FE000000
FE000000
FE007FFE
FE007FFE
FE007FFE
FE007FFE
FE007FFE
7E007FFE
7E00007E
7F00007E
7F00007E
7F00007E
3F80007E
3F80007E
3FC0007E
1FE0007E
1FF0007E
0FF800FE
07FE07FE
07FFFFFE
03FFFFFE
01FFFFFC
007FFFF0
001FFFC0
0003FC00
ENDCHAR
STARTCHAR gdotaccent
ENCODING 289
SWIDTH 585 0
DWIDTH 35 0
BBX 33 59 2 -13
BITMAP
0003C00000
0007F00000
000FF00000
000FF80000
000FF80000
000FF80000
000FF00000
0007F00000
0003C00000
0000000000
0000000000
0000000000
0000000000
001FC01F00
00FFF0FF00
01FFFDFF00
03FFFFFF00
07FFFFFF00
0FF07FFF80
1FC03FE000
1F801FC000
3F800FC000
3F800FC000
3F000FE000
3F000FE000
3F000FE000
3F800FE000
3F800FC000
3FC01FC000
1FC03FC000
1FF07F8000
0FFFFF8000
07FFFF0000
03FFFE0000
07FFFC0000
0FFFF00000
0FCF800000
1F80000000
1F80000000
1FC0000000
1FFFFF0000
1FFFFFE000
0FFFFFF000
07FFFFF800
0FFFFFFC00
1F800FFE00
3F0000FE00
7E00007E00
7E00007E00
FE00007E00
FE0000FE00
FF0001FC00
7FC007FC00
7FFFFFF800
3FFFFFF800
1FFFFFF000
0FFFFFC000
03FFFF0000
003FF80000
ENDCHAR
STARTCHAR Gcommaaccent
ENCODING 290
SWIDTH 585 0
DWIDTH 35 0
BBX 31 56 2 -12
BITMAP
0003FC00
001FFF00
007FFFC0
00FFFFF0
03FFFFF8
07FFFFFC
07FE07FC
0FF801FE
1FE000FE
1FC0007C
3FC00078
3F800030
3F000000
7F000000
7F000000
7E000000
7E000000
FE000000
FE000000
FE000000
FE000000
FE000000
FE007FFE
FE007FFE
FE007FFE
FE007FFE
FE007FFE
7E007FFE
7E00007E
7F00007E
7F00007E
7F00007E
3F80007E
3F80007E
3FC0007E
1FE0007E
1FF0007E
0FF800FE
07FE07FE
07FFFFFE
03FFFFFE
01FFFFFC
007FFFF0
001FFFC0
0007FC00
0007F000
0007F000
0007E000
0007E000
0007E000
0007C000
0007C000
0007C000
0007C000
000F8000
000F8000
ENDCHAR
STARTCHAR gcommaaccent
ENCODING 291
SWIDTH 585 0
DWIDTH 35 0
BBX 33 58 2 -13
BITMAP
0003E00000
0003E00000
0003E00000
0007E00000
0007E00000
0007E00000
0007E00000
000FE00000
000FE00000
000FE00000
001FE00000
001FE00000
001FC03F00
00FFF8FF00
01FFFFFF00
03FFFFFF00
07FFFFFF00
0FF07FFF80
1FC03FC000
1F801FC000
3F800FC000
3F000FC000
3F000FE000
3F000FE000
3F000FE000
3F800FE000
3F801FC000
1FC01FC000
1FE07FC000
0FFFFF8000
0FFFFF0000
07FFFE0000
07FFFC0000
07FFF80000
0FDFC00000
0FC0000000
1F80000000
1F80000000
1FC0000000
1FFFFF0000
1FFFFFE000
0FFFFFF000
07FFFFF800
0FFFFFFC00
1F800FFE00
3F0000FE00
7E00007E00
7E00007E00
FE00007E00
FE0000FE00
FF0001FC00
7FC007FC00
7FFFFFF800
3FFFFFF800
1FFFFFF000
0FFFFFC000
03FFFF0000
003FF80000
ENDCHAR
STARTCHAR Hcircumflex
ENCODING 292
SWIDTH 585 0
DWIDTH 35 0
BBX 30 55 3 0
BITMAP
00030000
0007C000
000FE000
003FF000
007FFC00
00FFFE00
03FFFF00
07FCFF80
0FF87FC0
07E01F80
03800F00
01000200
FF0003F8
FF0003FC
FE0003F8
FE0003F8
FE0003F8
FE0003F8
FE0003F8
FE0003F8
FE0003F8
FE0003F8
FE0003F8
FE0003F8
FE0003F8
FE0003F8
FE0003F8
FE0003F8
FE0003F8
FFFFFFF8
FFFFFFF8
FFFFFFF8
FFFFFFF8
FFFFFFF8
FFFFFFF8
FE0003F8
FE0003F8
FE0003F8
FE0003F8
FE0003F8
FE0003F8
FE0003F8
FE0003F8
FE0003F8
FE0003F8
FE0003F8
FE0003F8
FE0003F8
FE0003F8
FE0003F8
FE0003F8
FE0003F8
FE0003F8
FE0003F8
FE0003F8
ENDCHAR
STARTCHAR hcircumflex
ENCODING 293
SWIDTH 585 0
DWIDTH 35 0
BBX 27 55 5 0
BITMAP
000C0000
001F0000
003F8000
00FFC000
01FFF000
03FFF800
0FFFFC00
1FF3FE00
3FE1FF00
FF807E00
FE003C00
FC000800
FC000000
FC000000
FC000000
FC000000
FC000000
FC000000
FC000000
FC000000
FC000000
FC000000
FC07E000
FC3FFC00
FC7FFE00
FCFFFF00
FDFFFF80
FFFFFF80
FFF8FFC0
FFE03FC0
FF801FC0
FF001FC0
FE000FE0
FE000FE0
FE000FE0
FE000FE0
FC000FE0
FC000FE0
FC000FE0
FC000FE0
FC000FE0
FC000FE0
FC000FE0
FC000FE0
FC000FE0
FC000FE0
FC000FE0
FC000FE0
FC000FE0
FC000FE0
FC000FE0
FC000FE0
FC000FE0
FC000FE0
FC000FE0
ENDCHAR
STARTCHAR Hbar
ENCODING 294
SWIDTH 598 0
DWIDTH 36 0
BBX 34 43 1 0
BITMAP
3FC000FE00
3FC000FF00
3F8000FE00
3F8000FE00
3F8000FE00
3F8000FE00
FFFFFFFFC0
FFFFFFFFC0
FFFFFFFFC0
FFFFFFFFC0
FFFFFFFFC0
3F8000FE00
3F8000FE00
3F8000FE00
3F8000FE00
3F8000FE00
3F8000FE00
3FFFFFFE00
3FFFFFFE00
3FFFFFFE00
3FFFFFFE00
3FFFFFFE00
3FFFFFFE00
3F8000FE00
3F8000FE00
3F8000FE00
3F8000FE00
3F8000FE00
3F8000FE00
3F8000FE00
3F8000FE00
3F8000FE00
3F8000FE00
3F8000FE00
3F8000FE00
3F8000FE00
3F8000FE00
3F8000FE00
3F8000FE00
3F8000FE00
3F8000FE00
3F8000FE00
3F8000FE00
ENDCHAR
STARTCHAR hbar
ENCODING 295
SWIDTH 598 0
DWIDTH 36 0
BBX 31 46 2 0
BITMAP
0FF00000
0FF00000
0FE00000
0FE00000
FFFFE000
FFFFE000
FFFFE000
FFFFE000
FFFFE000
FFFFE000
0FE00000
0FE00000
0FE00000
0FE07F00
0FE1FFC0
0FE7FFE0
0FEFFFF0
0FFFFFF8
0FFFFFFC
0FFF87FC
0FFE01FE
0FFC01FE
0FF800FE
0FF000FE
0FF000FE
0FE000FE
0FE000FE
0FE000FE
0FE000FE
0FE000FE
0FE000FE
0FE000FE
0FE000FE
0FE000FE
0FE000FE
0FE000FE
0FE000FE
0FE000FE
0FE000FE
0FE000FE
0FE000FE
0FE000FE
0FE000FE
0FE000FE
0FE000FE
0FE000FE
ENDCHAR
STARTCHAR Itilde
ENCODING 296
SWIDTH 585 0
DWIDTH 35 0
BBX 26 55 5 0
BITMAP
03F80000
0FFE0200
1FFF0780
3FFFFFC0
7FFFFF80
7FFFFF00
3E0FFE00
1C07FC00
0001F800
00000000
00000000
00000000
7FFFFF00
7FFFFF00
7FFFFF00
7FFFFF00
7FFFFF00
7FFFFF00
007F0000
007F0000
007F0000
007F0000
007F0000
007F0000
007F0000
007F0000
007F0000
007F0000
007F0000
007F0000
007F0000
007F0000
007F0000
007F0000
007F0000
007F0000
007F0000
007F0000
007F0000
007F0000
007F0000
007F0000
007F0000
007F0000
007F0000
007F0000
007F0000
007F0000
007F0000
FFFFFF80
FFFFFF80
FFFFFF80
FFFFFF80
FFFFFF80
FFFFFF80
ENDCHAR
STARTCHAR itilde
ENCODING 297
SWIDTH 585 0
DWIDTH 35 0
BBX 25 47 7 0
BITMAP
07F00000
1FFC0400
3FFF1F00
7FFFFF80
FFFFFF00
FFFFFE00
7C1FFC00
380FF800
0001E000
00000000
00000000
00000000
00000000
00000000
00000000
FFFE0000
FFFE0000
FFFE0000
FFFE0000
FFFE0000
FFFE0000
00FE0000
00FE0000
00FE0000
00FE0000
00FE0000
00FE0000
00FE0000
00FE0000
00FE0000
00FE0000
00FE0000
00FE0000
00FE0000
00FE0000
00FE0000
00FE0000
00FE0000
00FE0000
00FE0000
00FE0000
FFFFFC00
FFFFFC00
FFFFFC00
FFFFFC00
FFFFFC00
FFFFFC00
ENDCHAR
STARTCHAR Imacron
ENCODING 298
SWIDTH 585 0
DWIDTH 35 0
BBX 25 55 5 0
BITMAP
1FFFFE00
1FFFFE00
1FFFFE00
1FFFFE00
1FFFFE00
1FFFFE00
00000000
00000000
00000000
00000000
00000000
00000000
7FFFFF00
7FFFFF00
7FFFFF00
7FFFFF00
7FFFFF00
7FFFFF00
007F0000
007F0000
007F0000
007F0000
007F0000
007F0000
007F0000
007F0000
007F0000
007F0000
007F0000
007F0000
007F0000
007F0000
007F0000
007F0000
007F0000
007F0000
007F0000
007F0000
007F0000
007F0000
007F0000
007F0000
007F0000
007F0000
007F0000
007F0000
007F0000
007F0000
007F0000
FFFFFF80
FFFFFF80
FFFFFF80
FFFFFF80
FFFFFF80
FFFFFF80
ENDCHAR
STARTCHAR imacron
ENCODING 299
SWIDTH 585 0
DWIDTH 35 0
BBX 22 44 7 0
BITMAP
7FFFF8
7FFFF8
7FFFF8
7FFFF8
7FFFF8
7FFFF8
000000
000000
000000
000000
000000
000000
FFFE00
FFFE00
FFFE00
FFFE00
FFFE00
FFFE00
00FE00
00FE00
00FE00
00FE00
00FE00
00FE00
00FE00
00FE00
00FE00
00FE00
00FE00
00FE00
00FE00
00FE00
00FE00
00FE00
00FE00
00FE00
00FE00
00FE00
FFFFFC
FFFFFC
FFFFFC
FFFFFC
FFFFFC
FFFFFC
ENDCHAR
STARTCHAR Ibreve
ENCODING 300
SWIDTH 585 0
DWIDTH 35 0
BBX 25 55 5 0
BITMAP
08000800
1C001C00
1C003C00
3F007E00
7FC1FF00
3FFFFE00
1FFFFC00
0FFFF800
07FFE000
00FF8000
00000000
00000000
7FFFFF00
7FFFFF00
7FFFFF00
7FFFFF00
7FFFFF00
7FFFFF00
007F0000
007F0000
007F0000
007F0000
007F0000
007F0000
007F0000
007F0000
007F0000
007F0000
007F0000
007F0000
007F0000
007F0000
007F0000
007F0000
007F0000
007F0000
007F0000
007F0000
007F0000
007F0000
007F0000
007F0000
007F0000
007F0000
007F0000
007F0000
007F0000
007F0000
007F0000
FFFFFF80
FFFFFF80
FFFFFF80
FFFFFF80
FFFFFF80
FFFFFF80
ENDCHAR
STARTCHAR ibreve
ENCODING 301
SWIDTH 585 0
DWIDTH 35 0
BBX 23 46 7 0
BITMAP
100000
180018
3C003C
7E00FC
FF83FE
7FFFFC
3FFFF8
1FFFF0
0FFFC0
01FF00
000000
000000
000000
000000
FFFE00
FFFE00
FFFE00
FFFE00
FFFE00
FFFE00
00FE00
00FE00
00FE00
00FE00
00FE00
00FE00
00FE00
00FE00
00FE00
00FE00
00FE00
00FE00
00FE00
00FE00
00FE00
00FE00
00FE00
00FE00
00FE00
00FE00
FFFFFC
FFFFFC
FFFFFC
FFFFFC
FFFFFC
FFFFFC
ENDCHAR
STARTCHAR Iogonek
ENCODING 302
SWIDTH 585 0
DWIDTH 35 0
BBX 25 55 5 -12
BITMAP
7FFFFF00
7FFFFF00
7FFFFF00
7FFFFF00
7FFFFF00
7FFFFF00
007F0000
007F0000
007F0000
007F0000
007F0000
007F0000
007F0000
007F0000
007F0000
007F0000
007F0000
007F0000
007F0000
007F0000
007F0000
007F0000
007F0000
007F0000
007F0000
007F0000
007F0000
007F0000
007F0000
007F0000
007F0000
007F0000
007F0000
007F0000
007F0000
007F0000
007F0000
FFFFFF80
FFFFFF80
FFFFFF80
FFFFFF80
FFFFFF80
FFFFFF80
001F8000
003F0000
007E0000
00FC0000
01F80000
01F00000
03E00000
03F18000
03FF8000
01FF8000
01FF8000
007E0000
ENDCHAR
STARTCHAR iogonek
ENCODING 303
SWIDTH 585 0
DWIDTH 35 0
BBX 22 58 7 -12
BITMAP
007800
00FE00
01FE00
01FF00
01FF00
01FF00
01FE00
00FE00
007800
000000
000000
000000
000000
000000
FFFE00
FFFE00
FFFE00
FFFE00
FFFE00
FFFE00
00FE00
00FE00
00FE00
00FE00
00FE00
00FE00
00FE00
00FE00
00FE00
00FE00
00FE00
00FE00
00FE00
00FE00
00FE00
00FE00
00FE00
00FE00
00FE00
00FE00
FFFFFC
FFFFFC
FFFFFC
FFFFFC
FFFFFC
FFFFFC
007E00
00FC00
01F800
03F000
07E000
07C000
0F8000
0FC600
0FFE00
07FE00
07FE00
01F800
ENDCHAR
STARTCHAR Idotaccent
ENCODING 304
SWIDTH 598 0
DWIDTH 36 0
BBX 25 55 5 0
BITMAP
003C0000
007E0000
00FF0000
00FF0000
00FF8000
00FF0000
00FF0000
007E0000
003C0000
00000000
00000000
00000000
7FFFFF00
7FFFFF00
7FFFFF00
7FFFFF00
7FFFFF00
7FFFFF00
007F0000
007F0000
007F0000
007F0000
007F0000
007F0000
007F0000
007F0000
007F0000
007F0000
007F0000
007F0000
007F0000
007F0000
007F0000
007F0000
007F0000
007F0000
007F0000
007F0000
007F0000
007F0000
007F0000
007F0000
007F0000
007F0000
007F0000
007F0000
007F0000
007F0000
007F0000
FFFFFF80
FFFFFF80
FFFFFF80
FFFFFF80
FFFFFF80
FFFFFF80
ENDCHAR
STARTCHAR dotlessi
ENCODING 305
SWIDTH 598 0
DWIDTH 36 0
BBX 22 32 7 0
BITMAP
FFFE00
FFFE00
FFFE00
FFFE00
FFFE00
FFFE00
00FE00
00FE00
00FE00
00FE00
00FE00
00FE00
00FE00
00FE00
00FE00
00FE00
00FE00
00FE00
00FE00
00FE00
00FE00
00FE00
00FE00
00FE00
00FE00
00FE00
FFFFFC
FFFFFC
FFFFFC
FFFFFC
FFFFFC
FFFFFC
ENDCHAR
STARTCHAR IJ
ENCODING 306
SWIDTH 598 0
DWIDTH 36 0
BBX 35 55 1 -12
BITMAP
FFFFFFFFE0
FFFFFFFFE0
FFFFFFFFE0
FFFFFFFFE0
FFFFFFFFE0
FFFFFFFFE0
07E000FE00
07E000FE00
07E000FE00
07E000FE00
07E000FE00
07E000FE00
07E000FE00
07E000FE00
07E000FE00
07E000FE00
07E000FE00
07E000FE00
07E000FE00
07E000FE00
07E000FE00
07E000FE00
07E000FE00
07E000FE00
07E000FE00
07E000FE00
07E000FE00
07E000FE00
07E000FE00
07E000FE00
07E000FE00
07E000FE00
07E000FE00
07E000FE00
07E000FE00
07E000FE00
07E000FE00
FFFF80FE00
FFFF80FE00
FFFF80FE00
FFFF80FE00
FFFF80FE00
FFFF80FE00
000000FE00
001000FC00
003801FC00
007801FC00
00FC03FC00
00FF0FF800
01FFFFF000
00FFFFF000
007FFFE000
003FFFC000
000FFF0000
0001FC0000
ENDCHAR
STARTCHAR ij
ENCODING 307
SWIDTH 598 0
DWIDTH 36 0
BBX 32 59 1 -13
BITMAP
0078003C
00FC00FE
01FE00FF
01FE01FF
01FF01FF
01FE01FF
01FE00FF
00FC007E
0078003C
00000000
00000000
00000000
00000000
00000000
FFFFFFFE
FFFFFFFE
FFFFFFFE
FFFFFFFE
FFFFFFFE
FFFFFFFE
01FC00FE
01FC00FE
01FC00FE
01FC00FE
01FC00FE
01FC00FE
01FC00FE
01FC00FE
01FC00FE
01FC00FE
01FC00FE
01FC00FE
01FC00FE
01FC00FE
01FC00FE
01FC00FE
01FC00FE
01FC00FE
01FC00FE
01FC00FE
FFFFF0FE
FFFFF0FE
FFFFF0FE
FFFFF0FE
FFFFF0FE
FFFFF0FE
000000FE
000000FE
003000FE
003801FE
007801FC
00FC03FC
00FF0FF8
01FFFFF8
00FFFFF0
007FFFE0
003FFFC0
001FFF00
0003FC00
ENDCHAR
STARTCHAR Jcircumflex
ENCODING 308
SWIDTH 585 0
DWIDTH 35 0
BBX 30 56 3 -1
BITMAP
00030000
0007C000
000FE000
003FF000
007FFC00
00FFFE00
03FFFF00
07FCFF80
0FF87FC0
07E01F80
03800F00
01000200
007FFFFC
007FFFFC
007FFFFC
007FFFFC
007FFFFC
007FFFFC
00007F00
00007F00
00007F00
00007F00
00007F00
00007F00
00007F00
00007F00
00007F00
00007F00
00007F00
00007F00
00007F00
00007F00
00007F00
00007F00
00007F00
00007F00
00007F00
00007F00
00007F00
00007F00
00007F00
00007F00
00007F00
00007F00
00007E00
08007E00
1800FE00
3C00FE00
7E01FE00
7F87FC00
FFFFFC00
7FFFF800
3FFFF000
1FFFE000
07FF8000
01FE0000
ENDCHAR
STARTCHAR jcircumflex
ENCODING 309
SWIDTH 585 0
DWIDTH 35 0
BBX 25 61 3 -13
BITMAP
00038000
0007C000
000FE000
001FE000
001FF000
003FF800
007FFC00
00FFFC00
01FCFE00
01FC7F00
03F87F80
03F03F00
00E01E00
00400C00
00000000
00000000
07FFFF00
07FFFF00
07FFFF00
07FFFF00
07FFFF00
07FFFF00
00007F00
00007F00
00007F00
00007F00
00007F00
00007F00
00007F00
00007F00
00007F00
00007F00
00007F00
00007F00
00007F00
00007F00
00007F00
00007F00
00007F00
00007F00
00007F00
00007F00
00007F00
00007F00
00007F00
00007F00
00007F00
00007F00
00007F00
00007F00
08007F00
1800FF00
3C00FE00
7E01FE00
7F87FC00
FFFFFC00
FFFFF800
7FFFF000
1FFFE000
0FFF8000
01FE0000
ENDCHAR
STARTCHAR Kcommaaccent
ENCODING 310
SWIDTH 585 0
DWIDTH 35 0
BBX 32 54 3 -11
BITMAP
FE0001FE
FE0003FC
FE0007F8
FE000FF0
FE001FE0
FE003FC0
FE007F80
FE00FF00
FE01FE00
FE01FE00
FE03FC00
FE07F800
FE0FF000
FE1FE000
FE3FC000
FE7F8000
FEFF0000
FFFE0000
FFFC0000
FFFE0000
FFFE0000
FFFF0000
FFFF8000
FF3FC000
FE1FC000
FE1FE000
FE0FF000
FE07F800
FE07F800
FE03FC00
FE01FE00
FE01FE00
FE00FF00
FE007F80
FE003FC0
FE003FC0
FE001FE0
FE000FF0
FE000FF8
FE0007F8
FE0003FC
FE0F03FE
FE0FE1FF
000FE000
000FE000
000FC000
000FC000
000FC000
000FC000
000F8000
000F8000
000F8000
001F0000
001F0000
ENDCHAR
STARTCHAR kcommaaccent
ENCODING 311
SWIDTH 585 0
DWIDTH 35 0
BBX 31 57 4 -11
BITMAP
FF000000
FF000000
FE000000
FE000000
FE000000
FE000000
FE000000
FE000000
FE000000
FE000000
FE000000
FE000000
FE000000
FE0007FC
FE000FF8
FE001FF0
FE003FE0
FE007FC0
FE00FF00
FE01FE00
FE03FC00
FE07F800
FE0FF000
FE1FE000
FE3FC000
FE7F8000
FEFF0000
FFFF0000
FFFF8000
FFFFC000
FFDFE000
FF9FF000
FF0FF000
FE07F800
FE03FC00
FE01FE00
FE01FF00
FE00FF80
FE007F80
FE003FC0
FE003FE0
FE001FF0
FE000FF8
FE0007FC
FE1E03FE
FE1FC3FE
001FC000
001FC000
001F8000
001F8000
001F8000
001F8000
001F0000
001F0000
001F0000
003E0000
003E0000
ENDCHAR
STARTCHAR kgreenlandic
ENCODING 312
SWIDTH 598 0
DWIDTH 36 0
BBX 31 32 4 0
BITMAP
FF0007FC
FF000FF0
FE001FE0
FE003FC0
FE007F80
FE00FF00
FE01FE00
FE03FC00
FE0FF800
FE1FF000
FE3FC000
FE7F8000
FEFF0000
FFFF0000
FFFF8000
FFFFC000
FFFFC000
FF9FE000
FF0FF000
FE07F800
FE03FC00
FE03FE00
FE01FF00
FE00FF00
FE007F80
FE003FC0
FE003FE0
FE001FF0
FE000FF8
FE0007FC
FE0003FE
FE0003FE
ENDCHAR
STARTCHAR Lacute
ENCODING 313
SWIDTH 598 0
DWIDTH 36 0
BBX 28 55 4 0
BITMAP
00006000
0001F000
0007F000
003FF800
00FFFC00
03FFF000
01FF8000
01FE0000
00F00000
00000000
00000000
00000000
FF000000
FF000000
FE000000
FE000000
FE000000
FE000000
FE000000
FE000000
FE000000
FE000000
FE000000
FE000000
FE000000
FE000000
FE000000
FE000000
FE000000
FE000000
FE000000
FE000000
FE000000
FE000000
FE000000
FE000000
FE000000
FE000000
FE000000
FE000000
FE000000
FE000000
FE000000
FE000000
FE000000
FE000000
FE000000
FE000000
FE000000
FFFFFFF0
FFFFFFF0
FFFFFFF0
FFFFFFF0
FFFFFFF0
FFFFFFF0
ENDCHAR
STARTCHAR lacute
ENCODING 314
SWIDTH 598 0
DWIDTH 36 0
BBX 26 58 5 0
BITMAP
0000C000
0003E000
000FE000
007FF000
01FFF800
07FFE000
03FF0000
03FC0000
01E00000
00000000
00000000
00000000
7FFF0000
7FFF0000
7FFF0000
7FFF0000
7FFF0000
7FFF0000
003F0000
003F0000
003F0000
003F0000
003F0000
003F0000
003F0000
003F0000
003F0000
003F0000
003F0000
003F0000
003F0000
003F0000
003F0000
003F0000
003F0000
003F0000
003F0000
003F0000
003F0000
003F0000
003F0000
003F0000
003F0000
003F0000
003F0000
003F0000
003F0000
003F0000
003F0000
003F0000
003F0000
003F0000
FFFFFFC0
FFFFFFC0
FFFFFFC0
FFFFFFC0
FFFFFFC0
FFFFFFC0
ENDCHAR
STARTCHAR Lcommaaccent
ENCODING 315
SWIDTH 585 0
DWIDTH 35 0
BBX 28 54 4 -11
BITMAP
FF000000
FF000000
FE000000
FE000000
FE000000
FE000000
FE000000
FE000000
FE000000
FE000000
FE000000
FE000000
FE000000
FE000000
FE000000
FE000000
FE000000
FE000000
FE000000
FE000000
FE000000
FE000000
FE000000
FE000000
FE000000
FE000000
FE000000
FE000000
FE000000
FE000000
FE000000
FE000000
FE000000
FE000000
FE000000
FE000000
FE000000
FFFFFFF0
FFFFFFF0
FFFFFFF0
FFFFFFF0
FFFFFFF0
FFFFFFF0
001FC000
001FC000
001F8000
001F8000
001F8000
001F8000
001F0000
001F0000
001F0000
003E0000
003E0000
ENDCHAR
STARTCHAR lcommaaccent
ENCODING 316
SWIDTH 585 0
DWIDTH 35 0
BBX 26 57 5 -11
BITMAP
7FFF0000
7FFF0000
7FFF0000
7FFF0000
7FFF0000
7FFF0000
003F0000
003F0000
003F0000
003F0000
003F0000
003F0000
003F0000
003F0000
003F0000
003F0000
003F0000
003F0000
003F0000
003F0000
003F0000
003F0000
003F0000
003F0000
003F0000
003F0000
003F0000
003F0000
003F0000
003F0000
003F0000
003F0000
003F0000
003F0000
003F0000
003F0000
003F0000
003F0000
003F0000
003F0000
FFFFFFC0
FFFFFFC0
FFFFFFC0
FFFFFFC0
FFFFFFC0
FFFFFFC0
003F8000
003F8000
003F0000
003F0000
003F0000
003F0000
003E0000
003E0000
003E0000
007C0000
007C0000
ENDCHAR
STARTCHAR Lcaron
ENCODING 317
SWIDTH 598 0
DWIDTH 36 0
BBX 28 44 4 0
BITMAP
00000F00
FF001F80
FF003FC0
FE003FC0
FE003FC0
FE003FE0
FE001FC0
FE0007C0
FE0007C0
FE000F80
FE000F80
FE001F00
FE003E00
FE007C00
FE001800
FE000000
FE000000
FE000000
FE000000
FE000000
FE000000
FE000000
FE000000
FE000000
FE000000
FE000000
FE000000
FE000000
FE000000
FE000000
FE000000
FE000000
FE000000
FE000000
FE000000
FE000000
FE000000
FE000000
FFFFFFF0
FFFFFFF0
FFFFFFF0
FFFFFFF0
FFFFFFF0
FFFFFFF0
ENDCHAR
STARTCHAR lcaron
ENCODING 318
SWIDTH 598 0
DWIDTH 36 0
BBX 30 47 4 0
BITMAP
000000F0
FFFF03F8
FFFF03FC
FFFF03FC
FFFF03FC
FFFF03FC
FFFF01FC
007F00FC
007F00F8
007F00F8
007F01F0
007F03E0
007F07E0
007F07C0
007F0300
007F0000
007F0000
007F0000
007F0000
007F0000
007F0000
007F0000
007F0000
007F0000
007F0000
007F0000
007F0000
007F0000
007F0000
007F0000
007F0000
007F0000
007F0000
007F0000
007F0000
007F0000
007F0000
007F0000
007F0000
007F0000
007F0000
FFFFFFC0
FFFFFFC0
FFFFFFC0
FFFFFFC0
FFFFFFC0
FFFFFFC0
ENDCHAR
STARTCHAR Ldot
ENCODING 319
SWIDTH 585 0
DWIDTH 35 0
BBX 28 43 4 0
BITMAP
FF000000
FF000000
FE000000
FE000000
FE000000
FE000000
FE000000
FE000000
FE000000
FE000000
FE000000
FE000000
FE000000
FE000000
FE000000
FE000000
FE007800
FE01FE00
FE01FE00
FE03FF00
FE03FF00
FE03FF00
FE03FF00
FE01FE00
FE00FC00
FE007800
FE000000
FE000000
FE000000
FE000000
FE000000
FE000000
FE000000
FE000000
FE000000
FE000000
FE000000
FFFFFFF0
FFFFFFF0
FFFFFFF0
FFFFFFF0
FFFFFFF0
FFFFFFF0
ENDCHAR
STARTCHAR ldot
ENCODING 320
SWIDTH 585 0
DWIDTH 35 0
BBX 32 46 2 0
BITMAP
7FFF8000
7FFF8000
7FFF8000
7FFF8000
7FFF8000
7FFF8000
003F8000
003F8000
003F8000
003F8000
003F8000
003F8000
003F8000
003F8000
003F8000
003F8000
003F8000
003F8000
003F8000
003F8078
003F81FC
003F81FE
003F83FF
003F83FF
003F83FF
003F83FF
003F81FE
003F80FC
003F8078
003F8000
003F8000
003F8000
003F8000
003F8000
003F8000
003F8000
003F8000
003F8000
003F8000
003F8000
FFFFFFC0
FFFFFFC0
FFFFFFC0
FFFFFFC0
FFFFFFC0
FFFFFFC0
ENDCHAR
STARTCHAR Lslash
ENCODING 321
SWIDTH 598 0
DWIDTH 36 0
BBX 32 43 1 0
BITMAP
0FE00000
0FE00000
0FE00000
0FE00000
0FE00000
0FE00000
0FE00000
0FE00000
0FE00000
0FE00000
0FE00000
0FE00000
0FE00000
0FE00000
0FE00000
0FE00300
0FE01F00
0FE0FF00
0FEFFF00
0FFFFF00
0FFFFF00
1FFFFC00
FFFFE000
FFFE0000
FFF00000
FFE00000
FFE00000
EFE00000
0FE00000
0FE00000
0FE00000
0FE00000
0FE00000
0FE00000
0FE00000
0FE00000
0FE00000
0FFFFFFF
0FFFFFFF
0FFFFFFF
0FFFFFFF
0FFFFFFF
0FFFFFFF
ENDCHAR
STARTCHAR lslash
ENCODING 322
SWIDTH 598 0
DWIDTH 36 0
BBX 26 46 5 0
BITMAP
7FFF0000
7FFF0000
7FFF0000
7FFF0000
7FFF0000
7FFF0000
003F0000
003F0000
003F0000
003F0000
003F0000
003F0000
003F0000
003F0000
003F0000
003F0000
003F0200
003F0600
003F3E00
003FFE00
003FFE00
003FFE00
01FFFE00
0FFFFC00
0FFFE000
0FFF0000
0FFF0000
0FFF0000
0E3F0000
003F0000
003F0000
003F0000
003F0000
003F0000
003F0000
003F0000
003F0000
003F0000
003F0000
003F0000
FFFFFFC0
FFFFFFC0
FFFFFFC0
FFFFFFC0
FFFFFFC0
FFFFFFC0
ENDCHAR
STARTCHAR Nacute
ENCODING 323
SWIDTH 598 0
DWIDTH 36 0
BBX 30 55 3 0
BITMAP
00007000
0001F800
000FFC00
003FFE00
00FFFC00
00FFE000
00FF8000
007C0000
00600000
00000000
00000000
00000000
FE0001FC
FE0001FC
FF0001FC
FF0001FC
FF8001FC
FFC001FC
FFC001FC
FFE001FC
FFE001FC
FFF001FC
FFF001FC
FFF801FC
FFFC01FC
FEFC01FC
FEFE01FC
FE7E01FC
FE7F01FC
FE3F01FC
FE1F81FC
FE1F81FC
FE0FC1FC
FE0FE1FC
FE07E1FC
FE07F1FC
FE03F1FC
FE03F9FC
FE01F9FC
FE00FDFC
FE00FFFC
FE007FFC
FE007FFC
FE003FFC
FE003FFC
FE001FFC
FE001FFC
FE000FFC
FE0007FC
FE0007FC
FE0003FC
FE0003FC
FE0001FC
FE0001FC
FE0000FC
ENDCHAR
STARTCHAR nacute
ENCODING 324
SWIDTH 598 0
DWIDTH 36 0
BBX 28 50 4 0
BITMAP
00008000
0000C000
0001F000
0001F800
0003FC00
0007FC00
0007F800
000FF000
000FE000
001FE000
003FC000
003F8000
003F0000
000F0000
00020000
00000000
00000000
0003F000
FE1FFC00
FE3FFF00
FEFFFF80
FFFFFFC0
FFFFFFC0
FFFC7FE0
FFF01FE0
FFC00FE0
FF800FE0
FF0007E0
FF0007E0
FF0007E0
FE0007F0
FE0007F0
FE0007F0
FE0007F0
FE0007F0
FE0007F0
FE0007F0
FE0007F0
FE0007F0
FE0007F0
FE0007F0
FE0007F0
FE0007F0
FE0007F0
FE0007F0
FE0007F0
FE0007F0
FE0007F0
FE0007F0
FE0007F0
ENDCHAR
STARTCHAR Ncommaaccent
ENCODING 325
SWIDTH 585 0
DWIDTH 35 0
BBX 30 54 3 -11
BITMAP
FE0001FC
FE0001FC
FF0001FC
FF0001FC
FF8001FC
FFC001FC
FFC001FC
FFE001FC
FFE001FC
FFF001FC
FFF001FC
FFF801FC
FFFC01FC
FEFC01FC
FEFE01FC
FE7E01FC
FE7F01FC
FE3F01FC
FE1F81FC
FE1F81FC
FE0FC1FC
FE0FE1FC
FE07E1FC
FE07F1FC
FE03F1FC
FE03F9FC
FE01F9FC
FE00FDFC
FE00FFFC
FE007FFC
FE007FFC
FE003FFC
FE003FFC
FE001FFC
FE001FFC
FE000FFC
FE0007FC
FE0007FC
FE0003FC
FE0003FC
FE0001FC
FE0F01FC
FE0FE0FC
000FE000
000FE000
000FC000
000FC000
000FC000
000FC000
000F8000
000F8000
000F8000
001F0000
001F0000
ENDCHAR
STARTCHAR ncommaaccent
ENCODING 326
SWIDTH 585 0
DWIDTH 35 0
BBX 28 44 4 -11
BITMAP
0003F000
FE1FFC00
FE3FFF00
FEFFFF80
FFFFFFC0
FFFFFFC0
FFFC7FE0
FFF01FE0
FFC00FE0
FF800FE0
FF0007E0
FF0007E0
FF0007E0
FE0007F0
FE0007F0
FE0007F0
FE0007F0
FE0007F0
FE0007F0
FE0007F0
FE0007F0
FE0007F0
FE0007F0
FE0007F0
FE0007F0
FE0007F0
FE0007F0
FE0007F0
FE0007F0
FE0007F0
FE0007F0
FE1E07F0
FE1FC7F0
001FC000
001FC000
001F8000
001F8000
001F8000
001F8000
001F0000
001F0000
001F0000
003E0000
003E0000
ENDCHAR
STARTCHAR Ncaron
ENCODING 327
SWIDTH 598 0
DWIDTH 36 0
BBX 30 57 3 0
BITMAP
00800100
01C00700
03F00F80
07F83FC0
07FEFFC0
01FFFF00
00FFFE00
007FFC00
003FF000
000FE000
0007C000
00030000
00000000
00000000
FE0001FC
FE0001FC
FF0001FC
FF0001FC
FF8001FC
FFC001FC
FFC001FC
FFE001FC
FFE001FC
FFF001FC
FFF001FC
FFF801FC
FFFC01FC
FEFC01FC
FEFE01FC
FE7E01FC
FE7F01FC
FE3F01FC
FE1F81FC
FE1F81FC
FE0FC1FC
FE0FE1FC
FE07E1FC
FE07F1FC
FE03F1FC
FE03F9FC
FE01F9FC
FE00FDFC
FE00FFFC
FE007FFC
FE007FFC
FE003FFC
FE003FFC
FE001FFC
FE001FFC
FE000FFC
FE0007FC
FE0007FC
FE0003FC
FE0003FC
FE0001FC
FE0001FC
FE0000FC
ENDCHAR
STARTCHAR ncaron
ENCODING 328
SWIDTH 598 0
DWIDTH 36 0
BBX 28 51 4 0
BITMAP
00400800
01C01C00
03E03E00
07F07F00
07F87E00
03F8FE00
01FDFC00
00FFF800
00FFF000
007FE000
003FE000
001FC000
000F8000
000F0000
00000000
00000000
00000000
00000000
0003F000
FE1FFC00
FE3FFF00
FEFFFF80
FFFFFFC0
FFFFFFC0
FFFC7FE0
FFF01FE0
FFC00FE0
FF800FE0
FF0007E0
FF0007E0
FF0007E0
FE0007F0
FE0007F0
FE0007F0
FE0007F0
FE0007F0
FE0007F0
FE0007F0
FE0007F0
FE0007F0
FE0007F0
FE0007F0
FE0007F0
FE0007F0
FE0007F0
FE0007F0
FE0007F0
FE0007F0
FE0007F0
FE0007F0
FE0007F0
ENDCHAR
STARTCHAR napostrophe
ENCODING 329
SWIDTH 598 0
DWIDTH 36 0
BBX 37 45 -1 0
BITMAP
0F80000000
1FC0000000
3FE0000000
3FF0000000
3FF0000000
3FF0000000
3FF0000000
1FF0000000
0FF0000000
07F0000000
07E0000000
07E0000000
0FC001F800
1FDFC7FF00
3F9FCFFF80
7F1FDFFFC0
FE1FFFFFE0
3C1FFFFFE0
181FFE1FF0
001FF80FF0
001FF007F0
001FF007F0
001FE003F8
001FC003F8
001FC003F8
001FC003F8
001FC003F8
001FC003F8
001FC003F8
001FC003F8
001FC003F8
001FC003F8
001FC003F8
001FC003F8
001FC003F8
001FC003F8
001FC003F8
001FC003F8
001FC003F8
001FC003F8
001FC003F8
001FC003F8
001FC003F8
001FC003F8
001FC003F8
ENDCHAR
STARTCHAR Eng
ENCODING 330
SWIDTH 598 0
DWIDTH 36 0
BBX 30 45 3 -1
BITMAP
0003F800
FE1FFE00
FE3FFF80
FEFFFFC0
FFFFFFE0
FFFFFFF0
FFFE1FF0
FFF00FF8
FFE007F8
FFC003F8
FF8003F8
FF0001FC
FF0001FC
FE0001FC
FE0001FC
FE0001FC
FE0001FC
FE0001FC
FE0001FC
FE0001FC
FE0001FC
FE0001FC
FE0001FC
FE0001FC
FE0001FC
FE0001FC
FE0001FC
FE0001FC
FE0001FC
FE0001FC
FE0001FC
FE0001FC
FE0001FC
FE0001FC
FE0001FC
FE0001F8
FE0003F8
FE0203F8
FE078FF8
FE07FFF0
FE0FFFF0
FE0FFFE0
FE1FFFC0
FE0FFF00
0001FC00
ENDCHAR
STARTCHAR eng
ENCODING 331
SWIDTH 598 0
DWIDTH 36 0
BBX 28 45 4 -12
BITMAP
0003F000
FE1FFC00
FE3FFF00
FEFFFF80
FFFFFFC0
FFFFFFC0
FFFC7FE0
FFF01FE0
FFC00FE0
FF800FE0
FF0007E0
FF0007E0
FF0007E0
FE0007F0
FE0007F0
FE0007F0
FE0007F0
FE0007F0
FE0007F0
FE0007F0
FE0007F0
FE0007F0
FE0007F0
FE0007F0
FE0007F0
FE0007F0
FE0007F0
FE0007F0
FE0007F0
FE0007F0
FE0007E0
FE0007E0
FE0007E0
00000FE0
00000FE0
00000FE0
00201FC0
00703FC0
007FFFC0
00FFFF80
00FFFF00
01FFFE00
01FFFC00
007FF800
001FC000
ENDCHAR
STARTCHAR Omacron
ENCODING 332
SWIDTH 585 0
DWIDTH 35 0
BBX 32 56 2 -1
BITMAP
03FFFFC0
03FFFFC0
03FFFFC0
03FFFFC0
03FFFFC0
03FFFFC0
00000000
00000000
00000000
00000000
00000000
000FF000
003FFE00
00FFFF00
01FFFFC0
03FFFFE0
07FFFFF0
0FFE7FF0
1FF00FF8
1FE007FC
3FC003FC
3F8001FC
7F0000FE
7F0000FE
7F0000FE
FE00007F
FE00007F
FE00007F
FE00007F
FC00007F
FC00007F
FC00003F
FC00003F
FC00003F
FC00003F
FC00003F
FC00003F
FE00007F
FE00007F
FE00007F
FE00007F
7E00007F
7F0000FE
7F0000FE
7F8000FE
3F8001FC
3FC003FC
1FE007FC
1FF00FF8
0FFFFFF0
07FFFFF0
03FFFFE0
01FFFFC0
00FFFF00
003FFE00
0007F000
ENDCHAR
STARTCHAR omacron
ENCODING 333
SWIDTH 598 0
DWIDTH 36 0
BBX 31 45 3 -1
BITMAP
07FFFF80
07FFFF80
07FFFF80
07FFFF80
07FFFF80
07FFFF80
00000000
00000000
00000000
00000000
00000000
001FE000
007FFC00
01FFFF00
03FFFF80
0FFFFFC0
0FFFFFE0
1FF83FF0
3FE01FF0
3FC007F8
7F8003F8
7F0003F8
FF0001FC
FE0001FC
FE0001FC
FE0001FC
FE0000FC
FE0000FC
FE0000FE
FE0000FC
FE0001FC
FE0001FC
FE0001FC
FF0001FC
7F0003FC
7F8003F8
7FC007F8
3FE00FF0
1FF83FF0
1FFFFFE0
0FFFFFC0
07FFFF80
01FFFF00
00FFFC00
001FE000
ENDCHAR
STARTCHAR Obreve
ENCODING 334
SWIDTH 585 0
DWIDTH 35 0
BBX 32 56 2 -1
BITMAP
01000100
03800380
07C00780
0FE00FC0
0FFCFFC0
07FFFF80
03FFFF00
01FFFE00
007FFC00
000FE000
00000000
000FF000
003FFE00
00FFFF00
01FFFFC0
03FFFFE0
07FFFFF0
0FFE7FF0
1FF00FF8
1FE007FC
3FC003FC
3F8001FC
7F0000FE
7F0000FE
7F0000FE
FE00007F
FE00007F
FE00007F
FE00007F
FC00007F
FC00007F
FC00003F
FC00003F
FC00003F
FC00003F
FC00003F
FC00003F
FE00007F
FE00007F
FE00007F
FE00007F
7E00007F
7F0000FE
7F0000FE
7F8000FE
3F8001FC
3FC003FC
1FE007FC
1FF00FF8
0FFFFFF0
07FFFFF0
03FFFFE0
01FFFFC0
00FFFF00
003FFE00
0007F000
ENDCHAR
STARTCHAR obreve
ENCODING 335
SWIDTH 585 0
DWIDTH 35 0
BBX 31 47 3 -1
BITMAP
01000100
03800180
03C007C0
07E00FC0
0FFC7FE0
07FFFFC0
03FFFF80
00FFFE00
007FFC00
000FE000
00000000
00000000
00000000
001FE000
007FFC00
01FFFF00
03FFFF80
0FFFFFC0
0FFFFFE0
1FF83FF0
3FE01FF0
3FC007F8
7F8003F8
7F0003F8
FF0001FC
FE0001FC
FE0001FC
FE0001FC
FE0000FC
FE0000FC
FE0000FE
FE0000FC
FE0001FC
FE0001FC
FE0001FC
FF0001FC
7F0003FC
7F8003F8
7FC007F8
3FE00FF0
1FF83FF0
1FFFFFE0
0FFFFFC0
07FFFF80
01FFFF00
00FFFC00
001FE000
ENDCHAR
STARTCHAR Ohungarumlaut
ENCODING 336
SWIDTH 598 0
DWIDTH 36 0
BBX 32 58 2 -1
BITMAP
00020010
00060038
000F007C
001F80FC
003FC1FE
007FC3FF
01FFC7FE
03FF0FFC
07FC1FF0
0FF03FC0
07C03F00
03800C00
00000000
000FF000
003FFE00
00FFFF00
01FFFFC0
03FFFFE0
07FFFFF0
0FFE7FF0
1FF00FF8
1FE007FC
3FC003FC
3F8001FC
7F0000FE
7F0000FE
7F0000FE
FE00007F
FE00007F
FE00007F
FE00007F
FC00007F
FC00007F
FC00003F
FC00003F
FC00003F
FC00003F
FC00003F
FC00003F
FE00007F
FE00007F
FE00007F
FE00007F
7E00007F
7F0000FE
7F0000FE
7F8000FE
3F8001FC
3FC003FC
1FE007FC
1FF00FF8
0FFFFFF0
07FFFFF0
03FFFFE0
01FFFFC0
00FFFF00
003FFE00
0007F000
ENDCHAR
STARTCHAR ohungarumlaut
ENCODING 337
SWIDTH 598 0
DWIDTH 36 0
BBX 31 51 3 -1
BITMAP
00080000
001C0380
001F03C0
003F87F0
003FCFF8
007F8FF0
00FF1FE0
00FF1FC0
01FE3FC0
01FC7F80
03F87F00
07F8FE00
03F07E00
00E03C00
00400800
00000000
00000000
001FE000
007FFC00
01FFFF00
03FFFF80
0FFFFFC0
0FFFFFE0
1FF83FF0
3FE01FF0
3FC007F8
7F8003F8
7F0003F8
FF0001FC
FE0001FC
FE0001FC
FE0001FC
FE0000FC
FE0000FC
FE0000FE
FE0000FC
FE0001FC
FE0001FC
FE0001FC
FF0001FC
7F0003FC
7F8003F8
7FC007F8
3FE00FF0
1FF83FF0
1FFFFFE0
0FFFFFC0
07FFFF80
01FFFF00
00FFFC00
001FE000
ENDCHAR
STARTCHAR OE
ENCODING 338
SWIDTH 598 0
DWIDTH 36 0
BBX 35 45 0 -1
BITMAP
003C000000
00FFFFFFE0
03FFFFFFE0
07FFFFFFE0
0FFFFFFFE0
0FFFFFFFE0
1FE3FFFFE0
1FC1FE0000
3F80FE0000
3F007E0000
3F007E0000
7F007E0000
7E007E0000
7E007E0000
7E007E0000
7E007E0000
7E007E0000
FE007E0000
FE007E0000
FE007FFF80
FE007FFF80
FE007FFF80
FE007FFF80
FE007FFF80
FE007FFF80
FE007E0000
FE007E0000
FE007E0000
7E007E0000
7E007E0000
7E007E0000
7E007E0000
7F007E0000
7F007E0000
3F007E0000
3F807E0000
3F807E0000
3FC0FE0000
1FE1FFFFE0
0FFFFFFFE0
0FFFFFFFE0
07FFFFFFE0
03FFFFFFE0
01FFFFFFE0
007E000000
ENDCHAR
STARTCHAR oe
ENCODING 339
SWIDTH 598 0
DWIDTH 36 0
BBX 36 34 0 -1
BITMAP
007E03F800
03FF8FFE00
07FFDFFF00
0FFFFFFF80
1FFFFFFFC0
3FFFFFFFC0
3FC7FC0FE0
7F83F807E0
7F03F007E0
7E03F007E0
7E03F003E0
FE03F003E0
FC03FFFFF0
FC03FFFFF0
FC03FFFFF0
FC03FFFFF0
FC03FFFFF0
FC03FFFFF0
FC03F00000
FC03F00000
FC03F00000
FE03F00000
FE03F00000
7E03F00000
7E03F00000
7F03F80080
7F83FC01C0
3FC3FE03C0
3FFFFFFFE0
1FFFFFFFF0
0FFFFFFFE0
07FFFFFFC0
03FF8FFF00
00FE03FC00
ENDCHAR
STARTCHAR Racute
ENCODING 340
SWIDTH 598 0
DWIDTH 36 0
BBX 30 55 4 0
BITMAP
00006000
0001F000
0007F000
003FF800
00FFFC00
03FFF000
01FF8000
01FE0000
00F00000
00000000
00000000
00000000
FFFFE000
FFFFFC00
FFFFFF00
FFFFFF80
FFFFFFC0
FFFFFFE0
FC00FFE0
FC001FF0
FC000FF0
FC0007F0
FC0007F0
FC0003F8
FC0003F8
FC0003F8
FC0003F0
FC0007F0
FC0007F0
FC000FE0
FC003FE0
FFFFFFC0
FFFFFFC0
FFFFFF80
FFFFFE00
FFFFFC00
FFFFF000
FC03F800
FC03F800
FC01FC00
FC01FC00
FC00FE00
FC00FF00
FC007F00
FC007F80
FC003F80
FC003FC0
FC001FC0
FC001FE0
FC000FE0
FC000FF0
FC0007F0
FC0007F8
FC0003FC
FC0001FC
ENDCHAR
STARTCHAR racute
ENCODING 341
SWIDTH 598 0
DWIDTH 36 0
BBX 26 50 7 0
BITMAP
00040000
00060000
000F8000
000FC000
001FE000
003FE000
003FC000
007F8000
007F0000
00FF0000
01FE0000
01FC0000
01F80000
00780000
00100000
00000000
00000000
0007F800
FE3FFE00
FE7FFF80
FEFFFFC0
FFFFFFC0
FFFFFFC0
FFFC1F80
FFF00780
FFC00780
FFC00300
FF800100
FF000000
FF000000
FE000000
FE000000
FE000000
FC000000
FC000000
FC000000
FC000000
FC000000
FC000000
FC000000
FC000000
FC000000
FC000000
FC000000
FC000000
FC000000
FC000000
FC000000
FC000000
FC000000
ENDCHAR
STARTCHAR Rcommaaccent
ENCODING 342
SWIDTH 585 0
DWIDTH 35 0
BBX 30 54 4 -11
BITMAP
FFFFE000
FFFFFC00
FFFFFF00
FFFFFF80
FFFFFFC0
FFFFFFE0
FC00FFE0
FC001FF0
FC000FF0
FC0007F0
FC0007F0
FC0003F8
FC0003F8
FC0003F8
FC0003F0
FC0007F0
FC0007F0
FC000FE0
FC003FE0
FFFFFFC0
FFFFFFC0
FFFFFF80
FFFFFE00
FFFFFC00
FFFFF000
FC03F800
FC03F800
FC01FC00
FC01FC00
FC00FE00
FC00FF00
FC007F00
FC007F80
FC003F80
FC003FC0
FC001FC0
FC001FE0
FC000FE0
FC000FF0
FC0007F0
FC0007F8
FC1E03FC
FC1FC1FC
001FC000
001FC000
001F8000
001F8000
001F8000
001F8000
001F0000
001F0000
001F0000
003E0000
003E0000
ENDCHAR
STARTCHAR rcommaaccent
ENCODING 343
SWIDTH 585 0
DWIDTH 35 0
BBX 26 44 7 -11
BITMAP
0007F800
FE3FFE00
FE7FFF80
FEFFFFC0
FFFFFFC0
FFFFFFC0
FFFC1F80
FFF00780
FFC00780
FFC00300
FF800100
FF000000
FF000000
FE000000
FE000000
FE000000
FC000000
FC000000
FC000000
FC000000
FC000000
FC000000
FC000000
FC000000
FC000000
FC000000
FC000000
FC000000
FC000000
FC000000
FC000000
FCF00000
FCFE0000
00FE0000
00FE0000
00FC0000
00FC0000
00FC0000
00FC0000
00F80000
00F80000
00F80000
01F00000
01F00000
ENDCHAR
STARTCHAR Rcaron
ENCODING 344
SWIDTH 598 0
DWIDTH 36 0
BBX 30 56 4 0
BITMAP
03800600
07C01F00
0FF03F80
0FF8FF80
07FFFF00
03FFFE00
00FFF800
007FF000
003FE000
001F8000
00070000
00000000
00000000
FFFFE000
FFFFFC00
FFFFFF00
FFFFFF80
FFFFFFC0
FFFFFFE0
FC00FFE0
FC001FF0
FC000FF0
FC0007F0
FC0007F0
FC0003F8
FC0003F8
FC0003F8
FC0003F0
FC0007F0
FC0007F0
FC000FE0
FC003FE0
FFFFFFC0
FFFFFFC0
FFFFFF80
FFFFFE00
FFFFFC00
FFFFF000
FC03F800
FC03F800
FC01FC00
FC01FC00
FC00FE00
FC00FF00
FC007F00
FC007F80
FC003F80
FC003FC0
FC001FC0
FC001FE0
FC000FE0
FC000FF0
FC0007F0
FC0007F8
FC0003FC
FC0001FC
ENDCHAR
STARTCHAR rcaron
ENCODING 345
SWIDTH 598 0
DWIDTH 36 0
BBX 26 51 7 0
BITMAP
02004000
0E00E000
1F01F000
3F83F800
3FC3F000
1FC7F000
0FEFE000
07FFC000
07FF8000
03FF0000
01FF0000
00FE0000
007C0000
00780000
00000000
00000000
00000000
00000000
0007F800
FE3FFE00
FE7FFF80
FEFFFFC0
FFFFFFC0
FFFFFFC0
FFFC1F80
FFF00780
FFC00780
FFC00300
FF800100
FF000000
FF000000
FE000000
FE000000
FE000000
FC000000
FC000000
FC000000
FC000000
FC000000
FC000000
FC000000
FC000000
FC000000
FC000000
FC000000
FC000000
FC000000
FC000000
FC000000
FC000000
FC000000
ENDCHAR
STARTCHAR Sacute
ENCODING 346
SWIDTH 598 0
DWIDTH 36 0
BBX 30 56 3 -1
BITMAP
00007000
0001F800
000FFC00
003FFE00
00FFFC00
00FFE000
00FF8000
007C0000
00600000
00000000
00000000
001FF000
007FFE00
01FFFF80
03FFFFC0
07FFFFE0
0FFFFFF0
1FF01FF8
1FC007F0
3F8003E0
3F8001E0
3F8000C0
3F800080
3F800000
3F800000
3F800000
3FC00000
1FF00000
1FF80000
0FFF0000
07FFC000
03FFF800
00FFFE00
003FFF80
000FFFC0
0003FFE0
00007FF0
00001FF8
000007F8
000003F8
000001FC
000001FC
000001FC
000001FC
180001FC
380001FC
3C0003FC
7F0003F8
7F800FF8
FFF03FF0
7FFFFFF0
3FFFFFE0
1FFFFFC0
07FFFF00
01FFFE00
003FF000
ENDCHAR
STARTCHAR sacute
ENCODING 347
SWIDTH 598 0
DWIDTH 36 0
BBX 28 51 4 -1
BITMAP
00008000
0000C000
0001F000
0001F800
0003FC00
0007FC00
0007F800
000FF000
000FE000
001FE000
003FC000
003F8000
003F0000
000F0000
00020000
00000000
00000000
003FE000
01FFFC00
03FFFF00
0FFFFF80
1FFFFFE0
1FFFFFF0
3FC01FE0
3F800FE0
3F8007C0
3F800380
3F800180
3FE00000
3FF80000
1FFF0000
0FFFF000
07FFFC00
03FFFF00
00FFFF80
001FFFC0
0001FFE0
00003FE0
00000FF0
100007F0
380007F0
380007F0
7C0007F0
FF000FF0
FFC07FE0
FFFFFFE0
7FFFFFC0
3FFFFF80
0FFFFF00
03FFFC00
007FE000
ENDCHAR
STARTCHAR Scircumflex
ENCODING 348
SWIDTH 585 0
DWIDTH 35 0
BBX 30 57 3 -1
BITMAP
00030000
0007C000
000FE000
003FF000
007FFC00
00FFFE00
03FFFF00
07FCFF80
0FF87FC0
07E01F80
03800F00
01000200
001FF000
007FFE00
01FFFF80
03FFFFC0
07FFFFE0
0FFFFFF0
1FF01FF8
1FC007F0
3F8003E0
3F8001E0
3F8000C0
3F800080
3F800000
3F800000
3F800000
3FC00000
1FF00000
1FF80000
0FFF0000
07FFC000
03FFF800
00FFFE00
003FFF80
000FFFC0
0003FFE0
00007FF0
00001FF8
000007F8
000003F8
000001FC
000001FC
000001FC
000001FC
180001FC
380001FC
3C0003FC
7F0003F8
7F800FF8
FFF03FF0
7FFFFFF0
3FFFFFE0
1FFFFFC0
07FFFF00
01FFFE00
003FF000
ENDCHAR
STARTCHAR scircumflex
ENCODING 349
SWIDTH 585 0
DWIDTH 35 0
BBX 28 49 4 -1
BITMAP
00070000
000F8000
001FC000
003FC000
003FE000
007FF000
00FFF800
01FFF800
03F9FC00
03F8FE00
07F0FF00
07E07E00
01C03C00
00801800
00000000
003FE000
01FFFC00
03FFFF00
0FFFFF80
1FFFFFE0
1FFFFFF0
3FC01FE0
3F800FE0
3F8007C0
3F800380
3F800180
3FE00000
3FF80000
1FFF0000
0FFFF000
07FFFC00
03FFFF00
00FFFF80
001FFFC0
0001FFE0
00003FE0
00000FF0
100007F0
380007F0
380007F0
7C0007F0
FF000FF0
FFC07FE0
FFFFFFE0
7FFFFFC0
3FFFFF80
0FFFFF00
03FFFC00
007FE000
ENDCHAR
STARTCHAR Scedilla
ENCODING 350
SWIDTH 598 0
DWIDTH 36 0
BBX 30 57 3 -13
BITMAP
001FF000
007FFE00
01FFFF80
03FFFFC0
07FFFFE0
0FFFFFF0
1FF01FF8
1FC007F0
3F8003E0
3F8001E0
3F8000C0
3F800080
3F800000
3F800000
3F800000
3FC00000
1FF00000
1FF80000
0FFF0000
07FFC000
03FFF800
00FFFE00
003FFF80
000FFFC0
0003FFE0
00007FF0
00001FF8
000007F8
000003F8
000001FC
000001FC
000001FC
000001FC
180001FC
380001FC
3C0003FC
7F0003F8
7F800FF8
FFF03FF0
7FFFFFF0
3FFFFFE0
1FFFFFC0
07FFFF00
01FFFE00
003FF000
00078000
00078000
0007C000
0007F800
0007FC00
000FFC00
01C07C00
01F07C00
03FFFC00
01FFF800
007FF000
000F8000
ENDCHAR
STARTCHAR scedilla
ENCODING 351
SWIDTH 598 0
DWIDTH 36 0
BBX 28 46 4 -13
BITMAP
003FE000
01FFFC00
03FFFF00
0FFFFF80
1FFFFFE0
1FFFFFF0
3FC01FE0
3F800FE0
3F8007C0
3F800380
3F800180
3FE00000
3FF80000
1FFF0000
0FFFF000
07FFFC00
03FFFF00
00FFFF80
001FFFC0
0001FFE0
00003FE0
00000FF0
100007F0
380007F0
380007F0
7C0007F0
FF000FF0
FFC07FE0
FFFFFFE0
7FFFFFC0
3FFFFF80
0FFFFF00
03FFFC00
007FE000
000F0000
000F0000
000F8000
000FF000
000FF800
010FFC00
01807C00
03E07C00
07FFF800
03FFF800
00FFE000
001F8000
ENDCHAR
STARTCHAR Scaron
ENCODING 352
SWIDTH 598 0
DWIDTH 36 0
BBX 30 58 3 -1
BITMAP
00C00300
01E00780
03F81FC0
07FC7FE0
03FFFF80
00FFFF00
007FFE00
003FF800
001FF000
0007E000
00038000
00000000
00000000
001FF000
007FFE00
01FFFF80
03FFFFC0
07FFFFE0
0FFFFFF0
1FF01FF8
1FC007F0
3F8003E0
3F8001E0
3F8000C0
3F800080
3F800000
3F800000
3F800000
3FC00000
1FF00000
1FF80000
0FFF0000
07FFC000
03FFF800
00FFFE00
003FFF80
000FFFC0
0003FFE0
00007FF0
00001FF8
000007F8
000003F8
000001FC
000001FC
000001FC
000001FC
180001FC
380001FC
3C0003FC
7F0003F8
7F800FF8
FFF03FF0
7FFFFFF0
3FFFFFE0
1FFFFFC0
07FFFF00
01FFFE00
003FF000
ENDCHAR
STARTCHAR scaron
ENCODING 353
SWIDTH 598 0
DWIDTH 36 0
BBX 28 52 4 -1
BITMAP
00400800
01C01C00
03E03E00
07F07F00
07F87E00
03F8FE00
01FDFC00
00FFF800
00FFF000
007FE000
003FE000
001FC000
000F8000
000F0000
00000000
00000000
00000000
00000000
003FE000
01FFFC00
03FFFF00
0FFFFF80
1FFFFFE0
1FFFFFF0
3FC01FE0
3F800FE0
3F8007C0
3F800380
3F800180
3FE00000
3FF80000
1FFF0000
0FFFF000
07FFFC00
03FFFF00
00FFFF80
001FFFC0
0001FFE0
00003FE0
00000FF0
100007F0
380007F0
380007F0
7C0007F0
FF000FF0
FFC07FE0
FFFFFFE0
7FFFFFC0
3FFFFF80
0FFFFF00
03FFFC00
007FE000
ENDCHAR
STARTCHAR Tcedilla
ENCODING 354
SWIDTH 598 0
DWIDTH 36 0
BBX 32 55 2 -12
BITMAP
FFFFFFFF
FFFFFFFF
FFFFFFFF
FFFFFFFF
FFFFFFFF
FFFFFFFF
000FE000
000FE000
000FE000
000FE000
000FE000
000FE000
000FE000
000FE000
000FE000
000FE000
000FE000
000FE000
000FE000
000FE000
000FE000
000FE000
000FE000
000FE000
000FE000
000FE000
000FE000
000FE000
000FE000
000FE000
000FE000
000FE000
000FE000
000FE000
000FE000
000FE000
000FE000
000FE000
000FE000
000FE000
000FE000
000FE000
000FE000
00038000
00038000
00078000
0007F000
0007FC00
0007FE00
0087FE00
01E03E00
01FFFE00
01FFFC00
00FFF800
001FE000
ENDCHAR
STARTCHAR tcedilla
ENCODING 355
SWIDTH 598 0
DWIDTH 36 0
BBX 27 54 5 -13
BITMAP
007E0000
00FE0000
00FE0000
00FC0000
00FC0000
01FC0000
01FC0000
01FC0000
01FC0000
FFFFFF00
FFFFFF00
FFFFFF00
FFFFFF00
FFFFFF00
FFFFFF00
01FC0000
01FC0000
01F80000
01F80000
01F80000
01F80000
01F80000
03F80000
03F80000
03F80000
03F80000
03F80000
03F80000
03F80000
03F80000
03F80000
03F80000
03FC0040
03FC01C0
01FE03C0
01FF9FE0
01FFFFE0
00FFFFE0
00FFFFE0
007FFF80
001FFE00
0007F000
0003C000
0003C000
0003E000
0003FC00
0003FE00
0043FF00
00601F00
00F81F00
01FFFE00
00FFFE00
003FF800
0007E000
ENDCHAR
STARTCHAR Tcaron
ENCODING 356
SWIDTH 598 0
DWIDTH 36 0
BBX 32 56 2 0
BITMAP
00E00180
01F007C0
03FC0FE0
03FE3FE0
01FFFFC0
00FFFF80
003FFE00
001FFC00
000FF800
0007E000
0001C000
00000000
00000000
FFFFFFFF
FFFFFFFF
FFFFFFFF
FFFFFFFF
FFFFFFFF
FFFFFFFF
000FE000
000FE000
000FE000
000FE000
000FE000
000FE000
000FE000
000FE000
000FE000
000FE000
000FE000
000FE000
000FE000
000FE000
000FE000
000FE000
000FE000
000FE000
000FE000
000FE000
000FE000
000FE000
000FE000
000FE000
000FE000
000FE000
000FE000
000FE000
000FE000
000FE000
000FE000
000FE000
000FE000
000FE000
000FE000
000FE000
000FE000
ENDCHAR
STARTCHAR tcaron
ENCODING 357
SWIDTH 598 0
DWIDTH 36 0
BBX 32 50 3 -1
BITMAP
0000007C
000000FE
000001FE
000001FF
000001FF
000000FF
0000007F
0000003E
007E003E
00FE007C
00FE007C
00FE00F8
00FE03F0
00FC01E0
00FC0040
00FC0000
01FC0000
FFFFFF00
FFFFFF00
FFFFFF00
FFFFFF00
FFFFFF00
FFFFFF00
01FC0000
01FC0000
01FC0000
01FC0000
01FC0000
01F80000
01F80000
01F80000
01F80000
01F80000
01F80000
01F80000
01F80000
01F80000
01F80000
01F80000
01FC0000
01FC0040
01FC00C0
01FE03C0
01FF9FE0
01FFFFE0
00FFFFF0
007FFFE0
007FFF80
001FFE00
0007F800
ENDCHAR
STARTCHAR Tbar
ENCODING 358
SWIDTH 598 0
DWIDTH 36 0
BBX 32 43 2 0
BITMAP
FFFFFFFF
FFFFFFFF
FFFFFFFF
FFFFFFFF
FFFFFFFF
FFFFFFFF
000FE000
000FE000
000FE000
000FE000
000FE000
000FE000
000FE000
000FE000
000FE000
000FE000
000FE000
1FFFFFF8
1FFFFFF8
1FFFFFF8
1FFFFFF8
1FFFFFF8
1FFFFFF8
000FE000
000FE000
000FE000
000FE000
000FE000
000FE000
000FE000
000FE000
000FE000
000FE000
000FE000
000FE000
000FE000
000FE000
000FE000
000FE000
000FE000
000FE000
000FE000
000FE000
ENDCHAR
STARTCHAR tbar
ENCODING 359
SWIDTH 598 0
DWIDTH 36 0
BBX 27 42 5 -1
BITMAP
007E0000
00FE0000
00FE0000
00FC0000
00FC0000
01FC0000
01FC0000
01FC0000
01FC0000
FFFFFF00
FFFFFF00
FFFFFF00
FFFFFF00
FFFFFF00
FFFFFF00
01FC0000
01FC0000
01F80000
01F80000
01F80000
01F80000
FFFFFE00
FFFFFE00
FFFFFE00
FFFFFE00
FFFFFE00
FFFFFE00
03F80000
03F80000
03F80000
03F80000
03F80000
03FC0040
03FC01C0
01FE03C0
01FF9FE0
01FFFFE0
00FFFFE0
00FFFFE0
007FFF80
001FFE00
0007F000
ENDCHAR
STARTCHAR Utilde
ENCODING 360
SWIDTH 585 0
DWIDTH 35 0
BBX 30 56 3 -1
BITMAP
00FE0000
03FF8080
07FFC1E0
0FFFFFF0
1FFFFFE0
1FFFFFC0
0F83FF80
0701FF00
00007E00
00000000
00000000
00000000
FE0000FC
FE0000FC
FE0000FC
FE0000FC
FE0000FC
FE0000FC
FE0000FC
FE0000FC
FE0000FC
FE0000FC
FE0000FC
FE0000FC
FE0000FC
FE0000FC
FE0000FC
FE0000FC
FE0000FC
FE0000FC
FE0000FC
FE0000FC
FE0000FC
FE0000FC
FE0000FC
FE0000FC
FE0000FC
FE0000FC
FE0000FC
FE0000FC
FE0000FC
FE0000FC
FE0001FC
FE0001FC
FE0001FC
7F0001FC
7F0003F8
7F8007F8
3FC00FF8
3FF03FF0
1FFFFFE0
0FFFFFC0
07FFFF80
03FFFF00
00FFFC00
001FE000
ENDCHAR
STARTCHAR utilde
ENCODING 361
SWIDTH 585 0
DWIDTH 35 0
BBX 28 48 4 -1
BITMAP
00FE0000
03FF8080
07FFE3E0
0FFFFFF0
1FFFFFE0
1FFFFFC0
0F83FF80
0701FF00
00003C00
00000000
00000000
00000000
00000000
00000000
00000000
FE0007F0
FE0007F0
FE0007F0
FE0007F0
FE0007F0
FE0007F0
FE0007F0
FE0007F0
FE0007F0
FE0007F0
FE0007F0
FE0007F0
FE0007F0
FE0007F0
FE0007F0
FE0007F0
FE0007F0
FE0007F0
FE0007F0
FE0007F0
FE0007F0
FE000FF0
FE000FF0
FF001FF0
7F001FF0
7F803FF0
7FC0FFF0
3FFFFFF0
1FFFFFF0
1FFFFFF0
07FFE7F0
03FFC7F0
007F0000
ENDCHAR
STARTCHAR Umacron
ENCODING 362
SWIDTH 585 0
DWIDTH 35 0
BBX 30 56 3 -1
BITMAP
07FFFF80
07FFFF80
07FFFF80
07FFFF80
07FFFF80
07FFFF80
00000000
00000000
00000000
00000000
00000000
00000000
FE0000FC
FE0000FC
FE0000FC
FE0000FC
FE0000FC
FE0000FC
FE0000FC
FE0000FC
FE0000FC
FE0000FC
FE0000FC
FE0000FC
FE0000FC
FE0000FC
FE0000FC
FE0000FC
FE0000FC
FE0000FC
FE0000FC
FE0000FC
FE0000FC
FE0000FC
FE0000FC
FE0000FC
FE0000FC
FE0000FC
FE0000FC
FE0000FC
FE0000FC
FE0000FC
FE0001FC
FE0001FC
FE0001FC
7F0001FC
7F0003F8
7F8007F8
3FC00FF8
3FF03FF0
1FFFFFE0
0FFFFFC0
07FFFF80
03FFFF00
00FFFC00
001FE000
ENDCHAR
STARTCHAR umacron
ENCODING 363
SWIDTH 585 0
DWIDTH 35 0
BBX 28 45 4 -1
BITMAP
0FFFFF00
0FFFFF00
0FFFFF00
0FFFFF00
0FFFFF00
0FFFFF00
00000000
00000000
00000000
00000000
00000000
00000000
FE0007F0
FE0007F0
FE0007F0
FE0007F0
FE0007F0
FE0007F0
FE0007F0
FE0007F0
FE0007F0
FE0007F0
FE0007F0
FE0007F0
FE0007F0
FE0007F0
FE0007F0
FE0007F0
FE0007F0
FE0007F0
FE0007F0
FE0007F0
FE0007F0
FE000FF0
FE000FF0
FF001FF0
7F001FF0
7F803FF0
7FC0FFF0
3FFFFFF0
1FFFFFF0
1FFFFFF0
07FFE7F0
03FFC7F0
007F0000
ENDCHAR
STARTCHAR Ubreve
ENCODING 364
SWIDTH 585 0
DWIDTH 35 0
BBX 30 56 3 -1
BITMAP
02000200
07000700
07000F00
0FC01F80
1FF07FC0
0FFFFF80
07FFFF00
03FFFE00
01FFF800
003FE000
00000000
00000000
FE0000FC
FE0000FC
FE0000FC
FE0000FC
FE0000FC
FE0000FC
FE0000FC
FE0000FC
FE0000FC
FE0000FC
FE0000FC
FE0000FC
FE0000FC
FE0000FC
FE0000FC
FE0000FC
FE0000FC
FE0000FC
FE0000FC
FE0000FC
FE0000FC
FE0000FC
FE0000FC
FE0000FC
FE0000FC
FE0000FC
FE0000FC
FE0000FC
FE0000FC
FE0000FC
FE0001FC
FE0001FC
FE0001FC
7F0001FC
7F0003F8
7F8007F8
3FC00FF8
3FF03FF0
1FFFFFE0
0FFFFFC0
07FFFF80
03FFFF00
00FFFC00
001FE000
ENDCHAR
STARTCHAR ubreve
ENCODING 365
SWIDTH 585 0
DWIDTH 35 0
BBX 28 47 4 -1
BITMAP
02000200
07000300
07800F80
0FC01F80
1FF8FFC0
0FFFFF80
07FFFF00
01FFFC00
00FFF800
001FC000
00000000
00000000
00000000
00000000
FE0007F0
FE0007F0
FE0007F0
FE0007F0
FE0007F0
FE0007F0
FE0007F0
FE0007F0
FE0007F0
FE0007F0
FE0007F0
FE0007F0
FE0007F0
FE0007F0
FE0007F0
FE0007F0
FE0007F0
FE0007F0
FE0007F0
FE0007F0
FE0007F0
FE000FF0
FE000FF0
FF001FF0
7F001FF0
7F803FF0
7FC0FFF0
3FFFFFF0
1FFFFFF0
1FFFFFF0
07FFE7F0
03FFC7F0
007F0000
ENDCHAR
STARTCHAR Uring
ENCODING 366
SWIDTH 598 0
DWIDTH 36 0
BBX 30 56 3 -1
BITMAP
000FC000
001FE000
003FF000
007FF800
00787C00
00783C00
00F83C00
00787C00
007C7C00
007FF800
003FF000
001FE000
FE0780FC
FE0000FC
FE0000FC
FE0000FC
FE0000FC
FE0000FC
FE0000FC
FE0000FC
FE0000FC
FE0000FC
FE0000FC
FE0000FC
FE0000FC
FE0000FC
FE0000FC
FE0000FC
FE0000FC
FE0000FC
FE0000FC
FE0000FC
FE0000FC
FE0000FC
FE0000FC
FE0000FC
FE0000FC
FE0000FC
FE0000FC
FE0000FC
FE0000FC
FE0000FC
FE0001FC
FE0001FC
FE0001FC
7F0001FC
7F0003F8
7F8007F8
3FC00FF8
3FF03FF0
1FFFFFE0
0FFFFFC0
07FFFF80
03FFFF00
00FFFC00
001FE000
ENDCHAR
STARTCHAR uring
ENCODING 367
SWIDTH 598 0
DWIDTH 36 0
BBX 28 50 4 -1
BITMAP
00060000
001FC000
007FE000
007FF000
00F8F800
00F07800
00F07800
00F07800
00F8F800
00FFF000
007FF000
003FE000
000F8000
00000000
00000000
00000000
00000000
FE0007F0
FE0007F0
FE0007F0
FE0007F0
FE0007F0
FE0007F0
FE0007F0
FE0007F0
FE0007F0
FE0007F0
FE0007F0
FE0007F0
FE0007F0
FE0007F0
FE0007F0
FE0007F0
FE0007F0
FE0007F0
FE0007F0
FE0007F0
FE0007F0
FE000FF0
FE000FF0
FF001FF0
7F001FF0
7F803FF0
7FC0FFF0
3FFFFFF0
1FFFFFF0
1FFFFFF0
07FFE7F0
03FFC7F0
007F0000
ENDCHAR
STARTCHAR Uhungarumlaut
ENCODING 368
SWIDTH 598 0
DWIDTH 36 0
BBX 31 57 3 -1
BITMAP
000C0020
001E0070
003E00F8
007F01FC
00FF83FC
01FFC7FE
03FF0FFC
07FC1FF0
0FF83FC0
1FE07F00
0F803C00
06001800
00000000
FE0000FC
FE0000FC
FE0000FC
FE0000FC
FE0000FC
FE0000FC
FE0000FC
FE0000FC
FE0000FC
FE0000FC
FE0000FC
FE0000FC
FE0000FC
FE0000FC
FE0000FC
FE0000FC
FE0000FC
FE0000FC
FE0000FC
FE0000FC
FE0000FC
FE0000FC
FE0000FC
FE0000FC
FE0000FC
FE0000FC
FE0000FC
FE0000FC
FE0000FC
FE0000FC
FE0001FC
FE0001FC
FE0001FC
7F0001FC
7F0003F8
7F8007F8
3FC00FF8
3FF03FF0
1FFFFFE0
0FFFFFC0
07FFFF80
03FFFF00
00FFFC00
001FE000
ENDCHAR
STARTCHAR uhungarumlaut
ENCODING 369
SWIDTH 598 0
DWIDTH 36 0
BBX 28 50 4 -1
BITMAP
00100200
00380700
003E0FC0
007F0FE0
00FF9FF0
00FF1FE0
01FE3FC0
01FE7F80
03FC7F80
07F8FF00
07F0FE00
0FF1FC00
07E0FC00
01C03800
00001000
00000000
00000000
FE0007F0
FE0007F0
FE0007F0
FE0007F0
FE0007F0
FE0007F0
FE0007F0
FE0007F0
FE0007F0
FE0007F0
FE0007F0
FE0007F0
FE0007F0
FE0007F0
FE0007F0
FE0007F0
FE0007F0
FE0007F0
FE0007F0
FE0007F0
FE0007F0
FE000FF0
FE000FF0
FF001FF0
7F001FF0
7F803FF0
7FC0FFF0
3FFFFFF0
1FFFFFF0
1FFFFFF0
07FFE7F0
03FFC7F0
007F0000
ENDCHAR
STARTCHAR Uogonek
ENCODING 370
SWIDTH 598 0
DWIDTH 36 0
BBX 30 56 3 -13
BITMAP
FE0000FC
FE0000FC
FE0000FC
FE0000FC
FE0000FC
FE0000FC
FE0000FC
FE0000FC
FE0000FC
FE0000FC
FE0000FC
FE0000FC
FE0000FC
FE0000FC
FE0000FC
FE0000FC
FE0000FC
FE0000FC
FE0000FC
FE0000FC
FE0000FC
FE0000FC
FE0000FC
FE0000FC
FE0000FC
FE0000FC
FE0000FC
FE0000FC
FE0000FC
FE0000FC
FE0001FC
FE0001FC
FE0001FC
7F0001FC
7F0003F8
7F8007F8
3FC00FF8
3FF03FF0
1FFFFFE0
0FFFFFC0
07FFFF80
03FFFF00
00FFFF00
001FFE00
0000F800
0001F000
0003E000
0007C000
000F8000
000F8000
001F0400
001F8C00
000FFC00
000FFC00
0007FC00
0003F000
ENDCHAR
STARTCHAR uogonek
ENCODING 371
SWIDTH 585 0
DWIDTH 35 0
BBX 28 45 4 -13
BITMAP
FE0007F0
FE0007F0
FE0007F0
FE0007F0
FE0007F0
FE0007F0
FE0007F0
FE0007F0
FE0007F0
FE0007F0
FE0007F0
FE0007F0
FE0007F0
FE0007F0
FE0007F0
FE0007F0
FE0007F0
FE0007F0
FE0007F0
FE0007F0
FE0007F0
FE000FF0
FE000FF0
FF001FF0
7F001FF0
7F803FF0
7FC0FFF0
3FFFFFF0
1FFFFFF0
1FFFFFF0
07FFE7F0
03FFC7F0
007F03F0
000007C0
00000F80
00001F00
00003E00
00007E00
00007C00
00007C10
00007C70
00007FF0
00007FF0
00003FE0
00000F80
ENDCHAR
STARTCHAR Wcircumflex
ENCODING 372
SWIDTH 585 0
DWIDTH 35 0
BBX 34 56 1 -1
BITMAP
0000C00000
0001F00000
0007F80000
000FFC0000
001FFE0000
007FFF8000
00FFFFC000
01FF3FE000
03FC1FE000
01F807E000
00E003C000
0040008000
FC000007C0
FC00000FC0
FC00000FC0
FE00E00FC0
FE00F00FC0
7E00F00FC0
7E01F00FC0
7E01F00F80
7E01F80F80
7F01F81F80
7F03F81F80
3F03F81F80
3F03FC1F80
3F03FC1F00
3F07FC1F00
3F87FC1F00
3F87FE3F00
1F8FFE3F00
1F8FFE3F00
1F8FBE3E00
1F8FBF3E00
1F9F3F3E00
1FDF3F3E00
0FDF1FBE00
0FDF1FFE00
0FFE1FFC00
0FFE1FFC00
0FFE0FFC00
0FFC0FFC00
07FC0FFC00
07FC07FC00
07FC07F800
07F807F800
07F807F800
07F803F800
03F803F800
03F003F800
03F003F000
03F001F000
03F001F000
03E001F000
01E001F000
01E000F000
01E000E000
ENDCHAR
STARTCHAR wcircumflex
ENCODING 373
SWIDTH 585 0
DWIDTH 35 0
BBX 34 47 1 0
BITMAP
0001E00000
0001F00000
0003F80000
0007FC0000
000FFC0000
000FFE0000
001FFF0000
003FFF8000
007F3FC000
00FE1FC000
00FC0FE000
007C0FC000
0038070000
0010020000
0000000000
FE00001FC0
FE00000FC0
FC00000FC0
FE01F01FC0
7E01F01F80
7E03F01F80
7E03F81F80
7E03F81F80
7F03F81F80
3F07F81F80
3F07FC1F00
3F07FC1F00
3F07FC1F00
3F8FFE3F00
1F8FFE3F00
1F8FBE3F00
1F8F3E3F00
1F9F3F3E00
1FDF1F3E00
0FDF1F3E00
0FDE1FFE00
0FFE1FFE00
0FFE0FFC00
07FE0FFC00
07FC0FFC00
07FC07FC00
07FC07FC00
07FC07F800
03F807F800
03F803F800
03F803F800
03F003F800
ENDCHAR
STARTCHAR Ycircumflex
ENCODING 374
SWIDTH 585 0
DWIDTH 35 0
BBX 34 55 1 0
BITMAP
0000C00000
0001F00000
0007F80000
000FFC0000
001FFE0000
007FFF8000
00FFFFC000
01FF3FE000
03FC1FE000
01F807E000
00E003C000
0040008000
FF00003FC0
7F00003F80
7F80003F80
3F80007F00
3FC0007F00
1FC000FE00
0FE000FE00
0FE001FC00
07F001FC00
07F803F800
03F803F800
03FC07F000
01FC07F000
01FE07E000
00FE0FE000
00FF0FC000
007F1FC000
007F9F8000
003FBF8000
003FFF0000
001FFF0000
000FFE0000
000FFE0000
0007FC0000
0007FC0000
0003F80000
0003F80000
0003F80000
0003F80000
0003F80000
0003F80000
0003F80000
0003F80000
0003F80000
0003F80000
0003F80000
0003F80000
0003F80000
0003F80000
0003F80000
0003F80000
0003F80000
0003F80000
ENDCHAR
STARTCHAR ycircumflex
ENCODING 375
SWIDTH 585 0
DWIDTH 35 0
BBX 33 61 1 -13
BITMAP
0000E00000
0001F00000
0003F80000
0007F80000
0007FC0000
000FFE0000
001FFF0000
003FFF0000
007F3F8000
007F1FC000
00FE1FE000
00FC0FC000
0038078000
0010030000
0000000000
0000000000
3FC0003F80
3FC0003F80
3FC0007F00
1FC0007F00
1FC0007F00
0FE0007E00
0FE000FE00
07F000FC00
07F000FC00
07F001FC00
03F801F800
03F801F800
01F803F800
01FC03F000
01FC03F000
00FE07E000
00FE07E000
007E07E000
007F0FC000
003F0FC000
003F9F8000
003F9F8000
001F9F8000
001FFF0000
000FFF0000
000FFF0000
000FFE0000
0007FE0000
0007FC0000
0003FC0000
0003FC0000
0001F80000
0003F80000
0003F00000
0007F00000
0007F00000
180FE00000
380FE00000
3C3FE00000
7FFFC00000
7FFF800000
FFFF000000
7FFE000000
3FFC000000
07F0000000
ENDCHAR
STARTCHAR Ydieresis
ENCODING 376
SWIDTH 598 0
DWIDTH 36 0
BBX 34 54 1 0
BITMAP
00F007C000
01F80FE000
03FC1FE000
03FC1FF000
07FC1FF000
03FC1FF000
03FC1FE000
01F80FE000
00F0038000
0000000000
0000000000
FF00003FC0
7F00003F80
7F80003F80
3F80007F00
3FC0007F00
1FC000FE00
0FE000FE00
0FE001FC00
07F001FC00
07F803F800
03F803F800
03FC07F000
01FC07F000
01FE07E000
00FE0FE000
00FF0FC000
007F1FC000
007F9F8000
003FBF8000
003FFF0000
001FFF0000
000FFE0000
000FFE0000
0007FC0000
0007FC0000
0003F80000
0003F80000
0003F80000
0003F80000
0003F80000
0003F80000
0003F80000
0003F80000
0003F80000
0003F80000
0003F80000
0003F80000
0003F80000
0003F80000
0003F80000
0003F80000
0003F80000
0003F80000
ENDCHAR
STARTCHAR Zacute
ENCODING 377
SWIDTH 598 0
DWIDTH 36 0
BBX 31 55 3 0
BITMAP
00003000
0000F800
0003F800
001FFC00
007FFE00
01FFF800
00FFC000
00FF0000
00780000
00000000
00000000
00000000
7FFFFFFC
7FFFFFFC
7FFFFFFC
7FFFFFFC
7FFFFFF8
7FFFFFF8
000007F0
00000FF0
00000FE0
00001FC0
00003FC0
00003F80
00007F00
00007F00
0000FE00
0001FC00
0001FC00
0003F800
0007F800
0007F000
000FE000
001FE000
001FC000
003F8000
007F8000
007F0000
00FE0000
01FE0000
01FC0000
03F80000
07F80000
07F00000
0FF00000
0FE00000
1FC00000
3FC00000
3F800006
7FFFFFFE
FFFFFFFE
FFFFFFFE
FFFFFFFE
FFFFFFFE
FFFFFFFE
ENDCHAR
STARTCHAR zacute
ENCODING 378
SWIDTH 598 0
DWIDTH 36 0
BBX 30 49 3 0
BITMAP
00004000
00007000
0000F800
0001FE00
0001FE00
0003FC00
0003FC00
0007F800
000FF000
000FE000
001FE000
001FC000
000F8000
00070000
00010000
00000000
00000000
3FFFFFF0
3FFFFFF0
3FFFFFF0
3FFFFFF0
3FFFFFF0
3FFFFFE0
00001FC0
00003F80
00007F80
0000FF00
0001FE00
0003FC00
0007F800
000FF000
000FE000
001FE000
003FC000
007F8000
00FF0000
01FE0000
03FC0000
03F80000
07F80000
0FF00000
1FE00000
3FC00008
7FFFFFFC
FFFFFFFC
FFFFFFFC
FFFFFFFC
FFFFFFFC
FFFFFFFC
ENDCHAR
STARTCHAR Zdotaccent
ENCODING 379
SWIDTH 598 0
DWIDTH 36 0
BBX 31 54 3 0
BITMAP
00078000
000FE000
001FE000
001FF000
001FF000
001FF000
001FE000
000FE000
00078000
00000000
00000000
7FFFFFFC
7FFFFFFC
7FFFFFFC
7FFFFFFC
7FFFFFF8
7FFFFFF8
000007F0
00000FF0
00000FE0
00001FC0
00003FC0
00003F80
00007F00
00007F00
0000FE00
0001FC00
0001FC00
0003F800
0007F800
0007F000
000FE000
001FE000
001FC000
003F8000
007F8000
007F0000
00FE0000
01FE0000
01FC0000
03F80000
07F80000
07F00000
0FF00000
0FE00000
1FC00000
3FC00000
3F800006
7FFFFFFE
FFFFFFFE
FFFFFFFE
FFFFFFFE
FFFFFFFE
FFFFFFFE
ENDCHAR
STARTCHAR zdot
ENCODING 380
SWIDTH 598 0
DWIDTH 36 0
BBX 30 46 3 0
BITMAP
00078000
000FE000
001FE000
001FF000
001FF000
001FF000
001FE000
000FE000
00078000
00000000
00000000
00000000
00000000
00000000
3FFFFFF0
3FFFFFF0
3FFFFFF0
3FFFFFF0
3FFFFFF0
3FFFFFE0
00001FC0
00003F80
00007F80
0000FF00
0001FE00
0003FC00
0007F800
000FF000
000FE000
001FE000
003FC000
007F8000
00FF0000
01FE0000
03FC0000
03F80000
07F80000
0FF00000
1FE00000
3FC00008
7FFFFFFC
FFFFFFFC
FFFFFFFC
FFFFFFFC
FFFFFFFC
FFFFFFFC
ENDCHAR
STARTCHAR Zcaron
ENCODING 381
SWIDTH 598 0
DWIDTH 36 0
BBX 31 56 3 0
BITMAP
01C00300
03E00F80
07F81FC0
07FC7FC0
03FFFF80
01FFFF00
007FFC00
003FF800
001FF000
000FC000
00038000
00000000
00000000
7FFFFFFC
7FFFFFFC
7FFFFFFC
7FFFFFFC
7FFFFFF8
7FFFFFF8
000007F0
00000FF0
00000FE0
00001FC0
00003FC0
00003F80
00007F00
00007F00
0000FE00
0001FC00
0001FC00
0003F800
0007F800
0007F000
000FE000
001FE000
001FC000
003F8000
007F8000
007F0000
00FE0000
01FE0000
01FC0000
03F80000
07F80000
07F00000
0FF00000
0FE00000
1FC00000
3FC00000
3F800006
7FFFFFFE
FFFFFFFE
FFFFFFFE
FFFFFFFE
FFFFFFFE
FFFFFFFE
ENDCHAR
STARTCHAR zcaron
ENCODING 382
SWIDTH 598 0
DWIDTH 36 0
BBX 30 50 3 0
BITMAP
00600C00
00F00E00
03F81F00
03F83F80
01FC7F00
01FEFE00
00FFFC00
007FFC00
003FF800
001FF000
001FE000
000FC000
0007C000
00038000
00000000
00000000
00000000
00000000
3FFFFFF0
3FFFFFF0
3FFFFFF0
3FFFFFF0
3FFFFFF0
3FFFFFE0
00001FC0
00003F80
00007F80
0000FF00
0001FE00
0003FC00
0007F800
000FF000
000FE000
001FE000
003FC000
007F8000
00FF0000
01FE0000
03FC0000
03F80000
07F80000
0FF00000
1FE00000
3FC00008
7FFFFFFC
FFFFFFFC
FFFFFFFC
FFFFFFFC
FFFFFFFC
FFFFFFFC
ENDCHAR
STARTCHAR longs
ENCODING 383
SWIDTH 598 0
DWIDTH 36 0
BBX 24 47 11 0
BITMAP
007F80
01FFF0
07FFFC
0FFFFE
1FFFFF
3FFFFF
7FC07F
7F803E
7F001E
FE001C
FE000C
FE0000
FE0000
FE0000
FE0000
FE0000
FE0000
FE0000
FE0000
FE0000
FE0000
FE0000
FE0000
FE0000
FE0000
FE0000
FE0000
FE0000
FE0000
FE0000
FE0000
FE0000
FE0000
FE0000
FE0000
FE0000
FE0000
FE0000
FE0000
FE0000
FE0000
FE0000
FE0000
FE0000
FE0000
FE0000
FE0000
ENDCHAR
STARTCHAR florin
ENCODING 402
SWIDTH 598 0
DWIDTH 36 0
BBX 34 59 1 -12
BITMAP
000001E000
00000FFC00
00001FFF00
00007FFF80
00007FFFC0
0000FFFFC0
0001FE1F80
0001FC0F80
0003F80700
0003F80700
0003F80000
0003F00000
0003F00000
0003F00000
0007F00000
0007F00000
0007F00000
0007F00000
0007F00000
0007F00000
0FFFFFF000
0FFFFFF000
0FFFFFF000
0FFFFFF000
0FFFFFF000
0007FFF000
0007E00000
000FE00000
000FE00000
000FE00000
000FE00000
000FE00000
000FE00000
000FE00000
000FC00000
000FC00000
000FC00000
000FC00000
000FC00000
001FC00000
001FC00000
001FC00000
001FC00000
001FC00000
001FC00000
001F800000
001F800000
001F800000
003F800000
003F800000
103F800000
387F000000
3FFF000000
7FFE000000
FFFE000000
FFFC000000
FFF8000000
3FF0000000
0FC0000000
ENDCHAR
STARTCHAR Aringacute
ENCODING 506
SWIDTH 585 0
DWIDTH 35 0
BBX 34 63 1 0
BITMAP
00000C0000
00003E0000
0000FE0000
0007FF0000
001FFF8000
007FFE0000
003FF00000
003FC00000
001E000000
0001800000
000FF00000
001FF80000
003FFC0000
003E3E0000
003C1E0000
003C1E0000
003C1E0000
003E3E0000
003FFC0000
001FFC0000
000FF80000
0003E00000
0003E00000
0003E00000
0007E00000
0007F00000
000FF00000
000FF80000
000FF80000
001FF80000
001FFC0000
001FFC0000
003FFE0000
003F7E0000
003F7E0000
007E7F0000
007E3F0000
007E3F0000
00FC3F8000
00FC1F8000
01FC1FC000
01F80FC000
01F80FC000
03F00FE000
03F007E000
03FFFFF000
07FFFFF000
07FFFFF000
07FFFFF800
0FFFFFF800
0FFFFFFC00
0FC001FC00
1FC001FC00
1F8000FE00
3F8000FE00
3F8000FF00
3F00007F00
7F00007F00
7F00003F80
7E00003F80
FE00003F80
FE00001FC0
FC00001FC0
ENDCHAR
STARTCHAR aringacute
ENCODING 507
SWIDTH 585 0
DWIDTH 35 0
BBX 29 56 3 -1
BITMAP
00003000
0000F800
0003F800
001FFC00
007FFE00
01FFF800
00FFC000
00FF0000
00780000
00000000
0007C000
001FF000
003FF800
007FFC00
00787C00
00783C00
00783C00
007C7C00
007FF800
003FF800
001FF000
0007C000
001FF000
00FFFE00
03FFFF00
07FFFF80
1FFFFFC0
1FFFFFE0
0FE01FF0
0F8007F0
070007F0
020003F8
000003F8
000003F8
000003F8
000FFFF8
00FFFFF8
03FFFFF8
0FFFFFF8
1FFFFFF8
3FFFFFF8
7FC003F8
7F8003F8
FF0003F8
FE0003F8
FE0007F8
FE0007F8
FE000FF8
FF003FF8
7F807FF8
7FFFFFF8
3FFFFFF8
1FFFFFF8
0FFFFBF8
07FFE3F8
00FF0000
ENDCHAR
STARTCHAR AEacute
ENCODING 508
SWIDTH 585 0
DWIDTH 35 0
BBX 35 54 0 0
BITMAP
00000E0000
00003F0000
0001FF8000
0007FFC000
001FFF8000
001FFC0000
001FF00000
000F800000
000C000000
0000000000
0000000000
0003FFFFE0
0007FFFFE0
0007FFFFE0
0007FFFFE0
000FFFFFE0
000FFFFFE0
000FFE0000
001FFE0000
001FFE0000
001FFE0000
003F7E0000
003F7E0000
003F7E0000
007E7E0000
007E7E0000
007E7E0000
00FC7E0000
00FC7E0000
00FC7FFF80
01F87FFF80
01F87FFF80
01F87FFF80
03F07FFF80
03F07FFF80
03F07E0000
07F07E0000
07FFFE0000
07FFFE0000
0FFFFE0000
0FFFFE0000
0FFFFE0000
1FFFFE0000
1FC07E0000
1F807E0000
3F807E0000
3F807E0000
3F007E0000
7F007FFFE0
7F007FFFE0
7E007FFFE0
FE007FFFE0
FC007FFFE0
FC007FFFE0
ENDCHAR
STARTCHAR aeacute
ENCODING 509
SWIDTH 585 0
DWIDTH 35 0
BBX 36 51 0 -1
BITMAP
0000080000
00000C0000
00001F0000
00001F8000
00003FC000
00007FC000
00007F8000
0000FF0000
0000FE0000
0001FE0000
0003FC0000
0003F80000
0003F00000
0000F00000
0000200000
0000000000
0000000000
01FC01F800
07FF07FE00
0FFF8FFF00
1FFFDFFF80
3FFFFFFFC0
3FFFFFFFC0
1F07FF0FE0
0E03FE07E0
0C01FC07E0
0001FC03E0
0001F803E0
0001F803F0
0001F803F0
003FFFFFF0
01FFFFFFF0
07FFFFFFF0
0FFFFFFFF0
1FFFFFFFC0
3FFFF80000
3F81F80000
7F01F80000
7E01F80000
7E01F80000
FE01F80000
FE01FC0000
FE01FC0080
7E03FE01C0
7F03FF83E0
7F8FFFFFE0
3FFFFFFFF0
1FFFDFFFE0
0FFF8FFFC0
07FF07FF80
01FC00FC00
ENDCHAR
STARTCHAR Oslashacute
ENCODING 510
SWIDTH 585 0
DWIDTH 35 0
BBX 32 60 2 -5
BITMAP
00003800
0000FC00
0007FE00
001FFF00
007FFE00
007FF000
007FC000
003E0010
00300038
0000003E
0000007F
000FF07F
003FFCFE
00FFFFFE
01FFFFFC
03FFFFFC
07FFFFF8
0FFE7FF0
1FF00FF8
1FE007FC
3FC00FFC
3F800FFC
7F801FFE
7F001F7E
7F003F7E
7E003E7F
FE007E7F
FE007C7F
FE00FC7F
FE01F87F
FC01F83F
FC03F03F
FC03F03F
FC07E03F
FC07E03F
FC0FC03F
FC0FC07F
FC1F807F
FE1F807F
FE3F007F
FE3E007F
7E7E007F
7E7C00FE
7FFC00FE
7FF800FE
3FF801FC
3FF003FC
1FF007FC
1FF80FF8
0FFFFFF0
0FFFFFF0
1FFFFFE0
1FFFFFC0
3FFFFF00
7F3FFE00
7F07F000
FE000000
FC000000
3C000000
08000000
ENDCHAR
STARTCHAR oslashacute
ENCODING 511
SWIDTH 585 0
DWIDTH 35 0
BBX 31 55 3 -5
BITMAP
00004000
00006000
0000F800
0000FC00
0001FE00
0003FE00
0003FC00
0007F800
0007F000
000FF000
001FE000
001FC000
001F8000
00078100
000103C0
000003F0
000007F0
001FE7E0
007FFFE0
01FFFFC0
03FFFFC0
07FFFFC0
0FFFFFE0
1FF87FF0
3FE07FF0
3FC0FFF8
7F80FFF8
7F01F9FC
FF01F9FC
FE03F1FC
FE03F1FC
FE07E0FC
FE07C0FC
FE0FC0FC
FE0F80FE
FE1F80FC
FE1F01FC
FE3F01FC
FE3E01FC
FE7E01FC
7F7C03FC
7FFC07F8
7FF807F8
3FF81FF0
1FF83FF0
1FFFFFE0
0FFFFFC0
0FFFFF80
1FFFFF00
1FFFFC00
3F9FE000
3F000000
3F000000
0E000000
02000000
ENDCHAR
STARTCHAR Scommaaccent
ENCODING 536
SWIDTH 598 0
DWIDTH 36 0
BBX 30 56 3 -12
BITMAP
001FF000
007FFE00
01FFFF80
03FFFFC0
07FFFFE0
0FFFFFF0
1FF01FF8
1FC007F0
3F8003E0
3F8001E0
3F8000C0
3F800080
3F800000
3F800000
3F800000
3FC00000
1FF00000
1FF80000
0FFF0000
07FFC000
03FFF800
00FFFE00
003FFF80
000FFFC0
0003FFE0
00007FF0
00001FF8
000007F8
000003F8
000001FC
000001FC
000001FC
000001FC
180001FC
380001FC
3C0003FC
7F0003F8
7F800FF8
FFF03FF0
7FFFFFF0
3FFFFFE0
1FFFFFC0
07FFFF00
01FFFE00
003FF000
000FE000
000FE000
000FC000
000FC000
000FC000
000F8000
000F8000
000F8000
000F8000
001F0000
001F0000
ENDCHAR
STARTCHAR scommaaccent
ENCODING 537
SWIDTH 598 0
DWIDTH 36 0
BBX 28 45 4 -12
BITMAP
003FE000
01FFFC00
03FFFF00
0FFFFF80
1FFFFFE0
1FFFFFF0
3FC01FE0
3F800FE0
3F8007C0
3F800380
3F800180
3FE00000
3FF80000
1FFF0000
0FFFF000
07FFFC00
03FFFF00
00FFFF80
001FFFC0
0001FFE0
00003FE0
00000FF0
100007F0
380007F0
380007F0
7C0007F0
FF000FF0
FFC07FE0
FFFFFFE0
7FFFFFC0
3FFFFF80
0FFFFF00
03FFFC00
007FE000
001FC000
001FC000
001F8000
001F8000
001F8000
001F0000
001F0000
001F0000
001F0000
003E0000
003E0000
ENDCHAR
STARTCHAR uni021A
ENCODING 538
SWIDTH 598 0
DWIDTH 36 0
BBX 32 54 2 -11
BITMAP
FFFFFFFF
FFFFFFFF
FFFFFFFF
FFFFFFFF
FFFFFFFF
FFFFFFFF
000FE000
000FE000
000FE000
000FE000
000FE000
000FE000
000FE000
000FE000
000FE000
000FE000
000FE000
000FE000
000FE000
000FE000
000FE000
000FE000
000FE000
000FE000
000FE000
000FE000
000FE000
000FE000
000FE000
000FE000
000FE000
000FE000
000FE000
000FE000
000FE000
000FE000
000FE000
000FE000
000FE000
000FE000
000FE000
000FE000
000FF000
0007F000
0007F000
0007E000
0007E000
0007E000
0007E000
0007C000
0007C000
0007C000
000F8000
000F8000
ENDCHAR
STARTCHAR uni021B
ENCODING 539
SWIDTH 598 0
DWIDTH 36 0
BBX 27 53 5 -12
BITMAP
007E0000
00FE0000
00FE0000
00FC0000
00FC0000
01FC0000
01FC0000
01FC0000
01FC0000
FFFFFF00
FFFFFF00
FFFFFF00
FFFFFF00
FFFFFF00
FFFFFF00
01FC0000
01FC0000
01F80000
01F80000
01F80000
01F80000
01F80000
03F80000
03F80000
03F80000
03F80000
03F80000
03F80000
03F80000
03F80000
03F80000
03F80000
03FC0040
03FC01C0
01FE03C0
01FF9FE0
01FFFFE0
00FFFFE0
00FFFFE0
007FFF80
003FFE00
003FF000
003F8000
003F8000
003F0000
003F0000
003F0000
003E0000
003E0000
003E0000
003E0000
007C0000
007C0000
ENDCHAR
STARTCHAR dotlessj
ENCODING 567
SWIDTH 598 0
DWIDTH 36 0
BBX 24 45 3 -13
BITMAP
07FFFF
07FFFF
07FFFF
07FFFF
07FFFF
07FFFF
00007F
00007F
00007F
00007F
00007F
00007F
00007F
00007F
00007F
00007F
00007F
00007F
00007F
00007F
00007F
00007F
00007F
00007F
00007F
00007F
00007F
00007F
00007F
00007F
00007F
00007F
00007F
00007F
08007F
1800FF
3C00FE
7E01FE
7F87FC
FFFFFC
FFFFF8
7FFFF0
1FFFE0
0FFF80
01FE00
ENDCHAR
STARTCHAR circumflex
ENCODING 710
SWIDTH 598 0
DWIDTH 36 0
BBX 19 14 9 33
BITMAP
01E000
01F000
03F800
07FC00
0FFC00
0FFE00
1FFF00
3FFF80
7F3FC0
FE1FC0
FC0FE0
7C0FC0
380700
100200
ENDCHAR
STARTCHAR caron
ENCODING 711
SWIDTH 598 0
DWIDTH 36 0
BBX 19 14 9 36
BITMAP
180300
3C0380
FE07C0
FE0FE0
7F1FC0
7FBF80
3FFF00
1FFF00
0FFE00
07FC00
07F800
03F000
01F000
00E000
ENDCHAR
STARTCHAR uni02C9
ENCODING 713
SWIDTH 598 0
DWIDTH 36 0
BBX 20 6 8 37
BITMAP
FFFFF0
FFFFF0
FFFFF0
FFFFF0
FFFFF0
FFFFF0
ENDCHAR
STARTCHAR uni02CB
ENCODING 715
SWIDTH 598 0
DWIDTH 36 0
BBX 13 14 12 35
BITMAP
0400
0E00
3E00
7F00
FF80
7F80
3FC0
3FC0
1FE0
0FF0
07F0
07F8
03F0
01C0
ENDCHAR
STARTCHAR breve
ENCODING 728
SWIDTH 598 0
DWIDTH 36 0
BBX 22 10 7 36
BITMAP
100010
300030
780078
FE01FC
FFCFFC
7FFFF8
3FFFF0
1FFFE0
07FF80
01FE00
ENDCHAR
STARTCHAR dotaccent
ENCODING 729
SWIDTH 598 0
DWIDTH 36 0
BBX 9 9 14 37
BITMAP
3C00
7F00
FF00
FF80
FF80
FF80
FF00
7F00
3C00
ENDCHAR
STARTCHAR ring
ENCODING 730
SWIDTH 598 0
DWIDTH 36 0
BBX 13 13 12 35
BITMAP
0F80
3FE0
7FF0
FFF0
F8F8
F078
F078
F078
F8F8
7FF0
7FF0
3FC0
0700
ENDCHAR
STARTCHAR ogonek
ENCODING 731
SWIDTH 598 0
DWIDTH 36 0
BBX 11 12 19 -12
BITMAP
07E0
0FC0
1F80
3F00
3E00
7C00
7C00
FC60
7FE0
7FE0
3FE0
1F80
ENDCHAR
STARTCHAR tilde
ENCODING 732
SWIDTH 598 0
DWIDTH 36 0
BBX 25 9 6 38
BITMAP
03F00000
0FFC0600
3FFF0F80
7FFFFF80
FFFFFF00
FFFFFE00
7C1FFE00
1807F800
0001E000
ENDCHAR
STARTCHAR hungarumlaut
ENCODING 733
SWIDTH 598 0
DWIDTH 36 0
BBX 24 15 8 34
BITMAP
010020
038070
03E0FC
07F0FE
0FF9FF
0FF1FE
1FE3FC
1FE7F8
3FC7F8
7F8FF0
7F0FE0
FF1FC0
7E0FC0
1C0380
000100
ENDCHAR
STARTCHAR uni037E
ENCODING 894
SWIDTH 598 0
DWIDTH 36 0
BBX 12 42 11 -13
BITMAP
0F00
1F80
3FC0
7FE0
7FE0
7FE0
7FE0
3FE0
1FC0
0F00
0000
0000
0000
0000
0000
0000
0000
0000
0000
0000
0000
0000
0000
1F80
3FC0
3FE0
7FE0
7FF0
7FF0
3FF0
3FF0
1FE0
07E0
07E0
0FC0
1FC0
1F80
3F00
7E00
FC00
7800
1000
ENDCHAR
STARTCHAR tonos
ENCODING 900
SWIDTH 598 0
DWIDTH 36 0
BBX 8 13 14 36
BITMAP
7E
7F
7F
7F
7E
7E
7E
7C
7C
7C
7C
F8
F8
ENDCHAR
STARTCHAR dieresistonos
ENCODING 901
SWIDTH 598 0
DWIDTH 36 0
BBX 22 19 7 30
BITMAP
007800
007F80
007F00
007F00
007F00
007F00
007E00
007E00
007E00
007C00
3C7CF0
7E7DF8
FF7FFC
FF87FC
FF87FC
FF87FC
FF03FC
7F01F8
3C00F0
ENDCHAR
STARTCHAR Alphatonos
ENCODING 902
SWIDTH 598 0
DWIDTH 36 0
BBX 34 48 1 0
BITMAP
07E0000000
07F0000000
07F0000000
07F0000000
07E1800000
07E1C00000
07E3C00000
07C3C00000
07C3E00000
07C7E00000
07C7F00000
0787F00000
0F8FF00000
000FF80000
001FF80000
001FFC0000
001FFC0000
003FFC0000
003FFE0000
003F7E0000
007E7F0000
007E3F0000
007E3F0000
00FC3F8000
00FC1F8000
00FC1FC000
01F81FC000
01F80FC000
03F80FE000
03F007E000
03FFFFF000
07FFFFF000
07FFFFF000
07FFFFF800
0FFFFFF800
0FFFFFFC00
0FC001FC00
1FC001FC00
1F8000FE00
3F8000FE00
3F8000FE00
3F00007F00
7F00007F00
7F00003F80
7E00003F80
FE00003F80
FE00001FC0
FC00001FC0
ENDCHAR
STARTCHAR anoteleia
ENCODING 903
SWIDTH 598 0
DWIDTH 36 0
BBX 10 10 12 23
BITMAP
1E00
3F80
7F80
FFC0
FFC0
FFC0
FFC0
7F80
3F80
1E00
ENDCHAR
STARTCHAR Epsilontonos
ENCODING 904
SWIDTH 598 0
DWIDTH 36 0
BBX 36 47 -4 0
BITMAP
FC00000000
FE00000000
FE00000000
FE00000000
FCFFFFFFF0
FCFFFFFFF0
FCFFFFFFF0
FCFFFFFFF0
F8FFFFFFF0
F8FFFFFFF0
F8FC000000
F8FC000000
F0FC000000
00FC000000
00FC000000
00FC000000
00FC000000
00FC000000
00FC000000
00FC000000
00FC000000
00FC000000
00FFFFFF00
00FFFFFF00
00FFFFFF00
00FFFFFF00
00FFFFFF00
00FFFFFF00
00FC000000
00FC000000
00FC000000
00FC000000
00FC000000
00FC000000
00FC000000
00FC000000
00FC000000
00FC000000
00FC000000
00FC000000
00FC000000
00FFFFFFF0
00FFFFFFF0
00FFFFFFF0
00FFFFFFF0
00FFFFFFF0
00FFFFFFF0
ENDCHAR
STARTCHAR Etatonos
ENCODING 905
SWIDTH 598 0
DWIDTH 36 0
BBX 38 47 -5 0
BITMAP
7C00000000
7F00000000
7F00000000
FE00000000
FEFF0003F8
FEFF0003FC
FCFE0003F8
FCFE0003F8
FCFE0003F8
FCFE0003F8
F8FE0003F8
F8FE0003F8
F8FE0003F8
00FE0003F8
00FE0003F8
00FE0003F8
00FE0003F8
00FE0003F8
00FE0003F8
00FE0003F8
00FE0003F8
00FFFFFFF8
00FFFFFFF8
00FFFFFFF8
00FFFFFFF8
00FFFFFFF8
00FFFFFFF8
00FE0003F8
00FE0003F8
00FE0003F8
00FE0003F8
00FE0003F8
00FE0003F8
00FE0003F8
00FE0003F8
00FE0003F8
00FE0003F8
00FE0003F8
00FE0003F8
00FE0003F8
00FE0003F8
00FE0003F8
00FE0003F8
00FE0003F8
00FE0003F8
00FE0003F8
00FE0003F8
ENDCHAR
STARTCHAR Iotatonos
ENCODING 906
SWIDTH 598 0
DWIDTH 36 0
BBX 32 47 -2 0
BITMAP
FC000000
FE000000
FE000000
FE000000
FCFFFFFF
FCFFFFFF
FCFFFFFF
FCFFFFFF
F8FFFFFF
F8FFFFFF
F800FE00
F800FE00
F000FE00
0000FE00
0000FE00
0000FE00
0000FE00
0000FE00
0000FE00
0000FE00
0000FE00
0000FE00
0000FE00
0000FE00
0000FE00
0000FE00
0000FE00
0000FE00
0000FE00
0000FE00
0000FE00
0000FE00
0000FE00
0000FE00
0000FE00
0000FE00
0000FE00
0000FE00
0000FE00
0000FE00
0000FE00
00FFFFFF
00FFFFFF
00FFFFFF
00FFFFFF
00FFFFFF
00FFFFFF
ENDCHAR
STARTCHAR Omicrontonos
ENCODING 908
SWIDTH 598 0
DWIDTH 36 0
BBX 34 49 0 -1
BITMAP
7E00000000
7F00000000
7F00000000
7E00000000
7E03FC0000
7E0FFF8000
FE3FFFC000
FC7FFFF000
FCFFFFF800
FDFFFFFC00
FBFF9FFC00
FFFC03FE00
FFF801FF00
0FF000FF00
0FE0007F00
1FC0003F80
1FC0003F80
1FC0003F80
3F80001FC0
3F80001FC0
3F80001FC0
3F80001FC0
3F00001FC0
3F00001FC0
3F00000FC0
3F00000FC0
3F00000FC0
3F00000FC0
3F00000FC0
3F00000FC0
3F80001FC0
3F80001FC0
3F80001FC0
3F80001FC0
1F80001FC0
1FC0003F80
1FC0003F80
1FE0003F80
0FE0007F00
0FF000FF00
07F801FF00
07FC03FE00
03FFFFFC00
01FFFFFC00
00FFFFF800
007FFFF000
003FFFC000
000FFF8000
0001FC0000
ENDCHAR
STARTCHAR Upsilontonos
ENCODING 910
SWIDTH 598 0
DWIDTH 36 0
BBX 41 47 -6 0
BITMAP
FC0000000000
FE0000000000
FE0000000000
FE0000000000
FFFE00007F80
FCFE00007F00
FCFF00007F00
FC7F0000FE00
F87F8000FE00
F83F8001FC00
F81FC001FC00
F81FC003F800
F00FE003F800
000FF007F000
0007F007F000
0007F80FE000
0003F80FE000
0003FC0FC000
0001FC1FC000
0001FE1F8000
0000FE3F8000
0000FF3F0000
00007F7F0000
00007FFE0000
00003FFE0000
00001FFC0000
00001FFC0000
00000FF80000
00000FF80000
000007F00000
000007F00000
000007F00000
000007F00000
000007F00000
000007F00000
000007F00000
000007F00000
000007F00000
000007F00000
000007F00000
000007F00000
000007F00000
000007F00000
000007F00000
000007F00000
000007F00000
000007F00000
ENDCHAR
STARTCHAR Omegatonos
ENCODING 911
SWIDTH 598 0
DWIDTH 36 0
BBX 32 49 1 0
BITMAP
F0000000
FE000000
FE000000
FE000000
FC000000
FC000000
FC0FF800
FC3FFF00
F8FFFFC0
F9FFFFE0
FBFFFFF0
F7FFFFF0
F7FC0FF8
0FF003F8
0FE001FC
0FE001FC
1FC000FC
1FC000FE
1FC000FE
1F80007E
1F80007E
3F80007E
3F80007F
3F80007F
3F80007F
3F80007F
3F80007F
3F80007F
3F80007F
3F80007F
3F80007F
3F80007F
3F80007F
1F80007E
1FC000FE
1FC000FE
0FE001FC
0FE001FC
07F001FC
07F003F8
03F807F8
01F807F0
01FC0FE0
3FFE1FFF
3FFE1FFF
3FFE1FFF
3FFE1FFF
3FFE1FFF
3FFE1FFF
ENDCHAR
STARTCHAR iotadieresistonos
ENCODING 912
SWIDTH 598 0
DWIDTH 36 0
BBX 24 52 6 0
BITMAP
001F80
001FC0
001FC0
001FC0
001F80
001F80
001F80
001F00
001F00
001F00
0F1F78
3FBEFE
3FFFFE
7FC1FF
7FC1FF
7FC1FF
3FC1FE
3F80FE
0F0078
FFFF00
FFFF00
FFFF00
FFFF00
FFFF00
FFFF00
C07F00
807F00
007F00
007F00
007F00
007F00
007F00
007F00
007F00
007F00
007F00
007F00
007F00
007F00
007F00
007F00
007F00
007F00
007F00
007F00
007FF0
007FF0
007FF0
003FF0
003FF0
001FF0
0007F0
ENDCHAR
STARTCHAR Alpha
ENCODING 913
SWIDTH 598 0
DWIDTH 36 0
BBX 34 44 1 0
BITMAP
0001800000
0001C00000
0003C00000
0003E00000
0003E00000
0007E00000
0007F00000
000FF00000
000FF80000
000FF80000
001FF80000
001FFC0000
001FFC0000
003FFE0000
003F7E0000
003F7E0000
007E7F0000
007E3F0000
007E3F0000
00FC3F8000
00FC1F8000
01FC1FC000
01F80FC000
01F80FC000
03F00FE000
03F007E000
03FFFFF000
07FFFFF000
07FFFFF000
07FFFFF800
0FFFFFF800
0FFFFFFC00
0FC001FC00
1FC001FC00
1F8000FE00
3F8000FE00
3F8000FF00
3F00007F00
7F00007F00
7F00003F80
7E00003F80
FE00003F80
FE00001FC0
FC00001FC0
ENDCHAR
STARTCHAR Beta
ENCODING 914
SWIDTH 598 0
DWIDTH 36 0
BBX 30 43 3 0
BITMAP
FFFFE000
FFFFFC00
FFFFFF00
FFFFFF80
FFFFFFC0
FFFFFFE0
FE003FE0
FE000FF0
FE0007F0
FE0007F0
FE0003F8
FE0003F8
FE0003F0
FE0007F0
FE0007F0
FE000FF0
FE003FE0
FFFFFFC0
FFFFFF80
FFFFFF00
FFFFFF00
FFFFFFC0
FFFFFFE0
FE003FF0
FE000FF0
FE0007F8
FE0003F8
FE0001FC
FE0001FC
FE0001FC
FE0001FC
FE0001FC
FE0001FC
FE0003FC
FE0003FC
FE0007F8
FE003FF8
FFFFFFF0
FFFFFFE0
FFFFFFC0
FFFFFF80
FFFFFE00
FFFFF000
ENDCHAR
STARTCHAR Gamma
ENCODING 915
SWIDTH 598 0
DWIDTH 36 0
BBX 28 43 4 0
BITMAP
FFFFFFF0
FFFFFFF0
FFFFFFF0
FFFFFFF0
FFFFFFF0
FFFFFFF0
FC000000
FC000000
FC000000
FC000000
FC000000
FC000000
FC000000
FC000000
FC000000
FC000000
FC000000
FC000000
FC000000
FC000000
FC000000
FC000000
FC000000
FC000000
FC000000
FC000000
FC000000
FC000000
FC000000
FC000000
FC000000
FC000000
FC000000
FC000000
FC000000
FC000000
FC000000
FC000000
FC000000
FC000000
FC000000
FC000000
FC000000
ENDCHAR
STARTCHAR Delta
ENCODING 916
SWIDTH 598 0
DWIDTH 36 0
BBX 34 44 1 0
BITMAP
0001800000
0001C00000
0003C00000
0003E00000
0003E00000
0007E00000
0007F00000
0007F00000
000FF80000
000FF80000
001FF80000
001FFC0000
001FFC0000
003FFC0000
003F7E0000
003E7E0000
007E7F0000
007E3F0000
007C3F0000
00FC1F8000
00FC1F8000
01F81FC000
01F80FC000
01F80FC000
03F00FE000
03F007E000
03F007F000
07E007F000
07E003F000
07E003F800
0FC001F800
0FC001FC00
1FC001FC00
1F8000FC00
1F8000FE00
3F8000FE00
3F80007F00
3FFFFFFF00
7FFFFFFF00
7FFFFFFF80
7FFFFFFF80
FFFFFFFFC0
FFFFFFFFC0
FFFFFFFFC0
ENDCHAR
STARTCHAR Epsilon
ENCODING 917
SWIDTH 598 0
DWIDTH 36 0
BBX 28 43 4 0
BITMAP
FFFFFFF0
FFFFFFF0
FFFFFFF0
FFFFFFF0
FFFFFFF0
FFFFFFF0
FC000000
FC000000
FC000000
FC000000
FC000000
FC000000
FC000000
FC000000
FC000000
FC000000
FC000000
FC000000
FFFFFF00
FFFFFF00
FFFFFF00
FFFFFF00
FFFFFF00
FFFFFF00
FC000000
FC000000
FC000000
FC000000
FC000000
FC000000
FC000000
FC000000
FC000000
FC000000
FC000000
FC000000
FC000000
FFFFFFF0
FFFFFFF0
FFFFFFF0
FFFFFFF0
FFFFFFF0
FFFFFFF0
ENDCHAR
STARTCHAR Zeta
ENCODING 918
SWIDTH 598 0
DWIDTH 36 0
BBX 31 43 3 0
BITMAP
7FFFFFFC
7FFFFFFC
7FFFFFFC
7FFFFFFC
7FFFFFF8
7FFFFFF8
000007F0
00000FF0
00000FE0
00001FC0
00003FC0
00003F80
00007F00
00007F00
0000FE00
0001FC00
0001FC00
0003F800
0007F800
0007F000
000FE000
001FE000
001FC000
003F8000
007F8000
007F0000
00FE0000
01FE0000
01FC0000
03F80000
07F80000
07F00000
0FF00000
0FE00000
1FC00000
3FC00000
3F800006
7FFFFFFE
FFFFFFFE
FFFFFFFE
FFFFFFFE
FFFFFFFE
FFFFFFFE
ENDCHAR
STARTCHAR Eta
ENCODING 919
SWIDTH 598 0
DWIDTH 36 0
BBX 30 43 3 0
BITMAP
FF0003F8
FF0003FC
FE0003F8
FE0003F8
FE0003F8
FE0003F8
FE0003F8
FE0003F8
FE0003F8
FE0003F8
FE0003F8
FE0003F8
FE0003F8
FE0003F8
FE0003F8
FE0003F8
FE0003F8
FFFFFFF8
FFFFFFF8
FFFFFFF8
FFFFFFF8
FFFFFFF8
FFFFFFF8
FE0003F8
FE0003F8
FE0003F8
FE0003F8
FE0003F8
FE0003F8
FE0003F8
FE0003F8
FE0003F8
FE0003F8
FE0003F8
FE0003F8
FE0003F8
FE0003F8
FE0003F8
FE0003F8
FE0003F8
FE0003F8
FE0003F8
FE0003F8
ENDCHAR
STARTCHAR Theta
ENCODING 920
SWIDTH 598 0
DWIDTH 36 0
BBX 32 44 2 0
BITMAP
000FF000
007FFE00
01FFFF80
03FFFFC0
07FFFFE0
0FFFFFF0
1FFC7FF8
1FE007F8
3FC003FC
3F8001FC
7F0000FE
7F0000FE
7E0000FE
7E00007E
FE00007F
FE00007F
FE00007F
FE00007F
FE7FFF3F
FE7FFF3F
FC7FFF3F
FC7FFF3F
FC7FFF3F
FE7FFF3F
FE7FFF3F
FE00007F
FE00007F
FE00007F
FE00007F
FE00007F
7F00007E
7F0000FE
7F0000FE
3F8001FE
3FC001FC
3FE003FC
1FF007F8
0FFC1FF8
0FFFFFF0
07FFFFE0
03FFFFC0
01FFFF80
007FFE00
000FF800
ENDCHAR
STARTCHAR Iota
ENCODING 921
SWIDTH 598 0
DWIDTH 36 0
BBX 24 43 6 0
BITMAP
FFFFFF
FFFFFF
FFFFFF
FFFFFF
FFFFFF
FFFFFF
00FE00
00FE00
00FE00
00FE00
00FE00
00FE00
00FE00
00FE00
00FE00
00FE00
00FE00
00FE00
00FE00
00FE00
00FE00
00FE00
00FE00
00FE00
00FE00
00FE00
00FE00
00FE00
00FE00
00FE00
00FE00
00FE00
00FE00
00FE00
00FE00
00FE00
00FE00
FFFFFF
FFFFFF
FFFFFF
FFFFFF
FFFFFF
FFFFFF
ENDCHAR
STARTCHAR Kappa
ENCODING 922
SWIDTH 598 0
DWIDTH 36 0
BBX 32 43 3 0
BITMAP
FE0001FE
FE0003FC
FE0007F8
FE000FF0
FE001FE0
FE003FC0
FE007F80
FE00FF00
FE01FE00
FE01FE00
FE03FC00
FE07F800
FE0FF000
FE1FE000
FE3FC000
FE7F8000
FEFF0000
FFFE0000
FFFC0000
FFFE0000
FFFE0000
FFFF0000
FFFF8000
FF3FC000
FE1FC000
FE1FE000
FE0FF000
FE07F800
FE07F800
FE03FC00
FE01FE00
FE01FE00
FE00FF00
FE007F80
FE003FC0
FE003FC0
FE001FE0
FE000FF0
FE000FF8
FE0007F8
FE0003FC
FE0003FE
FE0001FF
ENDCHAR
STARTCHAR Lambda
ENCODING 923
SWIDTH 598 0
DWIDTH 36 0
BBX 34 44 1 0
BITMAP
0001800000
0001C00000
0003C00000
0003C00000
0003E00000
0007E00000
0007F00000
0007F00000
000FF00000
000FF80000
000FF80000
001FFC0000
001FFC0000
003FFC0000
003F7E0000
003E7E0000
007E7F0000
007E3F0000
007C3F0000
00FC3F8000
00FC1F8000
00F81FC000
01F80FC000
01F80FC000
03F80FE000
03F007E000
03F007F000
07F007F000
07E003F000
07E003F800
0FE003F800
0FC001FC00
0FC001FC00
1FC000FC00
1F8000FE00
3F8000FE00
3F80007E00
3F00007F00
7F00007F00
7F00003F80
7E00003F80
FE00003F80
FE00001FC0
FC00001FC0
ENDCHAR
STARTCHAR Mu
ENCODING 924
SWIDTH 598 0
DWIDTH 36 0
BBX 30 43 3 0
BITMAP
F800007C
FC00007C
FC0000FC
FE0000FC
FE0001FC
FF0003FC
FF0003FC
FF8007FC
FF8007FC
FFC00FFC
FFC00FFC
FFE01FFC
FFE01FFC
FFF03FFC
FFF03EFC
FDF87EFC
FDF87CFC
FCFCFCFC
FCFCF8FC
FC7FF8FC
FC7FF0FC
FC3FF0FC
FC3FE0FC
FC1FE0FC
FC1FC0FC
FC0F80FC
FC0F80FC
FC0700FC
FC0000FC
FC0000FC
FC0000FC
FC0000FC
FC0000FC
FC0000FC
FC0000FC
FC0000FC
FC0000FC
FC0000FC
FC0000FC
FC0000FC
FC0000FC
FC0000FC
FC0000FC
ENDCHAR
STARTCHAR Nu
ENCODING 925
SWIDTH 598 0
DWIDTH 36 0
BBX 30 43 3 0
BITMAP
FE0001FC
FE0001FC
FF0001FC
FF0001FC
FF8001FC
FFC001FC
FFC001FC
FFE001FC
FFE001FC
FFF001FC
FFF001FC
FFF801FC
FFFC01FC
FEFC01FC
FEFE01FC
FE7E01FC
FE7F01FC
FE3F01FC
FE1F81FC
FE1F81FC
FE0FC1FC
FE0FE1FC
FE07E1FC
FE07F1FC
FE03F1FC
FE03F9FC
FE01F9FC
FE00FDFC
FE00FFFC
FE007FFC
FE007FFC
FE003FFC
FE003FFC
FE001FFC
FE001FFC
FE000FFC
FE0007FC
FE0007FC
FE0003FC
FE0003FC
FE0001FC
FE0001FC
FE0000FC
ENDCHAR
STARTCHAR Xi
ENCODING 926
SWIDTH 598 0
DWIDTH 36 0
BBX 24 43 6 0
BITMAP
FFFFFF
FFFFFF
FFFFFF
FFFFFF
FFFFFF
FFFFFF
000000
000000
000000
000000
000000
000000
000000
000000
000000
000000
000000
3FFFFC
3FFFFC
3FFFFC
3FFFFC
3FFFFC
3FFFFC
000000
000000
000000
000000
000000
000000
000000
000000
000000
000000
000000
000000
000000
000000
FFFFFF
FFFFFF
FFFFFF
FFFFFF
FFFFFF
FFFFFF
ENDCHAR
STARTCHAR Omicron
ENCODING 927
SWIDTH 598 0
DWIDTH 36 0
BBX 32 45 2 -1
BITMAP
000FF000
003FFE00
00FFFF00
01FFFFC0
03FFFFE0
07FFFFF0
0FFE7FF0
1FF00FF8
1FE007FC
3FC003FC
3F8001FC
7F0000FE
7F0000FE
7F0000FE
FE00007F
FE00007F
FE00007F
FE00007F
FC00007F
FC00007F
FC00003F
FC00003F
FC00003F
FC00003F
FC00003F
FC00003F
FE00007F
FE00007F
FE00007F
FE00007F
7E00007F
7F0000FE
7F0000FE
7F8000FE
3F8001FC
3FC003FC
1FE007FC
1FF00FF8
0FFFFFF0
07FFFFF0
03FFFFE0
01FFFFC0
00FFFF00
003FFE00
0007F000
ENDCHAR
STARTCHAR Pi
ENCODING 928
SWIDTH 598 0
DWIDTH 36 0
BBX 28 43 4 0
BITMAP
FFFFFFF0
FFFFFFF0
FFFFFFF0
FFFFFFF0
FFFFFFF0
FFFFFFF0
FC0003F0
FC0003F0
FC0003F0
FC0003F0
FC0003F0
FC0003F0
FC0003F0
FC0003F0
FC0003F0
FC0003F0
FC0003F0
FC0003F0
FC0003F0
FC0003F0
FC0003F0
FC0003F0
FC0003F0
FC0003F0
FC0003F0
FC0003F0
FC0003F0
FC0003F0
FC0003F0
FC0003F0
FC0003F0
FC0003F0
FC0003F0
FC0003F0
FC0003F0
FC0003F0
FC0003F0
FC0003F0
FC0003F0
FC0003F0
FC0003F0
FC0003F0
FC0003F0
ENDCHAR
STARTCHAR Rho
ENCODING 929
SWIDTH 598 0
DWIDTH 36 0
BBX 29 43 4 0
BITMAP
FFFFF000
FFFFFC00
FFFFFF00
FFFFFF80
FFFFFFC0
FFFFFFE0
FE00FFF0
FE001FF0
FE0007F0
FE0007F8
FE0003F8
FE0003F8
FE0003F8
FE0003F8
FE0003F8
FE0003F8
FE0007F8
FE000FF0
FE003FF0
FFFFFFE0
FFFFFFC0
FFFFFF80
FFFFFF00
FFFFFE00
FFFFF000
FE000000
FE000000
FE000000
FE000000
FE000000
FE000000
FE000000
FE000000
FE000000
FE000000
FE000000
FE000000
FE000000
FE000000
FE000000
FE000000
FE000000
FE000000
ENDCHAR
STARTCHAR Sigma
ENCODING 931
SWIDTH 598 0
DWIDTH 36 0
BBX 31 44 3 -1
BITMAP
7FFFFFFC
7FFFFFFC
7FFFFFFC
7FFFFFFC
7FFFFFFC
3FFFFFFC
1FC00000
1FC00000
0FE00000
0FE00000
07F00000
07F00000
03F80000
03FC0000
01FC0000
00FE0000
00FE0000
007F0000
007F0000
003F8000
003F8000
001FC000
001FC000
003F8000
007F8000
007F0000
00FF0000
00FE0000
01FC0000
01FC0000
03F80000
07F80000
07F00000
0FE00000
0FE00000
1FC00000
3FC00000
3F800000
7FFFFFFE
7FFFFFFE
FFFFFFFE
FFFFFFFE
FFFFFFFE
FFFFFFFE
ENDCHAR
STARTCHAR Tau
ENCODING 932
SWIDTH 598 0
DWIDTH 36 0
BBX 32 43 2 0
BITMAP
FFFFFFFF
FFFFFFFF
FFFFFFFF
FFFFFFFF
FFFFFFFF
FFFFFFFF
000FE000
000FE000
000FE000
000FE000
000FE000
000FE000
000FE000
000FE000
000FE000
000FE000
000FE000
000FE000
000FE000
000FE000
000FE000
000FE000
000FE000
000FE000
000FE000
000FE000
000FE000
000FE000
000FE000
000FE000
000FE000
000FE000
000FE000
000FE000
000FE000
000FE000
000FE000
000FE000
000FE000
000FE000
000FE000
000FE000
000FE000
ENDCHAR
STARTCHAR Upsilon
ENCODING 933
SWIDTH 598 0
DWIDTH 36 0
BBX 34 43 1 0
BITMAP
FF00003FC0
7F00003F80
7F80003F80
3F80007F00
3FC0007F00
1FC000FE00
0FE000FE00
0FE001FC00
07F001FC00
07F803F800
03F803F800
03FC07F000
01FC07F000
01FE07E000
00FE0FE000
00FF0FC000
007F1FC000
007F9F8000
003FBF8000
003FFF0000
001FFF0000
000FFE0000
000FFE0000
0007FC0000
0007FC0000
0003F80000
0003F80000
0003F80000
0003F80000
0003F80000
0003F80000
0003F80000
0003F80000
0003F80000
0003F80000
0003F80000
0003F80000
0003F80000
0003F80000
0003F80000
0003F80000
0003F80000
0003F80000
ENDCHAR
STARTCHAR Phi
ENCODING 934
SWIDTH 598 0
DWIDTH 36 0
BBX 36 43 0 0
BITMAP
0007FC0000
001FFF8000
007FFFE000
01FFFFF000
03FFFFFC00
07FFFFFE00
0FF9FDFF00
1FF1FCFF00
1FE1FC7F80
3FC1FC3FC0
3F81FC1FC0
7F01FC0FE0
7F01FC0FE0
7E01FC07E0
FE01FC07F0
FE01FC07F0
FC01FC03F0
FC01FC03F0
FC01FC03F0
FC01FC03F0
FC01FC03F0
FC01FC03F0
FC01FC03F0
FE01FC07F0
FE01FC07F0
7E01FC07E0
7F01FC0FE0
7F81FC1FE0
3F81FC3FC0
3FC1FC7FC0
1FF1FCFF80
0FF9FDFF00
07FFFFFE00
03FFFFFC00
01FFFFF800
007FFFE000
003FFFC000
0007FE0000
0001F80000
0001F80000
0001F80000
0001F80000
0001F80000
ENDCHAR
STARTCHAR Chi
ENCODING 935
SWIDTH 598 0
DWIDTH 36 0
BBX 30 43 3 0
BITMAP
FE0003F8
7F0007F0
7F0007F0
3F800FE0
3F800FE0
1FC01FC0
1FC01FC0
0FE03F80
0FE03F80
07F07F00
03F87F00
03F8FE00
01FCFE00
01FDFC00
00FFFC00
00FFF800
007FF800
007FF000
003FF000
003FE000
001FE000
001FE000
001FE000
003FF000
007FF000
007FF800
00FFF800
00FFFC00
01FDFC00
01FCFE00
03F8FF00
03F87F00
07F07F80
07F03F80
0FE03FC0
0FE01FC0
1FC01FE0
1FC00FE0
3F800FF0
3F8007F0
7F0003F8
7F0003FC
FE0001FC
ENDCHAR
STARTCHAR Psi
ENCODING 936
SWIDTH 598 0
DWIDTH 36 0
BBX 30 43 3 0
BITMAP
FE0001FC
FE0001FC
FE0FE1FC
FE0FE1FC
FE0FE1FC
FE0FE1FC
FE0FE1FC
FE0FE1FC
FE0FE1FC
FE0FE1FC
FE0FE1FC
FE0FE1FC
FE0FE1FC
FE0FE1FC
FE0FE1FC
FE0FE1FC
FE0FE1FC
FE0FE1FC
FE0FE1FC
7E0FE1F8
7F0FE3F8
7F0FE3F8
7F0FE3F8
3F8FE7F0
3FCFEFF0
1FEFFFE0
0FFFFFC0
07FFFF80
03FFFF00
00FFFC00
001FE000
000FE000
000FE000
000FE000
000FE000
000FE000
000FE000
000FE000
000FE000
000FE000
000FE000
000FE000
000FE000
ENDCHAR
STARTCHAR Omega
ENCODING 937
SWIDTH 598 0
DWIDTH 36 0
BBX 30 43 3 0
BITMAP
003FE000
00FFFC00
03FFFF00
07FFFF80
0FFFFFC0
1FFFFFC0
1FF03FE0
3FC00FE0
3F8007F0
3F8007F0
7F0003F0
7F0003F8
7F0003F8
7E0001F8
7E0001F8
FE0001F8
FE0001FC
FE0001FC
FE0001FC
FE0001FC
FE0001FC
FE0001FC
FE0001FC
FE0001FC
FE0001FC
FE0001FC
FE0001FC
7E0001F8
7F0003F8
7F0003F8
3F8007F0
3F8007F0
1FC007F0
1FC00FE0
0FE01FE0
07E01FC0
07F03F80
FFF87FFC
FFF87FFC
FFF87FFC
FFF87FFC
FFF87FFC
FFF87FFC
ENDCHAR
STARTCHAR Iotadieresis
ENCODING 938
SWIDTH 598 0
DWIDTH 36 0
BBX 24 54 6 0
BITMAP
3E00F0
7F01FC
7F83FC
FF83FE
FF83FE
FF83FE
7F83FC
7F01F8
1C00F0
000000
000000
FFFFFF
FFFFFF
FFFFFF
FFFFFF
FFFFFF
FFFFFF
00FE00
00FE00
00FE00
00FE00
00FE00
00FE00
00FE00
00FE00
00FE00
00FE00
00FE00
00FE00
00FE00
00FE00
00FE00
00FE00
00FE00
00FE00
00FE00
00FE00
00FE00
00FE00
00FE00
00FE00
00FE00
00FE00
00FE00
00FE00
00FE00
00FE00
00FE00
FFFFFF
FFFFFF
FFFFFF
FFFFFF
FFFFFF
FFFFFF
ENDCHAR
STARTCHAR Upsilondieresis
ENCODING 939
SWIDTH 598 0
DWIDTH 36 0
BBX 34 54 1 0
BITMAP
00F003C000
01FC0FE000
03FC0FF000
03FE1FF000
03FE1FF000
03FE1FF000
03FC0FF000
01F807E000
00F003C000
0000000000
0000000000
FF00003FC0
7F00003F80
7F80003F80
3F80007F00
3FC0007F00
1FC000FE00
0FE000FE00
0FE001FC00
07F001FC00
07F803F800
03F803F800
03FC07F000
01FC07F000
01FE07E000
00FE0FE000
00FF0FC000
007F1FC000
007F9F8000
003FBF8000
003FFF0000
001FFF0000
000FFE0000
000FFE0000
0007FC0000
0007FC0000
0003F80000
0003F80000
0003F80000
0003F80000
0003F80000
0003F80000
0003F80000
0003F80000
0003F80000
0003F80000
0003F80000
0003F80000
0003F80000
0003F80000
0003F80000
0003F80000
0003F80000
0003F80000
ENDCHAR
ENDFONT
